<?xml version="1.0" encoding="UTF-8" standalone="no"?>
<!-- Created with Inkscape (http://www.inkscape.org/) -->

<svg
   xmlns:dc="http://purl.org/dc/elements/1.1/"
   xmlns:cc="http://creativecommons.org/ns#"
   xmlns:rdf="http://www.w3.org/1999/02/22-rdf-syntax-ns#"
   xmlns:svg="http://www.w3.org/2000/svg"
   xmlns="http://www.w3.org/2000/svg"
   xmlns:sodipodi="http://sodipodi.sourceforge.net/DTD/sodipodi-0.dtd"
   xmlns:inkscape="http://www.inkscape.org/namespaces/inkscape"
   width="105.80003mm"
   height="81.889351mm"
   viewBox="0 0 105.80003 81.889351"
   version="1.1"
   id="svg8"
   inkscape:version="0.92.5 (2060ec1f9f, 2020-04-08)"
   sodipodi:docname="districtsOutline.svg"
   inkscape:export-filename="/home/landscapelab/Documents/pws/pws-frontend/src/assets/districtsOutline.png"
   inkscape:export-xdpi="96"
   inkscape:export-ydpi="96">
  <defs
     id="defs2">
    <clipPath
       id="clipPath26"
       clipPathUnits="userSpaceOnUse">
      <path
         inkscape:connector-curvature="0"
         id="path24"
         d="M 0,499.603 H 595.275 V 793.701 H 0 Z" />
    </clipPath>
    <clipPath
       id="clipPath40"
       clipPathUnits="userSpaceOnUse">
      <path
         inkscape:connector-curvature="0"
         id="path38"
         d="M 0,0 H 595.276 V 841.89 H 0 Z" />
    </clipPath>
    <clipPath
       id="clipPath72"
       clipPathUnits="userSpaceOnUse">
      <path
         inkscape:connector-curvature="0"
         id="path70"
         d="M 0,0 H 595.276 V 841.89 H 0 Z" />
    </clipPath>
    <clipPath
       id="clipPath88"
       clipPathUnits="userSpaceOnUse">
      <path
         inkscape:connector-curvature="0"
         id="path86"
         d="M 0,0 H 595.276 V 841.89 H 0 Z" />
    </clipPath>
    <clipPath
       id="clipPath120"
       clipPathUnits="userSpaceOnUse">
      <path
         inkscape:connector-curvature="0"
         id="path118"
         d="M 0,0 H 595.276 V 841.89 H 0 Z" />
    </clipPath>
    <clipPath
       id="clipPath142"
       clipPathUnits="userSpaceOnUse">
      <path
         inkscape:connector-curvature="0"
         id="path140"
         d="M 0,0 H 595.276 V 841.89 H 0 Z" />
    </clipPath>
    <clipPath
       id="clipPath174"
       clipPathUnits="userSpaceOnUse">
      <path
         inkscape:connector-curvature="0"
         id="path172"
         d="M 0,0 H 595.276 V 841.89 H 0 Z" />
    </clipPath>
    <clipPath
       id="clipPath194"
       clipPathUnits="userSpaceOnUse">
      <path
         inkscape:connector-curvature="0"
         id="path192"
         d="M 0,0 H 595.276 V 841.89 H 0 Z" />
    </clipPath>
    <clipPath
       id="clipPath226"
       clipPathUnits="userSpaceOnUse">
      <path
         inkscape:connector-curvature="0"
         id="path224"
         d="M 0,0 H 595.276 V 841.89 H 0 Z" />
    </clipPath>
    <clipPath
       id="clipPath304"
       clipPathUnits="userSpaceOnUse">
      <path
         inkscape:connector-curvature="0"
         id="path302"
         d="M 0,0 H 595.276 V 841.89 H 0 Z" />
    </clipPath>
    <clipPath
       id="clipPath336"
       clipPathUnits="userSpaceOnUse">
      <path
         inkscape:connector-curvature="0"
         id="path334"
         d="M 0,0 H 595.276 V 841.89 H 0 Z" />
    </clipPath>
    <clipPath
       id="clipPath356"
       clipPathUnits="userSpaceOnUse">
      <path
         inkscape:connector-curvature="0"
         id="path354"
         d="M 0,0 H 595.276 V 841.89 H 0 Z" />
    </clipPath>
    <clipPath
       id="clipPath388"
       clipPathUnits="userSpaceOnUse">
      <path
         inkscape:connector-curvature="0"
         id="path386"
         d="M 0,0 H 595.276 V 841.89 H 0 Z" />
    </clipPath>
  </defs>
  <sodipodi:namedview
     id="base"
     pagecolor="#ffffff"
     bordercolor="#666666"
     borderopacity="1.0"
     inkscape:pageopacity="0.0"
     inkscape:pageshadow="2"
     inkscape:zoom="1.979899"
     inkscape:cx="25.57861"
     inkscape:cy="107.75202"
     inkscape:document-units="mm"
     inkscape:current-layer="layer1"
     showgrid="false"
     inkscape:window-width="1848"
     inkscape:window-height="1016"
     inkscape:window-x="1992"
     inkscape:window-y="27"
     inkscape:window-maximized="1"
     inkscape:snap-bbox="true"
     inkscape:bbox-nodes="true"
     inkscape:bbox-paths="true" />
  <metadata
     id="metadata5">
    <rdf:RDF>
      <cc:Work
         rdf:about="">
        <dc:format>image/svg+xml</dc:format>
        <dc:type
           rdf:resource="http://purl.org/dc/dcmitype/StillImage" />
        <dc:title></dc:title>
      </cc:Work>
    </rdf:RDF>
  </metadata>
  <g
     inkscape:label="Layer 1"
     inkscape:groupmode="layer"
     id="layer1"
     transform="translate(-30.323877,-184.75734)">
    <g
       transform="matrix(0.35277777,0,0,-0.35277777,5.3691538,291.00007)"
       inkscape:label="PWS_CI"
       id="g18"
       style="stroke-width:0.85039372;stroke-miterlimit:4;stroke-dasharray:none">
      <g
         id="g659"
         style="stroke-width:0.85039372;stroke-miterlimit:4;stroke-dasharray:none">
        <g
           id="g242"
           transform="translate(96.0813,169.4404)"
           style="stroke-width:0.85039372;stroke-miterlimit:4;stroke-dasharray:none">
          <path
             d="M 0,0 V 0.429 L 0.429,0 0.858,-0.429 1.716,-0.858 2.574,-1.287 3.431,-2.145 H 3.86 L 4.289,-2.574 H 3.86 4.289 L 4.718,-3.003 H 5.147 L 6.005,-3.432 6.434,-3.861 H 6.863 L 7.292,-4.29 8.15,-4.718 9.008,-5.147 9.437,-4.718 h 0.429 l 0.858,0.428 h 0.428 0.858 l 0.429,0.429 h 0.429 0.429 0.43 V -4.29 -4.718 -5.147 l 0.857,0.429 0.858,0.857 0.858,1.287 0.429,-0.429 0.858,-0.429 v -0.429 h 0.429 l 0.429,-0.429 h 0.429 l 0.429,-0.428 h 0.428 l 0.858,-0.429 h 0.429 0.429 0.429 0.429 0.429 v -0.429 h 0.429 0.429 0.858 v -0.429 l 0.429,0.429 h 0.429 0.429 0.429 l 0.429,-0.429 h 0.429 0.429 v -0.429 h 0.429 0.428 l 0.429,-0.429 0.429,-0.429 0.429,-0.429 h 0.429 l 0.429,-0.429 v -0.429 h 0.429 0.429 v -0.429 h 0.429 v -0.429 h 0.429 L 32.6,-9.866 h 0.429 v -0.429 h 0.429 l 0.429,-0.429 0.429,-0.429 h 0.429 v -0.428 h 0.429 0.429 v -0.429 l 0.857,-0.429 0.858,-0.858 h 0.429 l 0.429,-0.429 v -0.429 h 0.429 0.429 l 0.429,-0.429 h 0.429 0.429 v -0.429 h 0.429 0.429 0.429 0.429 v -0.429 h 0.429 0.429 0.429 0.858 0.429 0.428 l 0.858,-0.429 h 0.429 0.429 0.429 0.429 0.429 l 0.429,-0.429 h 0.429 0.429 0.429 0.429 0.429 0.429 v -0.429 h 0.429 0.429 0.429 0.857 v -0.429 h 0.429 0.429 0.429 0.429 l 0.858,-0.429 h 0.429 0.429 0.429 v -0.429 h 0.429 0.429 0.429 l 0.858,-0.429 h 0.429 l 0.429,-0.428 h 0.429 0.857 l 0.429,-0.429 h 0.429 0.858 l 0.429,-0.429 h 0.429 l 0.429,-0.429 H 65.2 l 0.858,-0.429 h 0.858 v -0.429 h 0.429 0.429 0.429 0.429 0.858 0.428 0.429 l 0.429,-0.429 h 0.858 0.858 0.858 0.429 0.858 0.429 l 0.429,-0.429 h 0.429 0.429 l 0.858,-0.429 h 0.858 v -0.429 h 0.428 0.429 l 0.858,-0.429 v -0.429 l -0.429,-0.429 v -0.858 -0.429 l -0.429,-1.715 -0.429,-1.287 -0.428,-0.858 -0.858,-1.716 -0.858,-2.144 -0.858,-1.287 -0.429,-0.858 v -0.429 h -0.429 v -0.429 l -0.858,-0.858 -2.145,-2.574 -0.429,-0.428 -0.429,-0.429 h -0.858 l -2.144,0.857 -1.287,0.429 h -0.429 l -0.429,0.858 H 65.2 l -0.429,-0.429 v -0.429 h -0.429 v -0.429 h -0.429 v -0.428 -0.429 h -0.429 v -0.429 l -0.858,0.429 h -0.858 v -0.429 -0.429 l -0.429,-1.287 -0.428,-1.287 -0.429,-0.858 -0.429,-1.716 -0.858,-1.286 v -0.429 l -0.429,-0.429 v -0.429 -0.429 l -0.429,-0.429 v -0.429 -0.429 h -0.429 v -0.429 -0.858 -0.429 -0.429 -0.429 -0.858 -0.428 l -0.858,-0.429 h -0.429 v -0.429 h -0.429 l -1.287,-0.429 v -0.429 -0.429 h -0.429 l 0.429,0.429 h -0.429 v 0.429 0.429 h -0.429 v 0.429 0.429 0.428 h -0.429 v 0.429 0.429 h -0.429 -0.428 l -0.858,-0.429 h -0.429 -0.429 -0.429 l -0.858,0.429 -0.429,0.429 H 48.9 l 0.429,0.858 0.858,0.858 v 0.429 0.429 h -0.429 v 0.429 h -0.429 l -0.429,0.429 -1.716,-2.574 -2.573,-4.718 h -0.429 v -0.429 l -4.719,3.002 -2.574,1.716 -3.431,0.429 H 33.029 32.6 l -0.858,-0.429 -3.003,-2.573 -3.431,-1.287 H 24.45 l -2.145,-1.287 -4.289,-2.574 -4.289,-2.573 -1.288,-1.287 H 12.01 l -1.715,1.287 -0.858,0.858 -0.429,0.429 -0.429,0.428 -0.858,0.858 H 6.863 6.434 v 0.429 H 6.005 5.576 5.147 l -2.145,0.429 H 1.716 L 0,-58.765 l -1.287,0.429 h -0.858 -0.429 -0.858 l -0.858,0.429 -1.715,0.429 H -6.863 -7.292 -8.15 l -0.858,-0.429 h -0.858 l -0.858,-0.429 -1.287,-0.429 -0.429,0.429 v 0.429 l -0.429,0.858 -0.429,0.858 v 0.429 1.287 l 0.429,0.857 v 1.287 1.287 l -0.429,1.287 v 0.858 l -0.429,1.287 -0.857,0.857 v 0.429 l -0.858,0.858 v 0.429 h -0.429 l -0.858,0.429 -2.145,0.858 -0.429,0.429 h -0.428 v 0.429 l -2.574,0.858 -0.429,0.429 h -0.429 l -0.429,0.429 -0.858,1.287 v 0.428 h 0.429 l 1.287,0.858 1.715,1.287 0.859,0.429 v 0.429 2.145 l 0.429,1.287 0.857,1.286 0.858,0.858 1.716,1.716 0.429,0.429 2.144,3.431 1.287,1.287 1.287,0.858 0.429,0.429 0.429,1.287 0.429,0.858 v 0.429 l 0.429,0.858 0.429,0.429 v 0.428 l 0.429,1.287 h 0.429 v 0.858 0.429 0.429 0.429 h 0.429 v 0.429 0.429 0.429 0.429 1.287 0.857 l 0.429,0.858 0.429,0.429 0.429,0.858 v 0.858 0.429 0.429 h 0.429 l 0.429,1.287 0.428,1.287 0.429,0.857 0.858,1.287 v 0.858 h 0.429 0.429 l 0.429,0.429 0.858,0.858 L -1.287,0 -0.858,0.429 -0.429,0.858 0,0.429 Z m -3.861,65.199 h 0.429 l 0.429,-0.429 v -0.429 h 0.429 l 0.858,-0.858 0.858,-1.287 0.429,-0.429 L 0,61.338 h 0.429 v -0.429 -0.428 -0.429 l 0.429,0.429 H 1.287 V 60.052 H 1.716 L 2.145,59.623 H 3.002 L 4.289,58.765 H 4.718 L 5.576,58.336 6.434,57.049 H 6.863 L 7.292,56.191 9.437,54.904 9.008,54.475 h 0.429 l 0.429,-0.429 0.429,-0.428 0.857,-0.429 0.858,-0.429 0.429,-0.858 0.429,-0.429 v -0.429 l 1.287,-0.429 0.429,-0.858 0.429,-0.429 h 0.429 0.429 0.858 v -0.429 h 0.429 l 0.858,-0.429 h 0.429 0.429 v -0.429 h 0.429 l 0.428,-0.429 H 20.16 V 47.183 46.754 L 19.731,45.897 19.303,45.039 V 44.61 44.181 H 18.874 L 18.445,43.323 V 42.465 L 17.587,41.607 V 41.178 40.749 40.32 39.462 39.034 l 0.429,-0.429 v -0.429 h 0.429 v -0.429 h 0.429 0.429 v -0.429 -0.429 h 0.428 V 36.46 h 0.429 0.429 v -0.429 l 0.858,0.429 h 0.858 l 0.429,0.429 h 0.429 0.858 0.429 l 0.858,0.429 h 0.429 l 0.429,0.429 0.858,0.429 h 0.429 0.429 0.857 0.429 0.429 0.858 v -0.429 h 0.858 0.429 0.429 0.429 0.429 v -0.429 h 0.429 0.429 v 0.429 -0.429 h 0.429 l 0.429,-0.429 v 0.429 -0.429 h 0.429 0.429 0.429 V 36.46 h 0.428 l 0.429,-0.429 h 0.429 0.429 v -0.429 h 0.429 v -0.429 l 0.429,0.429 v -0.429 l 0.429,0.429 v -0.429 -0.429 h 0.429 v 0.429 -0.429 0.429 -0.429 h 0.429 0.429 0.429 v 0.429 h 0.429 v 0.429 h 0.429 V 35.173 H 41.179 L 40.75,34.315 40.321,33.886 V 33.457 H 39.892 V 33.028 L 39.034,32.599 38.176,31.742 37.747,31.313 H 37.318 V 30.884 H 36.889 V 30.455 L 36.46,30.026 V 29.597 L 35.603,29.168 V 28.739 H 35.174 L 34.745,28.31 33.887,27.881 33.458,27.452 H 33.029 V 27.023 H 32.171 V 26.594 H 31.742 V 26.165 L 31.313,25.736 V 24.879 L 30.884,24.45 31.313,23.592 30.884,23.163 V 21.876 L 30.455,21.447 30.026,19.731 H 29.597 V 19.302 18.873 L 29.168,18.445 28.739,18.016 28.31,17.586 V 17.157 L 27.882,16.729 V 16.3 l -1.287,-1.716 v -0.429 l 0.429,0.429 0.429,0.429 v 0.429 h 0.429 0.428 v 0.429 l 0.429,-0.429 v 0.429 h 0.429 -0.429 0.429 V 16.3 h 0.429 v 0.429 0.428 l 0.429,-0.428 0.429,-0.429 h 0.429 v -0.429 h 0.429 0.429 l 0.429,-0.429 v -0.429 h 0.429 0.429 0.429 l 0.429,-0.429 v 0.429 l 0.429,-0.429 v 0.429 l 0.429,-0.429 h 0.429 l 0.429,-0.429 h 0.429 0.428 v -0.429 l 0.429,-0.429 0.429,-0.429 0.858,-0.429 v 0.429 h 0.429 0.429 0.858 l 0.858,-0.429 h 0.429 0.429 0.429 0.429 l 0.429,-0.429 0.429,-0.429 v -0.428 l 0.858,-0.859 h 0.429 0.428 V 9.865 h 0.429 0.429 0.429 0.429 0.429 0.429 0.429 V 9.437 h 0.429 V 9.865 9.437 h 0.429 0.429 0.429 0.429 0.429 0.429 0.429 V 9.008 h 0.429 0.429 V 8.579 h 0.429 0.428 0.429 V 8.15 7.721 7.292 6.863 h 0.429 V 6.005 5.147 4.718 L 53.618,4.289 V 3.861 L 54.047,2.145 V 1.716 1.287 H 53.618 V 0.858 H 53.189 V 0.429 h 0.429 0.429 L 54.476,0 h 0.429 0.429 0.429 0.429 0.429 0.429 l 0.429,0.429 h 0.429 0.429 l 0.429,0.429 h 0.429 0.858 0.429 l 0.429,-0.429 h 0.428 V 0 h 0.429 0.429 l 0.429,-0.429 0.858,-0.429 0.429,-0.429 h 0.429 0.429 l 2.574,-0.858 v 0.429 h 0.429 0.429 0.429 v -0.429 h 0.429 0.429 l 0.428,-0.429 h 0.429 0.429 l 0.858,-0.429 v -0.429 h -0.429 v -0.429 h 0.429 v 0.429 l 0.858,-0.429 0.429,-0.429 h 0.429 l 0.429,-0.428 1.287,-0.858 0.429,-0.429 h 0.429 l 0.429,-0.429 0.858,-0.429 v -0.429 h 0.429 l 0.857,-0.858 h -0.428 -1.287 -0.429 -0.858 v -0.429 -0.429 -0.858 l -0.429,-1.287 -0.429,-0.857 -0.429,-1.287 v -0.429 l 1.716,-0.429 h 0.429 l 0.858,-0.429 v -0.858 -0.429 h -0.429 0.429 V -16.3 l 0.429,-0.429 h 0.429 l 1.715,-0.858 h 0.429 v -0.429 l -0.429,-0.429 h -0.429 -0.429 -2.144 -0.429 l -0.429,-0.857 -0.429,-0.858 v -0.429 h 0.429 v -0.429 h -0.429 v -0.429 -0.429 l -0.429,0.429 H 74.637 73.779 73.35 72.492 71.634 70.776 l -0.429,0.429 H 69.918 69.49 68.632 68.203 67.774 67.345 66.916 v 0.429 H 66.058 L 65.2,-20.16 h -0.858 l -0.429,0.429 h -0.429 l -0.429,0.429 h -0.858 -0.429 l -0.429,0.429 h -0.857 -0.429 l -0.429,0.428 h -0.429 l -0.858,0.429 H 57.908 57.479 57.05 v 0.429 h -0.429 -0.429 -0.429 l -0.858,0.429 h -0.429 -0.429 -0.429 -0.429 v 0.429 H 52.332 51.903 51.474 51.045 V -16.3 H 50.616 50.187 49.758 49.329 48.9 48.471 l -0.429,0.429 h -0.429 -0.429 -0.429 -0.429 -0.429 l -0.858,0.429 h -0.428 -0.429 -0.858 -0.429 -0.429 -0.429 v 0.429 H 41.608 41.179 40.75 40.321 v 0.429 h -0.429 -0.429 l -0.429,0.429 h -0.429 -0.429 v 0.429 l -0.429,0.429 h -0.429 l -0.858,0.858 -0.857,0.429 v 0.429 h -0.429 -0.429 v 0.428 h -0.429 l -0.429,0.429 -0.429,0.429 h -0.429 v 0.429 H 32.6 l -0.429,0.429 h -0.429 v 0.429 h -0.429 v 0.429 h -0.429 -0.429 v 0.429 l -0.429,0.429 h -0.429 l -0.429,0.429 -0.429,0.429 -0.429,0.429 h -0.428 -0.429 v 0.429 h -0.429 -0.429 l -0.429,0.429 H 25.737 25.308 24.879 L 24.45,-6.005 v 0.429 h -0.858 -0.429 -0.429 v 0.429 h -0.429 -0.429 -0.429 -0.429 -0.429 l -0.858,0.429 h -0.428 l -0.429,0.428 h -0.429 l -0.429,0.429 h -0.429 v 0.429 l -0.858,0.429 -0.429,0.429 -0.858,-1.287 -0.858,-0.857 -0.857,-0.429 v 0.429 0.428 0.429 h -0.43 -0.429 -0.429 L 12.01,-4.29 H 11.152 10.724 L 9.866,-4.718 H 9.437 L 9.008,-5.147 8.15,-4.718 7.292,-4.29 6.863,-3.861 H 6.434 L 6.005,-3.432 5.147,-3.003 H 4.718 L 4.289,-2.574 H 3.86 4.289 L 3.86,-2.145 H 3.431 L 2.574,-1.287 1.716,-0.858 0.858,-0.429 0.429,0 0,0.429 V 0 0.429 L -0.429,0.858 -0.858,0.429 -1.287,0 -1.716,-0.429 -2.574,-1.287 -3.003,-1.716 h -0.429 -0.429 v -0.858 l -0.858,-1.287 -0.429,-0.857 v 0.428 h -0.428 -0.429 -0.429 -0.429 v 0.429 h -0.429 -0.429 v 0.429 H -8.15 v 0.429 h -0.429 v 0.429 h -0.429 v 0.429 0.429 h 0.429 0.429 v 0.429 l -0.429,0.429 v 0.429 h 0.429 0.429 0.429 L -6.863,0 h 0.429 v 0.429 h 0.429 v 0.429 h 0.429 v 0.429 0.429 l 0.428,0.429 v 0.429 h 0.429 v 0.428 h 0.429 l 0.429,0.429 0.429,0.43 H -3.861 V 4.289 4.718 H -4.29 V 5.147 H -4.719 V 5.576 H -5.148 -5.576 V 6.005 H -6.005 V 5.576 H -6.434 V 6.005 H -6.863 V 6.434 H -7.292 -7.721 L -8.15,6.863 h -0.429 -0.429 -0.429 -0.429 v 0.429 h -0.429 V 7.721 7.292 h -0.429 v 0.429 h -0.429 V 8.15 h -0.428 v 0.429 h -0.43 l -0.429,0.429 v 0.429 0.857 h -0.429 v 0.43 h -0.429 0.429 v 0.429 h -0.429 v 0.428 l -0.429,0.429 h 0.429 v 0.429 0.429 0.429 l -0.429,0.429 -0.428,0.429 v 0.429 l -0.429,0.429 h 0.429 v 0.429 h 0.428 v 0.429 h 0.429 V 16.3 l 0.429,0.429 h 0.429 v 0.428 l 0.429,0.429 v 0.43 l -0.429,0.429 v 0.428 h -0.429 l -0.858,0.429 h -0.857 -0.429 -0.429 -0.429 -0.429 -0.429 -0.429 l -0.429,-0.429 h -0.429 -0.429 -0.429 -0.429 l -0.428,0.429 -0.859,-0.429 -0.429,0.429 v -0.429 h -0.429 -0.429 l 0.429,0.858 v 0.429 h 0.429 v 0.429 h 0.429 l 0.43,0.429 h 0.429 0.428 l 0.429,0.429 v -0.429 l 0.429,0.429 h 0.429 v 0.429 h 0.429 0.429 v 0.429 h 0.429 v 0.429 h 0.429 v 0.429 l 0.429,0.429 h 0.429 v 0.429 0.429 h 0.429 v 0.429 h 0.429 v 0.429 l 0.429,0.428 h 0.428 0.429 v 0.429 0.429 h 0.429 0.429 l 0.429,-0.429 v -0.429 l 0.43,-0.428 0.428,-0.429 v 0.857 l -0.428,0.858 -0.43,0.429 v 0.429 h 0.43 0.428 0.429 -0.429 v 0.429 h -0.428 v 0.429 h -0.43 l -0.429,0.429 h -0.429 l -0.429,0.429 -0.429,0.429 h -0.428 l -0.858,0.858 h -0.429 v 0.429 0.429 0.429 h -0.429 v 0.429 0.428 h 0.429 v 0.429 0.429 h -0.429 v 0.429 0.429 h -0.429 0.429 0.429 v 0.429 0.429 h 0.429 v 0.429 0.429 0.429 0.429 0.429 0.429 0.429 l 0.429,0.429 h -0.429 l -0.429,0.429 h 0.429 v 0.428 0.429 h 0.429 l -0.429,0.429 h -0.429 v 0.429 0.429 0.429 0.429 0.429 l 0.429,0.429 v 0.429 h 0.429 v 0.429 0.429 h 0.429 v 0.429 0.429 h 0.428 v 0.429 0.429 l 0.429,0.429 v 0.428 h -0.429 v 0.429 0.429 0.429 0.429 l 0.429,0.429 v 0.429 h 0.429 v 0.429 h 0.429 v 0.429 h 0.429 v 0.429 0.429 h 0.43 v 0.429 0.429 l 0.428,0.429 v 0.429 h 0.429 v 0.429 h 0.429 v 0.429 h 0.429 0.429 v 0.428 h 0.429 v 0.429 h 0.429 v 0.429 h 0.429 v 0.429 h 0.429 l 0.858,0.429 v 0.429 h 0.429 v 0.429 0.429 0.429 h -0.429 v 0.429 0.429 0.429 0.429 0.429 l 0.429,0.429 v 0.429 0.428 0.429 0.429 0.429 0.429 h -0.429 l 0.429,0.429 v 0.429 h 0.429 v 0.429 l 0.429,0.429 0.428,0.429 h 0.429 v 0.429 h 0.429 z m 53.619,-118.388 0.858,-0.429 h 0.429 0.429 0.429 l 0.858,0.429 h 0.428 0.429 v -0.429 -0.429 h 0.429 v -0.428 -0.429 -0.429 h 0.429 v -0.429 -0.429 h 0.429 l -0.429,-0.429 h 0.429 v 0.429 0.429 l 1.287,0.429 h 0.429 v 0.429 h 0.429 l 0.858,0.429 v 0.428 0.858 0.429 0.429 0.429 0.858 0.429 h 0.429 v 0.429 0.429 h 0.429 l 1.716,-0.429 h 0.857 0.429 -0.429 v -0.429 -0.429 h -0.428 v -0.429 h -0.429 v -0.429 -0.429 h -0.429 v -0.429 -0.429 h -0.429 v -0.429 -0.429 l -0.429,-0.428 v -0.429 l 0.858,-0.429 h 0.429 v -0.429 h 0.429 0.428 l 0.429,-0.429 h 0.429 0.429 v -0.429 0.429 h 0.429 l 0.429,0.429 0.429,0.429 v 0.429 h 0.429 l 0.429,0.429 0.429,0.428 v 0.429 h 0.429 l 0.429,0.429 0.858,0.858 0.858,0.429 h 0.429 l 0.429,-0.429 h 0.429 0.429 v -0.429 h 0.428 0.429 0.429 0.429 l 1.287,-0.429 v -0.429 h 0.429 0.429 0.429 l 0.858,-0.429 h 0.429 0.429 0.429 0.429 l 0.858,-0.428 v -0.429 h -0.429 v -0.429 h 0.429 l 0.429,0.429 h 0.429 0.428 0.429 v -0.429 -0.858 h 0.429 l 0.858,0.429 h 0.429 0.429 v 0.429 h 0.858 0.429 0.429 l 0.858,-0.429 h 0.429 l 0.429,-0.429 h 0.429 0.858 v -0.429 h 0.429 0.428 l 0.429,-0.429 0.429,-0.429 h 0.429 v 0.429 l 0.429,0.429 0.429,0.429 v 0.429 h 0.429 v 0.429 h 0.429 v 0.429 l 0.429,0.429 h 0.429 v 0.428 l 0.429,0.429 h 0.429 v 0.429 l 0.429,-0.858 0.429,-0.428 v -0.429 l 0.429,-0.429 v -0.429 -0.429 l 0.429,-1.287 0.429,-0.429 v -0.429 h 0.429 v -0.429 h 0.429 v -0.429 l 0.429,-0.429 h 0.428 l 0.429,-0.429 h 0.429 l 0.858,-0.429 h 0.429 l 0.858,-0.429 h 1.287 l 0.858,-0.428 h 0.429 0.429 v -0.429 l 0.429,0.429 h 0.858 0.429 0.428 l 1.287,-0.429 h 0.429 0.429 0.858 0.429 0.429 0.429 1.287 0.429 0.429 0.429 l 0.429,-0.429 h 0.429 0.429 l 0.428,-0.429 h 0.429 l 1.287,-0.429 h 0.429 l 0.429,-0.429 0.858,-0.429 h 0.429 0.429 l 0.429,-0.429 h 0.429 0.429 v -0.429 h 0.429 0.429 l 0.858,-0.429 h 0.429 l 0.428,-0.429 h 0.429 0.429 0.429 v -0.429 h 0.429 0.429 0.429 v -0.429 -0.429 l -0.429,-0.429 v -0.429 -0.429 -0.428 h -0.429 v -0.429 -0.429 -0.429 l -0.429,-0.858 -0.429,-0.858 v -0.429 h -0.429 v -0.429 h -0.429 l -0.428,0.429 h -0.429 v 0.429 h -0.429 l -0.429,0.429 v -0.429 -0.429 l -0.429,-0.429 h 0.429 l 0.429,-0.429 -0.429,-0.858 v -0.429 l -0.429,-0.858 -0.429,-1.286 h 0.429 v -0.429 l -0.429,-0.429 v -0.858 l -0.429,-0.858 -0.429,-0.858 -0.429,-0.429 v -0.429 l -0.429,-0.429 v -0.858 l -0.429,-1.715 -0.429,-0.858 -0.429,-0.429 v -0.858 l -0.429,-1.716 h -0.429 -0.429 -0.429 -0.429 -0.429 v 0.429 h -0.428 -0.429 -0.429 -0.429 -0.429 -0.429 -0.429 v 0.429 h -0.429 -0.429 -0.429 v 0.429 l -1.287,0.858 h -0.429 l -0.429,0.429 -1.287,0.858 h -0.429 v 0.429 h -0.429 v 0.429 h -0.428 -0.429 -0.429 l -0.429,0.429 -0.858,0.428 h -0.429 -0.429 -0.429 -0.429 -0.429 v 0.429 H 98.229 97.8 l -0.429,0.429 h -0.429 -0.429 l -0.429,0.429 h -0.429 -0.429 l -0.857,0.429 H 93.94 93.511 v 0.429 h -0.429 -0.429 -0.429 v 0.429 h -0.429 -0.429 -0.429 v 0.429 h -0.429 -1.287 l -0.429,0.429 h -0.429 l -1.287,0.429 -0.429,0.429 h -0.428 -0.858 v 0.429 h -0.429 -0.429 -0.429 -0.429 v 0.429 h -0.429 v -1.287 l 0.429,-0.429 -0.429,-0.429 v -0.429 -0.429 h -0.429 v -0.858 h -0.429 l -0.429,-1.715 v -0.429 H 81.5 v -1.287 h -0.429 v -0.429 -0.429 l -0.429,-0.429 -0.429,-1.716 -0.429,-0.858 -0.429,-1.286 v -0.429 l -0.429,-0.858 v -0.858 l -0.429,-0.429 v 0.429 H 78.069 77.64 77.211 v 0.429 h -0.429 -0.429 -0.429 l -0.429,0.429 h -0.429 v -0.429 -0.429 -0.429 h -0.429 v -0.858 -0.858 l -0.429,-0.858 v -0.429 -0.429 -0.429 -0.857 -0.43 -0.428 H 73.779 73.35 72.921 72.063 l -0.858,0.428 h -0.429 l -0.858,0.43 v 0.429 H 69.49 v 0.428 l -0.429,0.429 h -0.429 l -0.429,0.429 h -0.429 v 0.429 l -0.429,0.429 -0.429,0.429 -0.429,0.429 h -0.429 v 0.429 l -0.858,0.858 h -0.429 v 0.429 h -0.429 l -0.858,0.429 v 0.429 h 0.429 l -0.429,0.429 0.429,0.429 v 0.429 h -0.429 v 0.428 0.858 0.429 h -0.429 v 0.429 0.429 0.429 h -0.858 l -1.715,0.429 h -0.429 l -1.287,0.429 h -0.429 -0.429 l -0.858,0.429 h -0.858 l -0.858,0.429 -0.858,-0.429 h -0.429 -0.429 -0.429 v -0.429 h -0.428 -0.429 l -0.429,0.429 -0.429,0.429 -0.429,0.429 -0.429,0.429 h -0.429 l -0.429,0.429 H 49.329 48.9 48.471 48.042 l -0.429,0.429 h -0.429 l -0.858,0.429 h -0.429 l -0.429,0.428 h -0.429 v 0.429 H 44.611 43.753 43.324 42.895 42.466 42.037 41.608 41.179 40.75 40.321 39.892 l -0.429,-0.429 h -0.429 v -0.428 h -0.429 l -0.429,-0.429 h -0.429 l -0.429,-0.429 h -0.429 v -0.429 l -0.429,-0.429 -0.428,-0.429 h -0.429 v -0.429 h -0.429 l -0.429,-0.429 v 0.429 -0.429 h -0.429 v -0.429 h -0.429 v 0.429 h -0.429 v -0.429 H 33.029 32.6 v -0.429 h -0.429 l -0.429,0.429 h -0.429 -0.429 -0.429 -0.429 -0.429 -0.429 v 0.429 H 28.739 28.31 v 0.429 h -0.428 -0.429 v 0.429 h -0.429 -0.429 -0.429 -0.429 -0.429 l -0.429,0.429 H 24.45 24.021 23.592 23.163 22.734 v -0.429 h -0.429 -0.429 -0.429 -0.429 -0.429 v -0.429 H 20.16 19.731 19.303 18.874 18.445 l -0.429,-0.429 H 17.587 17.158 16.729 L 16.3,-86.217 h -0.429 l -0.429,-0.429 h -0.429 v -0.429 h -0.429 l -0.429,-0.429 h -0.428 l -0.43,-0.429 -0.429,-0.429 v -0.429 H 12.439 12.01 l -0.429,-0.429 h -0.429 -0.428 v -0.428 H 10.295 9.866 v -0.429 H 9.437 v -0.429 H 9.008 v -0.429 H 8.579 L 8.15,-91.364 H 7.721 v -0.429 H 7.292 6.863 6.434 6.005 5.576 5.147 v -0.429 H 4.718 4.289 v -0.429 H 3.86 3.431 V -93.08 H 3.002 v 0.429 H 2.574 v 0.429 H 2.145 1.716 v 0.429 H 1.287 v 0.429 H 0.858 0.429 v 0.429 0.429 h 0.429 l 0.429,0.429 0.429,0.429 0.858,0.428 0.428,0.858 0.858,0.429 h 0.429 l 1.716,0.858 h 0.429 l 1.287,0.429 h 0.858 0.429 0.429 l 1.715,0.858 h 0.429 l 0.858,0.429 h 0.429 l 0.429,0.429 1.716,0.429 h 0.429 l 1.716,0.429 h 0.429 l 0.858,0.429 -0.429,0.429 v 0.429 0.428 l 0.429,0.858 h -0.858 l -0.429,0.429 h -0.429 v 0.429 H 16.3 l 0.858,0.858 h 0.429 l 0.429,1.716 H 17.158 16.729 16.3 l -0.429,-0.429 h -0.429 -0.429 -0.429 -0.429 -0.428 -0.43 -0.429 -0.429 -0.429 v -0.429 H 11.581 11.152 10.724 10.295 9.866 L 9.008,-79.354 H 8.579 7.721 7.292 L 6.863,-79.783 H 6.434 6.005 5.576 5.147 4.718 v 0.429 l 0.429,0.429 v -0.429 l 0.429,0.429 v -0.429 0.429 0.429 H 5.147 v 0.429 0.429 0.429 H 4.718 v 0.429 H 4.289 v 0.429 0.429 l -0.429,0.857 -0.429,0.429 v 0.429 H 3.002 2.574 l -0.429,0.429 H 1.716 l -0.429,0.429 v 0.429 0.429 l -0.429,0.429 -0.429,0.429 v 0.429 L 0,-70.775 v 0.429 0.429 h -0.429 v 0.429 h -0.429 v 0.429 0.429 h -0.429 v 0.428 0.429 0.429 l -0.429,0.429 -0.429,0.429 h -0.429 l -0.858,0.429 0.429,0.429 v 0.429 0.858 l 0.858,0.429 0.858,0.858 v 0.429 h 0.429 v 0.429 H -0.429 0 0.429 0.858 1.287 2.145 l 0.429,0.429 h 0.428 l 0.429,0.429 v 0.428 H 3.86 v 0.429 0.429 0.429 l 0.858,-0.429 v -0.429 h 0.429 0.429 l 0.429,-0.429 h 0.429 l 0.429,-0.428 v 0.428 0.429 0.429 h 0.858 l 0.858,-0.858 0.429,-0.428 0.429,-0.429 0.858,-0.858 1.715,-1.287 h 0.429 l 1.288,1.287 4.289,2.573 4.289,2.574 2.145,1.287 h 0.858 l 3.431,1.287 3.003,2.573 0.858,0.429 h 0.429 0.429 l 3.431,-0.429 2.574,-1.716 4.719,-3.002 v 0.429 h 0.429 l 2.573,4.718 1.716,2.574 0.429,-0.429 h 0.429 v -0.429 h 0.429 v -0.429 -0.429 L 49.329,-51.902 48.9,-52.76 h 0.429 z m 3.86,109.809 v -0.429 -0.429 l 0.429,-0.429 v -0.858 -0.429 -0.428 -0.429 h 0.429 V 52.76 h 0.429 v -0.429 l 0.429,-0.429 v -0.429 -0.429 -0.429 -0.429 h 0.429 V 49.757 H 55.334 L 54.905,49.328 54.476,48.899 54.047,48.47 53.189,48.041 52.761,47.612 51.903,47.183 51.474,46.754 V 46.326 45.897 45.468 45.039 44.61 h 0.429 l 0.429,-0.429 h 0.857 0.429 0.429 0.858 0.429 0.858 0.429 0.429 0.429 0.858 0.429 l 0.858,0.429 v -0.858 h 0.429 V 43.323 L 59.624,42.894 H 58.766 58.337 57.908 V 42.465 L 57.479,42.036 57.05,41.607 H 56.621 V 41.178 40.749 H 56.192 V 40.32 h -0.429 -0.429 -0.429 -0.429 v -0.429 h -0.429 -0.429 v -0.429 h -0.429 -0.428 v -0.428 h -0.429 v -0.429 l 1.286,-0.858 h 0.429 0.429 l 0.429,-0.429 h 0.429 0.429 0.429 0.858 0.858 0.429 0.429 0.429 1.287 V 36.889 36.46 36.031 35.602 35.173 34.744 l -0.429,-0.429 v -0.429 h 0.429 v 0.429 h 0.429 0.428 v 0.429 h 0.429 0.429 v 0.429 0.429 l 0.429,-0.429 h 0.429 0.429 0.429 0.429 l 0.429,-0.429 0.429,-0.429 v -0.429 h 0.429 0.429 0.429 v -0.429 -0.429 -0.429 -0.428 h 0.429 l 0.429,-0.429 h 0.429 v -0.429 h 0.429 0.429 0.429 v -0.429 h 0.429 v -0.429 h 0.428 0.429 0.429 v -0.429 h 0.429 v -0.429 h 0.429 0.429 v -0.429 h 0.429 0.429 0.429 0.429 0.429 0.429 0.429 0.429 0.429 v 0.429 h 0.429 V 29.168 28.739 28.31 h 0.429 0.429 v -0.429 -0.429 l -0.429,-0.429 v -0.429 h 0.429 0.429 0.429 l 0.428,-0.429 h 0.429 0.429 0.429 l 0.858,-0.429 h 0.429 V 25.308 24.879 L 81.5,24.45 h 0.429 V 24.021 23.592 H 81.5 v -0.429 -0.429 h 0.429 0.429 0.429 0.429 0.429 0.429 0.429 v 0.429 h 0.429 v 0.429 l 0.429,0.429 h 0.429 v -0.429 l 0.429,-0.429 v -0.429 l 0.428,-0.429 h 0.429 l 0.429,-0.429 0.858,-0.429 0.429,-0.429 3.432,-2.573 v -0.429 -0.43 L 91.795,17.157 V 16.729 H 91.366 L 92.224,16.3 91.795,15.871 94.369,15.013 93.94,13.297 v -0.429 l 1.286,-0.429 h 0.858 V 12.01 11.581 11.153 L 95.655,10.724 V 9.865 H 95.226 V 9.437 9.008 8.579 H 94.798 V 8.15 7.721 L 94.369,7.292 V 6.863 6.434 H 93.94 93.511 V 7.292 7.721 8.579 9.008 9.437 9.865 L 92.224,9.437 H 91.366 L 90.508,9.008 H 89.65 89.221 88.792 88.363 V 8.579 H 87.934 87.505 87.076 86.647 L 86.219,8.15 H 85.79 L 84.932,7.721 H 84.503 84.074 V 8.15 L 83.645,8.579 V 9.008 9.437 9.865 H 82.358 81.929 81.5 v 0.859 l -1.287,0.429 0.429,0.857 v 0.429 h -0.858 l 0.429,3.432 -0.429,0.429 h -0.429 l -1.286,0.857 -0.858,0.429 h -0.429 l -0.429,0.43 -0.429,0.429 h -0.429 -0.429 v 0.428 h -0.429 l -0.429,0.429 V 18.873 L 73.779,18.445 H 73.35 72.921 72.492 l -0.429,0.428 v -0.428 l -0.429,0.428 -0.429,0.429 v -0.429 h -0.429 v -0.428 l -0.858,-0.429 v 0.429 l -0.428,1.286 v 0.429 h -0.429 v 0.429 H 68.632 68.203 67.774 67.345 66.916 66.487 V 20.16 h 0.429 V 19.731 19.302 H 66.487 66.058 65.629 65.2 l -0.429,0.429 h -0.429 -0.429 v 0.429 h -0.429 l -0.429,0.429 H 62.626 61.768 61.339 L 60.911,20.16 H 60.482 L 60.053,19.731 H 59.624 59.195 L 58.337,19.302 H 57.908 V 18.873 H 57.479 V 18.445 H 57.05 l -0.429,-0.429 -0.429,-0.43 -0.429,-0.429 h -0.429 -0.429 -0.429 -0.429 l 0.429,0.429 v 0.43 0.429 0.428 h 0.429 v 0.429 0.429 0.429 h -0.429 v -0.429 h -0.429 -0.429 -0.429 -0.428 -0.429 -0.429 v 0.429 h -0.429 v 0.429 l -0.429,0.429 -0.429,0.429 h -0.429 v 0.429 h -0.429 l -0.429,0.429 H 48.9 v 0.429 h -0.429 -0.429 -0.429 -0.429 v 0.429 H 46.755 45.897 45.468 45.039 44.611 43.753 43.324 42.895 V 22.734 H 42.466 42.037 41.608 41.179 40.75 39.892 39.463 L 39.034,22.305 H 38.605 38.176 V 21.876 H 37.747 37.318 V 21.447 H 36.889 36.46 v -0.429 h -0.428 -0.429 v -0.429 h -0.429 -0.429 l -0.429,0.429 v -0.429 h -0.429 -0.429 v 0.429 -0.429 0.429 H 33.029 V 20.589 20.16 H 32.6 v -0.429 h -0.429 v -0.429 -0.429 h -0.429 v -0.428 h -0.429 l -0.429,-0.429 -0.429,-0.43 H 30.026 V 17.157 H 29.597 V 16.729 16.3 h -0.429 v -0.429 h -0.429 0.429 -0.429 v -0.429 l -0.429,0.429 v -0.429 h -0.428 -0.429 v -0.429 l -0.429,-0.429 -0.429,-0.429 v 0.429 l 1.287,1.716 v 0.429 l 0.428,0.428 v 0.429 l 0.429,0.43 0.429,0.429 0.429,0.428 v 0.429 0.429 h 0.429 l 0.429,1.716 0.429,0.429 v 1.287 l 0.429,0.429 -0.429,0.858 0.429,0.429 v 0.857 l 0.429,0.429 v 0.429 h 0.429 v 0.429 h 0.858 v 0.429 h 0.429 l 0.429,0.429 0.858,0.429 0.429,0.429 h 0.429 v 0.429 l 0.857,0.429 v 0.429 l 0.429,0.429 v 0.429 h 0.429 v 0.429 h 0.429 l 0.429,0.429 0.858,0.857 0.858,0.429 v 0.429 h 0.429 v 0.429 l 0.429,0.429 0.429,0.858 h 0.429 v 0.429 H 41.179 V 35.173 H 40.75 v -0.429 h -0.429 -0.429 -0.429 v 0.429 -0.429 0.429 -0.429 h -0.429 v 0.429 0.429 l -0.429,-0.429 v 0.429 l -0.429,-0.429 v 0.429 h -0.429 v 0.429 H 37.318 36.889 L 36.46,36.46 h -0.428 v 0.429 h -0.429 -0.429 -0.429 v 0.429 -0.429 l -0.429,0.429 h -0.429 v 0.429 -0.429 h -0.429 -0.429 v 0.429 H 32.6 32.171 v 0.429 l -0.429,0.429 v 0.429 h 0.429 v 0.428 1.287 0.429 l 0.429,0.429 0.429,0.429 v 0.429 0.429 l 0.429,0.858 v 0.429 0.429 h 0.429 l 0.429,-0.429 v 0.429 h 0.429 v -0.429 h 0.429 l 0.429,0.429 h 0.429 0.428 v 0.429 l 0.429,0.429 v 0.429 -0.429 h 0.429 v 0.429 l 0.429,0.429 h 0.429 v 0.428 h 0.429 v 0.429 0.429 h -0.429 v 0.429 0.429 h 0.429 l 0.429,0.429 0.429,0.429 0.858,0.858 0.858,0.429 h 0.429 l 0.858,0.429 v 0.429 0.429 0.429 l -0.429,0.429 v 0.429 l -0.429,0.429 h -0.429 -0.858 -0.429 l -0.429,0.428 h -0.429 -0.429 -0.429 -0.429 v 0.429 0.429 h 0.429 0.429 0.429 0.429 0.429 l 1.287,-0.429 0.858,0.429 0.429,0.429 0.429,0.429 h 0.429 l 0.429,0.429 h 0.429 0.429 v 0.429 h 0.857 l 0.429,0.429 h 0.429 0.429 0.429 0.429 0.429 L 48.9,56.62 h 0.429 0.429 v 0.429 h 0.429 0.429 v 0.429 h 0.429 l 0.429,0.429 h 0.429 0.858 0.428 v 0.429 h 0.429 v -0.429 -0.858 z"
             style="fill:none;stroke:#192c3a;stroke-width:0.85039372;stroke-linecap:round;stroke-linejoin:bevel;stroke-miterlimit:4;stroke-dasharray:none;stroke-opacity:1"
             id="path244"
             inkscape:connector-curvature="0" />
        </g>
        <g
           id="g246"
           transform="translate(142.8365,192.6031)"
           style="stroke-width:0.85039372;stroke-miterlimit:4;stroke-dasharray:none">
          <path
             d="M 0,0 H 0.429 V -0.429 H 0.858 1.287 1.716 2.145 V -0.858 H 2.574 L 3.003,-1.287 H 3.432 V -1.716 H 3.861 L 4.29,-2.145 4.719,-2.574 v -0.428 h 0.429 v -0.429 h 0.428 0.429 0.429 0.429 0.429 0.429 v 0.429 H 8.15 V -3.431 -3.86 -4.289 H 7.721 V -4.718 -5.147 -5.576 L 7.292,-6.005 H 7.721 8.15 8.579 9.008 l 0.429,0.429 0.429,0.429 0.429,0.429 h 0.429 v 0.429 h 0.429 v 0.429 h 0.429 l 0.858,0.429 h 0.429 0.429 l 0.429,0.429 h 0.428 l 0.429,0.428 h 0.429 0.858 0.429 l 0.429,-0.428 h 0.429 v -0.429 h 0.429 0.429 l 0.429,-0.429 h 0.429 0.429 0.429 0.429 v 0.429 0.429 h -0.429 v 0.428 h 0.429 0.429 0.429 0.429 0.429 0.428 v -0.428 h 0.429 v -0.429 l 0.429,-1.287 v -0.429 l 0.858,0.429 v 0.429 h 0.429 v 0.429 l 0.429,-0.429 0.429,-0.429 v 0.429 l 0.429,-0.429 h 0.429 0.429 0.429 l 0.429,0.429 v 0.429 l 0.429,-0.429 h 0.429 v -0.429 h 0.429 0.429 l 0.429,-0.429 0.429,-0.429 h 0.428 l 0.858,-0.429 1.287,-0.858 h 0.429 l 0.429,-0.429 -0.429,-3.431 h 0.858 v -0.429 l -0.429,-0.858 1.287,-0.429 v -0.858 h 0.429 0.429 1.287 v -0.429 -0.429 -0.429 l 0.429,-0.429 v -0.429 h 0.429 0.429 l 0.857,0.429 h 0.429 l 0.429,0.429 h 0.429 0.429 0.429 0.429 v 0.429 h 0.429 0.429 0.429 0.858 l 0.858,0.429 h 0.858 l 1.287,0.429 v -0.429 -0.429 -0.429 -0.858 -0.429 -0.858 h 0.428 0.429 -0.429 v -0.428 -0.429 -0.429 -0.429 -0.429 -0.429 -0.429 -0.429 -0.429 h -0.428 v -0.429 -0.429 l -0.429,-0.429 v -0.429 h -0.429 0.429 l -0.429,-0.429 v -0.429 -0.429 -0.429 h -0.429 0.429 -0.429 l 0.429,-0.428 v -0.429 -0.858 h -0.429 -2.145 l -4.719,0.858 -1.715,0.429 -1.287,0.428 h -0.429 l -2.574,0.858 h -0.429 -0.429 -0.429 l -2.144,0.429 -0.858,0.429 h -0.429 -0.429 v -0.429 -0.429 -0.429 -0.429 h -0.429 l 0.429,-0.428 v -0.858 h -0.429 -0.429 v -0.429 l -0.429,-0.429 v -0.858 h -0.429 l -0.858,0.429 v -0.429 H 24.45 v 0.429 h 0.429 v 0.429 l -0.858,0.429 h -0.429 -0.429 l -0.429,0.429 h -0.429 -0.428 v 0.429 H 21.448 21.019 20.59 v -0.429 l -2.574,0.858 h -0.429 -0.429 l -0.429,0.428 -0.858,0.429 -0.429,0.429 h -0.429 -0.429 v 0.429 h -0.429 l -0.428,0.429 H 13.298 12.44 12.011 l -0.429,-0.429 h -0.429 -0.429 l -0.429,-0.429 H 9.866 9.437 9.008 8.579 8.15 7.721 l -0.429,0.429 H 6.863 6.434 v 0.429 h 0.429 v 0.429 h 0.429 v 0.429 0.429 l -0.429,1.716 v 0.429 l 0.429,0.429 v 0.429 0.858 0.857 H 6.863 v 0.429 0.429 0.429 0.429 H 6.434 6.005 5.576 v 0.429 H 5.148 4.719 v 0.429 H 4.29 3.861 3.432 3.003 2.574 2.145 1.716 v 0.429 -0.429 H 1.287 v 0.429 H 0.858 0.429 0 -0.429 -0.858 -1.287 -1.716 v 0.429 h -0.429 -0.429 l -0.857,0.858 v 0.429 l -0.429,0.429 -0.429,0.429 h -0.429 -0.429 -0.429 -0.429 l -0.858,0.429 H -7.721 -8.15 -8.579 v -0.429 l -0.858,0.429 -0.429,0.428 -0.429,0.429 v 0.429 h -0.429 -0.429 l -0.429,0.429 h -0.428 l -0.429,0.429 v -0.429 l -0.429,0.429 v -0.429 l -0.429,0.429 h -0.429 -0.429 -0.429 v 0.429 l -0.429,0.429 h -0.429 -0.429 v 0.429 H -16.3 l -0.429,0.429 -0.429,0.429 h 0.429 v 0.429 h 0.429 l 0.429,0.429 0.429,0.429 h 0.429 v 0.429 h 0.429 v 0.429 0.429 h 0.429 v 0.429 h 0.429 v 0.428 0.429 h 0.429 v -0.429 0.429 -0.429 h 0.429 0.429 v 0.429 l 0.429,-0.429 h 0.428 0.429 v 0.429 h 0.429 0.429 v 0.429 h 0.429 0.429 v 0.429 h 0.429 0.429 v 0.429 h 0.429 0.429 l 0.429,0.429 h 0.429 0.858 0.429 0.429 0.429 0.429 0.429 V 0 h 0.429 0.428 0.858 0.429 0.429 0.429 z m 14.155,25.308 h 0.429 0.429 l 0.429,-0.429 h 0.429 0.429 0.429 0.429 l 0.429,-0.429 h 2.145 0.429 l 0.429,-0.429 h 0.429 0.429 l 0.429,-0.429 h 0.428 v -0.429 h 0.429 l 0.429,-0.429 h 0.429 v -0.429 -0.429 -0.429 -0.429 l 0.429,-0.429 h 0.429 0.429 V 20.16 19.731 l 0.858,-0.429 v -0.429 h 0.429 v -0.429 h 0.429 l 0.429,-0.428 h 0.429 0.429 v -0.429 h 0.429 0.429 v -0.429 h 0.429 l 0.429,-0.429 h 0.857 V 16.3 16.729 h 0.429 L 31.742,16.3 h 0.429 0.429 v -0.429 h 0.429 0.429 l 0.429,-0.429 h -0.429 v -0.429 h -0.429 v -0.429 h 0.429 0.858 0.429 v -0.429 h 0.429 0.429 l 1.716,-1.287 h 0.858 v -0.429 h 0.428 l 0.429,-0.429 1.287,-0.429 h 0.429 1.716 0.429 0.858 2.574 V 11.153 8.15 7.721 h 0.857 0.429 2.145 l 1.287,-0.429 0.429,0.429 V 7.292 L 53.19,6.863 h 0.429 v 0.429 l 0.858,-0.429 h 0.429 v 0.429 0.429 h 0.429 0.428 0.429 V 6.863 6.434 L 55.763,6.005 V 5.576 h 0.429 0.429 0.429 0.429 l 0.429,0.429 0.429,-0.429 H 57.908 V 5.147 H 57.479 57.05 V 4.718 H 56.621 V 4.289 H 56.192 V 3.861 H 55.763 V 3.432 3.003 2.574 2.145 1.716 1.287 L 55.335,0.858 V 0.429 0 -0.429 -0.858 -1.287 H 54.906 V -1.716 -2.145 -2.574 -3.002 -2.574 -3.002 -3.431 -3.86 H 54.477 V -4.289 H 54.048 V -4.718 H 53.619 53.19 L 52.332,-5.147 51.474,-5.576 H 51.045 L 50.616,-6.005 50.187,-7.292 V -7.721 -8.15 l -0.429,-1.287 h 0.429 l -0.429,-0.429 v -0.428 -0.429 l -0.429,-0.429 v 0.429 h -0.858 l -1.287,0.429 v 0.428 l 0.429,1.716 -2.573,0.858 0.429,0.429 -0.858,0.429 h 0.429 v 0.429 l 0.429,0.429 v 0.429 0.429 l -3.432,2.573 -0.429,0.429 -0.858,0.429 -0.429,0.429 h -0.429 l -0.429,0.429 V 0 L 39.034,0.429 V 0.858 H 38.605 L 38.177,0.429 V 0 H 37.748 V -0.429 H 37.319 36.89 36.461 36.032 35.603 35.174 34.745 V 0 0.429 h 0.429 V 0.858 1.287 H 34.745 L 34.316,1.716 V 2.145 2.574 H 33.887 L 33.029,3.003 H 32.6 32.171 31.742 l -0.429,0.429 h -0.429 -0.429 -0.428 v 0.429 l 0.428,0.428 V 4.718 5.147 H 30.027 29.598 V 5.576 6.005 6.434 H 29.169 V 6.005 H 28.74 28.311 27.882 27.453 27.024 26.595 26.166 25.737 25.308 V 6.434 H 24.879 24.45 V 6.863 H 24.021 V 7.292 H 23.592 23.163 22.734 V 7.721 H 22.305 V 8.15 H 21.877 21.448 21.019 V 8.579 H 20.59 l -0.429,0.429 h -0.429 v 0.429 0.429 0.429 0.429 h -0.429 -0.429 -0.429 v 0.429 l -0.429,0.428 -0.429,0.429 H 17.158 16.729 16.3 15.871 l -0.429,0.429 V 12.01 11.581 h -0.429 -0.429 v -0.428 h -0.429 -0.428 v -0.429 h -0.429 v 0.429 l 0.429,0.428 v 0.429 0.429 0.429 0.429 0.429 0.429 H 12.44 12.011 11.582 11.153 10.295 9.437 9.008 8.579 8.15 L 7.721,14.584 H 7.292 6.863 l -1.287,0.858 v 0.429 H 6.005 V 16.3 h 0.429 0.429 v 0.429 h 0.429 0.429 v 0.429 H 8.15 8.579 9.008 9.437 v 0.429 h 0.429 v 0.429 0.428 h 0.429 l 0.429,0.429 0.429,0.429 v 0.429 h 0.429 0.429 0.858 l 0.429,0.429 v 0.429 h -0.429 v 0.858 L 12.011,21.018 H 11.582 10.724 10.295 9.866 9.437 8.579 8.15 7.292 6.863 6.434 5.576 L 5.148,21.447 H 4.719 v 0.429 0.429 0.429 0.429 0.429 l 0.429,0.429 0.857,0.429 0.429,0.429 0.858,0.429 0.429,0.428 0.429,0.429 0.429,0.429 h 0.429 v 0.429 h 0.429 l 0.429,-0.429 h 0.429 0.429 0.429 l 0.429,-0.429 h 0.429 0.429 0.429 v -0.429 h 0.429 0.429 0.428 z"
             style="fill:none;stroke:#343434;stroke-width:0.85039372;stroke-linecap:round;stroke-linejoin:bevel;stroke-miterlimit:4;stroke-dasharray:none;stroke-opacity:1"
             id="path248"
             inkscape:connector-curvature="0" />
        </g>
        <g
           id="g250"
           transform="translate(203.3181,254.7996)"
           style="stroke-width:0.85039372;stroke-miterlimit:4;stroke-dasharray:none">
          <path
             d="m 0,0 1.287,-1.716 0.429,-1.287 h 0.429 l 2.574,-5.147 2.144,-4.289 v -0.429 l 0.429,-0.429 0.429,-1.287 H 8.15 l 0.429,-0.858 v -0.429 l 0.429,-0.858 h 0.429 l 0.429,-1.716 0.429,-0.428 v -0.429 l 0.429,-0.429 v -0.429 l 0.429,-0.858 h 0.429 l 0.429,-0.858 -3.432,-1.716 h 0.429 v -0.429 -0.429 -0.429 -0.429 -0.428 h 0.429 v -0.429 -0.429 -0.429 -0.429 -0.429 -0.429 -0.429 l 0.429,-0.429 v -0.429 -0.429 l 0.429,-0.429 v -0.429 l 0.429,-0.429 v -0.858 l 0.429,-0.857 v -0.429 l 0.429,-0.429 v -0.429 -0.429 -0.429 -0.429 -0.429 h -0.429 v -0.429 -0.429 l -0.429,-0.429 v -0.429 -0.429 h -0.429 v -0.429 -0.429 H 9.866 v -0.429 -0.428 H 9.437 v -0.429 l -0.429,-0.429 v -0.429 H 8.579 v -0.429 H 8.15 v -0.429 l -0.429,-0.429 v -0.429 l -0.429,-0.429 v -0.429 H 6.863 v -0.429 l -0.858,-1.716 -0.428,-0.858 -0.429,-0.857 v -0.43 L 4.719,-48.47 v -0.429 -0.429 L 4.29,-50.186 v -0.429 l -0.429,-0.429 v -0.429 L 3.003,-51.902 H 2.574 2.145 1.716 1.287 0.429 0 v -0.429 l -0.429,-1.716 v -0.858 -0.428 h -0.429 v -0.429 -0.429 h -0.429 v -0.429 h -0.429 v 0.429 l -0.429,-0.429 -0.429,0.429 -0.428,-0.429 H -3.431 -3.86 -4.289 -4.718 v 0.429 l 0.429,0.429 v 0.429 0.857 h -0.429 -0.429 -0.429 v -0.429 -0.428 h -0.429 l -0.858,0.428 v -0.428 h -0.429 l -1.716,0.428 v 0.429 l -0.429,-0.429 -1.287,0.429 h -2.144 -0.429 -0.858 v 0.429 3.003 0.429 h -2.574 -0.858 -0.429 -1.715 -0.429 l -1.287,0.429 -0.429,0.429 h -0.429 v 0.429 h -0.858 l -1.716,1.286 h -0.429 -0.429 v 0.43 h -0.429 -0.858 -0.429 v 0.429 h 0.429 v 0.428 h 0.429 l -0.429,0.429 h -0.429 -0.429 v 0.429 h -0.428 -0.429 l -0.858,0.429 h -0.429 v -0.429 0.429 h -0.858 l -0.429,0.429 h -0.429 v 0.429 h -0.429 -0.429 v 0.429 h -0.429 -0.429 l -0.429,0.429 h -0.429 v 0.429 h -0.429 v 0.429 l -0.858,0.429 v 0.429 0.429 h -0.429 -0.428 l -0.429,0.429 v 0.429 0.429 0.429 0.428 h -0.429 l -0.429,0.429 h -0.429 v 0.429 h -0.429 l -0.429,0.429 h -0.429 -0.429 l -0.429,0.429 h -0.429 -2.145 l -0.429,0.429 h -0.429 -0.429 -0.428 -0.429 l -0.429,0.429 h -0.429 -0.429 v 0.429 h -0.429 -0.429 -0.429 v 0.429 h -0.429 -0.429 -0.429 l -0.429,0.429 h -0.429 -0.429 -0.429 l -0.429,0.429 h -0.429 -0.429 v 0.429 0.429 0.429 0.429 l -0.429,0.429 v 0.428 h -0.429 v 0.429 h -0.428 v 0.429 0.429 0.429 0.858 l -0.429,0.429 v 0.429 0.429 0.429 0.858 0.429 l 0.429,0.429 v 0.429 l 0.428,0.857 0.429,0.858 h 0.429 0.429 v 0.429 l 0.429,0.429 0.429,0.429 0.429,0.429 h 0.429 0.429 l 0.858,0.429 0.429,0.429 0.429,0.858 0.429,0.429 v 0.858 l -0.429,0.429 v 0.429 h -0.429 l -0.429,0.428 -0.429,0.429 v 0.429 h -0.858 -0.429 -0.429 l -0.429,-0.429 -0.858,0.429 h -0.429 -0.429 l -0.428,0.429 v 0.429 0.429 h 0.428 l 0.429,0.429 h 0.429 v 0.429 0.429 l 0.429,0.429 v 0.429 0.429 l 0.429,0.429 h 0.429 v 0.429 h 0.429 0.429 l 0.429,0.429 0.429,0.429 h 0.429 0.429 0.429 l 0.429,0.429 0.429,0.428 h 0.429 l 1.287,-0.428 h 0.429 l 0.857,0.428 h 0.429 l 0.429,0.858 h 0.429 v 0.429 h 0.429 l 0.429,-0.429 h 0.429 -0.429 v -0.429 h 0.429 l 0.429,-0.429 h 0.858 v -0.428 h 0.429 0.429 l 0.429,-0.429 0.429,0.429 h 0.429 l 0.429,0.428 h 0.858 l 0.857,0.429 0.429,0.429 0.429,0.858 h 0.429 0.429 0.429 0.429 0.429 0.429 0.429 l 0.429,0.429 0.429,0.429 v 0.429 l 0.429,0.858 h 0.429 v 0.429 l 0.858,0.858 v 0.429 h 0.429 l 0.429,0.429 h 0.428 l 0.429,0.429 0.429,0.428 0.429,-0.428 h 0.429 0.429 0.429 0.429 v -0.429 h 0.429 0.429 0.429 v -0.429 h 0.429 0.429 0.429 0.429 0.429 0.429 0.429 l 0.429,0.429 h 0.429 v 0.429 0.428 0.429 0.429 h 0.428 v 0.429 l 0.429,0.429 v 0.429 0.429 h 0.429 v 0.429 h 0.429 0.429 0.429 0.429 l 0.429,0.429 h 0.429 l 0.858,0.429 0.429,0.429 0.858,0.429 1.287,0.858 h 0.429 l 0.429,0.429 0.857,0.429 0.858,0.857 h 0.429 l 0.429,0.429 V 3.86 h 0.429 l -0.429,0.429 v 0.429 l -0.429,0.429 -0.429,0.429 v 0.429 h -0.429 v 0.429 l -0.429,0.429 -0.429,0.429 -0.428,0.429 h 0.428 0.429 l 0.429,0.429 h 0.429 0.429 l 0.429,0.429 h 0.858 v 0.429 h 0.429 l 0.858,0.429 h 0.429 L -5.147,6.863 -4.718,6.434 V 6.005 L -4.289,5.576 V 5.147 L -3.86,4.289 -3.431,3.86 V 3.431 L -3.002,3.002 V 2.573 h 0.428 L -2.145,1.716 -0.429,1.287 0,0.429 Z"
             style="fill:none;stroke:#192c3a;stroke-width:0.85039372;stroke-linecap:round;stroke-linejoin:bevel;stroke-miterlimit:4;stroke-dasharray:none;stroke-opacity:1"
             id="path252"
             inkscape:connector-curvature="0" />
        </g>
        <g
           id="g254"
           transform="translate(192.1656,149.2802)"
           style="stroke-width:0.85039372;stroke-miterlimit:4;stroke-dasharray:none">
          <path
             d="m 0,0 v -0.429 l 0.429,-0.429 v -0.429 h 0.429 v -0.429 l 0.429,-0.858 0.429,-0.428 0.429,-0.43 v -0.429 h 0.429 l 0.428,-1.286 0.429,-0.429 v -0.429 l 0.43,-0.429 V -6.863 L 4.719,-7.721 V -8.15 l 0.429,-0.858 0.428,-0.429 v -0.429 h 0.429 v -0.429 L 5.148,-10.724 H 4.719 L 4.29,-11.153 H 3.861 v -0.428 H 3.431 L 3.002,-12.01 H 2.574 v -0.429 H 2.145 L 1.716,-12.868 H 1.287 v -0.429 H 0.858 0.429 L 0,-13.726 v -0.429 l 0.429,-0.858 h 0.858 v -0.429 H 2.145 V -16.3 l 0.429,0.429 V -16.3 h 0.428 0.429 v -0.429 h 0.43 v -0.429 -0.429 H 4.29 v -0.429 -0.429 -0.428 H 3.861 3.431 3.002 v -0.429 -0.429 -0.429 H 2.574 v -0.429 -0.429 H 2.145 v 0.429 H 1.716 1.287 0.858 L 0,-20.16 h -0.858 -0.858 l -1.715,0.429 v -0.858 l -0.858,-1.287 v -0.429 l -0.429,-0.429 v -0.429 l -0.43,-0.429 v -0.429 l -0.428,-0.429 v -0.429 -0.429 h -0.429 v -0.428 -0.429 h -0.429 v -0.429 -0.429 h -0.429 v -0.429 -0.429 h -0.429 v -0.429 l 0.429,-0.429 v -0.429 h 0.429 v -0.429 h 0.429 l 0.429,-0.858 v -0.429 l 0.428,-0.429 v -0.429 l 0.43,-0.429 v -0.429 -0.428 -0.429 h -0.43 l -0.428,-0.429 v -0.429 h -0.429 l -0.429,-0.429 v -0.429 h -0.429 v -0.429 h -0.429 v -0.429 l -0.429,-0.429 -0.429,-0.429 v -0.429 h -0.429 l -0.429,0.429 -0.429,0.429 h -0.429 -0.429 v 0.429 h -0.857 -0.429 l -0.429,0.429 h -0.429 l -0.859,0.429 h -0.428 -0.429 -0.858 v -0.429 h -0.429 -0.429 l -0.858,-0.429 h -0.429 v 0.858 0.429 h -0.429 -0.429 -0.429 l -0.429,-0.429 h -0.429 v 0.429 h 0.429 v 0.429 l -0.857,0.429 h -0.429 -0.429 -0.429 -0.429 l -0.858,0.429 h -0.429 -0.429 -0.429 v 0.429 l -1.287,0.428 h -0.429 -0.429 -0.429 -0.429 v 0.429 h -0.429 -0.429 l -0.429,0.429 h -0.428 l -0.858,-0.429 -0.858,-0.857 -0.429,-0.429 h -0.429 v -0.429 l -0.429,-0.429 -0.429,-0.429 h -0.429 v -0.429 l -0.429,-0.429 -0.429,-0.429 h -0.429 v -0.429 0.429 h -0.429 -0.429 l -0.429,0.429 h -0.429 -0.429 v 0.429 h -0.429 l -0.857,0.429 v 0.429 l 0.429,0.429 v 0.429 0.429 h 0.428 v 0.428 0.429 h 0.429 v 0.429 0.429 h 0.429 v 0.429 h 0.429 v 0.429 0.429 h 0.429 -0.429 -0.858 l -1.715,0.429 h -0.429 l 0.429,0.429 v 0.429 0.429 l 0.429,0.429 v 0.429 l 0.857,1.287 0.429,1.715 0.429,0.858 0.429,1.287 0.429,1.287 v 0.429 0.429 h 0.858 l 0.858,-0.429 v 0.429 h 0.429 v 0.429 0.429 h 0.429 v 0.429 h 0.429 v 0.428 l 0.429,0.429 h 0.429 l 0.429,-0.857 h 0.429 l 1.287,-0.429 2.144,-0.858 h 0.858 l 0.429,0.429 0.429,0.429 2.145,2.573 0.858,0.858 v 0.429 h 0.429 v 0.429 l 0.429,0.858 0.858,1.287 0.857,2.144 0.858,1.716 0.429,0.858 0.429,1.287 0.429,1.716 v 0.429 0.857 l 0.429,0.429 v 0.43 h 0.429 l 0.429,-0.43 h 0.429 l 0.858,-0.429 0.429,-0.428 h 0.428 0.43 l 0.429,-0.429 h 0.429 l 0.858,-0.429 h 0.428 l 0.429,-0.429 h 0.429 0.429 0.429 0.429 0.429 l 0.858,0.429 h 0.429 0.429 l 0.429,0.429 0.429,0.429 h 0.428 v 0.428 h 0.43 v 0.429 h 0.429 v 0.43 0.428 h 0.429 v 0.429 0.429 h 0.429 v 0.429 l 0.429,0.429 h 0.428 v 0.429 h 0.429 L -1.716,0 h 0.429 0.429 0.429 z"
             style="fill:none;stroke:#343434;stroke-width:0.85039372;stroke-linecap:round;stroke-linejoin:bevel;stroke-miterlimit:4;stroke-dasharray:none;stroke-opacity:1"
             id="path256"
             inkscape:connector-curvature="0" />
        </g>
        <g
           id="g258"
           transform="translate(181.442,167.7247)"
           style="stroke-width:0.85039372;stroke-miterlimit:4;stroke-dasharray:none">
          <path
             d="M 0,0 4.718,-0.858 H 6.863 7.292 V -1.287 -2.145 -2.574 -3.003 -3.861 L 7.721,-4.718 V -6.005 L 8.15,-6.863 V -7.292 -7.721 -8.15 h 0.429 v -0.429 -0.858 l 0.429,-0.858 H 8.579 9.008 v -0.429 -0.428 -0.429 L 8.579,-12.01 h 0.429 l -0.429,-0.429 v -0.429 L 8.15,-13.297 v -0.429 l -0.429,-0.858 v -0.429 -0.429 H 7.292 v -0.429 -0.429 h 0.429 v -0.429 -0.429 -0.429 H 8.15 v -0.429 l 0.429,-0.428 v -0.429 H 8.15 v -0.429 H 7.721 L 7.292,-19.731 V -20.16 H 6.863 v -0.429 -0.429 H 6.434 v -0.429 -0.429 H 6.005 v -0.429 H 5.576 v -0.429 H 5.147 L 4.718,-23.163 4.289,-23.592 H 3.86 3.431 L 2.574,-24.021 H 2.145 1.716 1.287 0.858 0.429 L 0,-23.592 h -0.429 l -0.858,0.429 h -0.429 l -0.429,0.429 h -0.429 -0.429 l -0.429,0.429 -0.858,0.429 h -0.429 l -0.429,0.429 h -0.428 l -0.858,0.429 h -0.429 -0.429 v 0.429 H -8.15 l -0.858,0.429 h -0.429 -0.429 v 0.429 0.429 h 0.429 v 0.429 h -0.429 v 0.429 l 0.429,0.857 0.429,0.858 h 0.429 2.145 0.429 0.429 l 0.428,0.429 v 0.429 h -0.428 l -1.716,0.858 h -0.429 l -0.429,0.429 v 0.429 h -0.429 0.429 v 0.429 0.858 l -0.858,0.429 h -0.429 l -1.716,0.429 v 0.429 l 0.429,1.286 0.429,0.858 0.429,1.287 v 0.858 0.429 0.429 h 0.858 0.429 1.287 0.429 l -0.858,0.858 H -8.15 v 0.429 l -0.858,0.429 -0.429,0.429 h -0.429 l -0.429,0.428 -1.287,0.858 -0.429,0.429 h -0.429 l -0.429,0.429 h 0.429 v 0.858 l 0.429,0.429 v 0.429 h 0.429 0.429 v 0.858 l -0.429,0.429 h 0.429 v 0.429 0.429 0.429 0.429 h 0.429 0.429 l 0.858,-0.429 2.145,-0.429 h 0.429 0.429 0.429 l 2.573,-0.858 h 0.429 l 1.287,-0.429 z m 42.037,-21.876 -0.429,0.429 v 0.429 h -0.429 v 0.429 H 40.75 v 0.858 l -0.429,0.429 v 0.429 h -0.429 v -0.429 h -0.858 l -0.858,-0.429 -0.429,-0.429 h -0.429 -0.429 v -0.429 h -0.428 l -0.858,-0.429 h -0.429 l -0.429,-0.429 v -0.429 -0.429 h -0.429 l -0.429,-0.429 h -0.429 -0.429 l -1.716,-0.858 -0.429,-0.429 h -0.429 l -0.429,-0.429 h -0.429 l -0.858,-0.429 -0.857,-0.429 h -0.429 l -0.429,-0.428 -0.429,-0.429 h -0.429 l -0.429,-0.429 h -0.429 l -0.858,-0.429 -0.429,-0.429 h -0.429 -0.429 l -0.429,-0.429 h -0.429 l -0.429,-0.429 h -0.429 -0.429 -0.429 -0.857 l -0.858,-0.429 h -0.429 -0.429 -0.429 -0.429 -0.429 l -0.858,-0.429 h -0.429 l -0.429,-0.429 h -0.429 v -0.429 h -0.429 l -0.429,-0.429 h -0.429 v -0.429 h -0.429 l -0.429,-0.429 H 12.01 v -0.429 h -0.429 -0.428 l -0.429,-0.429 v -0.428 l 0.429,-0.858 h 0.857 v -0.429 h 0.858 v -0.858 l 0.429,0.429 v -0.429 h 0.429 0.429 v -0.429 h 0.429 v -0.429 -0.429 h 0.429 v -0.429 -0.429 -0.429 h -0.429 -0.429 -0.429 v -0.429 -0.429 -0.429 h -0.429 v -0.429 -0.428 h -0.429 v 0.428 H 12.439 12.01 11.581 l -0.857,0.429 H 9.866 9.008 l -1.716,0.429 v -0.858 L 6.434,-40.32 v -0.429 l -0.429,-0.429 v -0.429 l -0.429,-0.429 v -0.429 l -0.429,-0.429 v -0.429 -0.429 H 4.718 v -0.429 -0.429 H 4.289 v -0.429 -0.429 H 3.86 v -0.429 -0.429 H 3.431 v -0.428 l 0.429,-0.429 v -0.429 h 0.429 v -0.429 h 0.429 l 0.429,-0.858 v -0.429 l 0.429,-0.429 v -0.429 l 0.429,-0.429 v -0.429 -0.429 l 0.429,-0.858 0.429,-0.429 v -0.429 l 0.429,-0.428 v -0.429 -0.429 l 0.429,-1.287 0.429,-0.429 v -0.429 h 0.429 v -0.429 h 0.429 v -0.429 l 0.429,-0.429 h 0.429 l 0.429,-0.429 h 0.429 l 0.857,-0.429 h 0.429 l 0.858,-0.429 h 1.287 l 0.858,-0.429 h 0.429 0.429 v -0.429 l 0.429,0.429 h 0.858 0.429 0.429 l 1.287,-0.429 h 0.429 0.428 0.858 0.429 0.429 0.429 1.287 0.429 0.429 0.429 l 0.429,-0.429 h 0.429 0.429 l 0.429,-0.428 h 0.429 l 1.286,-0.429 h 0.429 l 0.429,-0.43 0.858,-0.428 h 0.429 0.429 l 0.429,-0.429 h 0.429 0.429 v -0.429 h 0.429 0.429 l 0.858,-0.429 h 0.429 l 0.429,-0.429 h 0.429 0.429 0.429 v -0.429 h 0.429 0.428 0.429 v -0.429 -0.429 l -0.429,-0.429 v -0.429 -0.429 -0.429 h -0.428 v -0.429 -0.428 -0.429 l -0.429,-0.858 -0.429,-0.858 v -0.429 h -0.429 v -0.429 h -0.429 l -0.429,0.429 h -0.429 v 0.429 h -0.429 l -0.429,0.429 v -0.429 -0.429 L 32.6,-70.775 h 0.429 l 0.429,-0.429 -0.429,-0.858 v -0.429 L 32.6,-73.349 32.171,-74.636 H 32.6 v -0.428 l -0.429,-0.429 v -0.858 l -0.429,-0.858 -0.429,-0.858 -0.429,-0.429 v -0.429 l -0.429,-0.429 v -0.858 l -0.429,-1.716 -0.429,-0.858 -0.429,-0.429 v -0.857 l -0.429,-1.716 h 0.429 l -0.429,-0.429 h 0.429 0.429 0.429 v -0.429 h 0.429 0.429 v -0.429 h 0.429 0.429 0.429 l 0.858,-0.429 h 1.716 0.429 1.715 l 1.287,-0.429 h 0.429 0.429 l 0.858,-0.429 h 1.287 0.858 l 0.858,-0.429 h 0.858 l 0.858,-0.429 1.286,-0.429 1.287,-0.429 h 0.429 l 0.429,-0.428 0.429,-0.429 h 0.429 0.429 0.429 0.429 v -0.429 h 0.429 0.429 0.429 l 1.716,-0.429 h 0.428 v -0.429 h 0.429 0.429 0.429 l 0.858,-0.429 h 0.429 l 0.429,-0.429 h 0.429 0.429 0.429 l 0.429,-0.429 v -0.429 -0.429 -0.429 h 0.429 0.429 0.429 v -0.429 h 0.429 v -0.429 l 0.429,-0.429 v -0.429 -0.429 l 0.429,-0.429 v -0.428 h 1.715 1.287 0.429 v 0.428 0.429 h -0.429 v 0.429 0.429 l -0.429,0.429 v 0.429 h 0.429 0.429 0.429 0.429 0.429 0.429 0.429 0.429 l 1.287,0.429 h 0.429 0.858 0.429 0.428 l 0.429,0.858 h 0.429 v 0.429 l 0.429,0.429 v 0.429 l 0.429,0.429 0.429,-0.429 h 0.429 0.429 v -0.429 h 0.429 0.429 v -0.429 h 0.429 0.429 l 0.429,-0.429 h 0.429 0.429 l 0.429,-0.429 h 0.429 0.429 0.429 l 0.428,-0.429 h 0.429 0.429 0.429 0.429 0.429 v -0.429 h 0.429 l 0.858,-0.429 h 0.858 l -0.858,1.716 -0.429,0.858 v 0.429 0.429 h -0.429 v 0.429 0.429 l -0.429,0.429 v 0.857 0.429 l -0.429,0.858 v 0.429 0.429 0.429 0.429 0.858 0.858 0.429 0.429 0.429 0.429 0.428 h -0.429 v 0.429 0.429 h -0.429 v 0.429 0.429 0.429 0.429 0.429 0.429 0.858 1.287 l 0.429,2.145 h 0.858 0.429 0.429 0.429 v 0.429 l -0.429,0.857 -0.429,0.858 v 0.429 l -0.429,0.429 v 0.429 l -0.429,0.429 v 0.429 l -0.429,0.429 v 0.429 0.429 h -0.429 v 0.429 l -0.429,1.287 -0.857,1.286 v 0.429 l -0.429,0.858 -0.429,0.429 v 0.429 l -0.858,0.858 v 0.429 l -0.429,0.429 -0.858,0.858 v 0.428 l -0.429,0.43 h -0.429 v 0.429 l -0.429,0.428 -0.429,0.858 -0.429,0.429 -0.429,0.429 v 0.429 h -0.429 v 0.429 h -0.429 l -0.429,0.858 -0.429,0.858 -0.857,0.429 v 0.429 l -0.429,0.429 v 0.429 h -0.429 l -0.429,0.429 v 0.429 l -0.429,0.428 v 0.429 h -0.429 l -0.858,1.287 -1.287,1.716 -0.858,1.287 h -0.429 v 0.429 h -0.429 v 0.429 l -0.858,0.858 v 0.428 h -0.429 v 0.429 l -0.429,0.429 v 0.429 l -0.857,0.858 h -0.429 v 0.429 l -0.429,0.858 h -0.429 v 0.429 l -0.858,0.858 -0.429,0.429 -0.858,0.858 v 0.429 l -1.287,0.857 v 0.429 l -0.858,0.858 h -0.429 l -0.429,0.858 h -0.429 v 0.429 h -0.429 l -0.857,0.858 v 0.429 l -0.429,0.429 h -0.429 v 0.429 l -0.429,0.429 -0.429,0.429 h -0.429 v 0.429 l -0.429,0.429 -0.858,0.857 -0.858,0.858 -0.858,0.858 -0.858,1.287 -1.287,1.287 -0.858,0.858 -0.857,1.286 -0.429,0.429 -0.429,0.858 -0.429,0.429 v 0.858 h -0.429 z"
             style="fill:none;stroke:#192c3a;stroke-width:0.85039372;stroke-linecap:round;stroke-linejoin:bevel;stroke-miterlimit:4;stroke-dasharray:none;stroke-opacity:1"
             id="path260"
             inkscape:connector-curvature="0" />
        </g>
        <g
           id="g262"
           transform="translate(190.021,172.0139)"
           style="stroke-width:0.85039372;stroke-miterlimit:4;stroke-dasharray:none">
          <path
             d="M 0,0 V -0.429 H 0.429 L 3.86,-1.287 6.863,-2.145 7.721,-2.574 h 1.716 0.429 l 2.573,0.429 h 0.429 l 0.429,-0.429 0.429,-0.428 v -0.429 h 0.429 V -3.86 h 0.429 l 0.858,-1.287 0.858,-0.429 0.429,-0.858 0.429,-0.429 H 16.729 V -7.292 L 16.3,-7.721 V -8.15 h -0.429 v -0.429 h -0.429 -0.429 l -0.429,-0.429 h -0.858 l -1.287,-0.429 -1.286,-0.857 H 10.724 L 9.437,-11.152 8.579,-11.581 7.292,-12.439 6.434,-12.868 H 5.576 L 3.86,-13.297 2.145,-14.155 H 0.858 0.429 v -0.429 L 0,-13.726 v 0.858 0.429 h -0.429 v 0.429 0.429 0.429 l -0.429,0.858 v 1.286 l -0.429,0.858 v 0.858 0.429 0.429 0.858 0.429 0.858 0.429 l -0.429,0.429 h 0.429 -0.429 0.429 v 0.429 0.428 0.429 l 0.429,0.429 h -0.429 0.429 v 0.429 l 0.429,0.429 V -0.429 0 Z"
             style="fill:none;stroke:#343434;stroke-width:0.85039372;stroke-linecap:round;stroke-linejoin:round;stroke-miterlimit:4;stroke-dasharray:none;stroke-opacity:1"
             id="path264"
             inkscape:connector-curvature="0" />
        </g>
        <g
           id="g266"
           transform="translate(208.0368,164.2931)"
           style="stroke-width:0.85039372;stroke-miterlimit:4;stroke-dasharray:none">
          <path
             d="M 0,0 H 0.429 V -0.429 H 0.858 V -0.858 H 1.287 V -1.287 H 1.716 L 2.145,-1.716 V -2.145 H 2.574 2.145 V -2.574 H 2.574 2.145 L 1.716,-3.003 1.287,-3.431 0.858,-3.86 0.429,-4.289 H 0 V -4.718 H -0.429 -0.858 V -5.147 H -1.287 L -1.716,-5.576 H -2.145 -2.574 -3.002 L -3.861,-6.005 H -4.29 -4.719 v -0.429 h -0.429 -0.428 v -0.429 h -0.429 v -0.429 h -0.429 v -0.429 -0.429 -0.429 -0.429 -0.429 -0.429 -0.429 -0.428 -0.43 h -0.429 v -0.428 -0.429 h -0.429 v -0.429 -0.429 h -0.429 v -0.429 H -8.15 -8.579 v -0.429 h -0.429 l -0.858,-0.429 h -0.429 -0.429 l -2.145,-0.429 h -0.429 v -0.429 h -0.429 -1.286 -0.429 -0.429 -0.429 -0.429 -0.429 -0.429 l -0.429,-0.429 v 0.429 l -0.429,0.429 v 0.429 h -0.429 v 0.429 0.429 0.429 h -0.429 v 0.429 0.429 h 0.429 v 0.429 0.428 l 0.429,0.858 v 0.429 l 0.429,0.429 v 0.429 l 0.429,0.429 h -0.429 l 0.429,0.429 v 0.429 0.429 0.429 h -0.429 0.429 v 0.429 h 0.429 1.287 l 1.716,0.858 1.715,0.429 h 0.859 l 0.857,0.429 1.287,0.858 0.858,0.429 1.287,0.857 h 0.429 l 1.287,0.858 1.286,0.429 h 0.859 l 0.429,0.429 h 0.428 0.429 v 0.429 h 0.429 V 0 l 0.429,0.429 v 0.429 h 0.429 L -0.429,0.429 H 0 Z m -10.295,15.013 1.287,-0.429 h 2.145 1.715 l 0.429,-0.429 V 13.726 13.297 12.868 H -5.148 V 12.439 12.01 11.581 11.153 L -5.576,9.866 V 9.437 9.008 8.579 8.15 7.721 7.292 6.863 6.434 6.005 h 0.428 V 5.576 H -5.576 L -8.15,5.147 h -0.429 -1.716 l -0.858,0.429 -3.002,0.858 -3.432,0.858 h -0.429 v 0.429 h -0.429 0.429 v 0.429 0.429 0.429 0.429 0.429 0.429 0.429 0.429 0.428 h 0.429 v 0.429 0.429 l 0.429,0.429 v 0.429 0.429 h 0.429 v 0.429 0.429 0.429 h 0.429 0.429 3.002 l 0.429,0.429 1.716,-0.429 z"
             style="fill:none;stroke:#192c3a;stroke-width:0.85039372;stroke-linecap:round;stroke-linejoin:bevel;stroke-miterlimit:4;stroke-dasharray:none;stroke-opacity:1"
             id="path268"
             inkscape:connector-curvature="0" />
        </g>
        <g
           id="g270"
           transform="translate(207.1789,198.1793)"
           style="stroke-width:0.85039372;stroke-miterlimit:4;stroke-dasharray:none">
          <path
             d="M 0,0 0.858,-2.145 V -2.574 -3.002 H 1.287 V -3.431 -3.86 H 1.716 V -4.289 H 2.145 V -4.718 L 2.574,-5.147 3.002,-5.576 V -6.005 H 3.431 V -6.434 H 3.86 V -6.863 L 4.289,-7.292 V -7.721 -8.15 h 0.429 v -0.429 -0.429 -0.429 -0.429 -0.428 -0.429 -0.429 -0.429 -0.429 -0.429 -0.429 h 0.429 v -0.429 -0.429 l 0.429,-0.429 v -0.429 h 0.429 v -0.429 h 0.429 v -0.429 H 6.005 v -0.429 H 5.576 L 5.147,-16.3 H 4.718 v -0.429 H 4.289 L 3.86,-17.157 H 3.431 v -0.429 H 3.002 v -0.429 H 2.574 2.145 v -0.429 H 1.716 L 1.287,-18.873 H 0.858 v -0.429 H 0.429 v -0.429 H 0 l -0.429,-0.429 -0.429,-0.429 -0.429,0.429 h -0.429 -0.429 -0.429 -0.429 l -0.429,0.429 h -0.429 l -0.429,0.429 H -6.005 -8.15 l -1.287,0.429 h -0.429 l -1.716,0.429 -0.429,-0.429 h -3.002 -0.429 -0.429 0.429 v 0.858 l 0.429,0.429 v 0.429 0.428 l 0.429,0.429 v 0.429 0.429 l 0.429,0.429 h -0.429 l 0.429,1.287 v 0.429 0.429 l 0.428,1.287 0.429,0.429 h 0.429 l 0.858,0.429 0.858,0.429 h 0.429 0.429 v 0.428 h 0.429 v 0.429 h 0.429 v 0.429 0.429 0.429 -0.429 0.429 0.429 0.429 0.429 h 0.429 v 0.429 0.429 0.429 0.429 0.429 l 0.429,0.429 v 0.429 0.429 0.429 0.428 0.429 0.429 h 0.429 v 0.429 h 0.429 v 0.429 h 0.429 v 0.429 h 0.429 0.429 V 0 h 0.429 l 0.428,0.429 V 0 h 0.429 v 0.429 h 0.429 v 0.429 0.429 h 0.429 v 0.429 0.858 l 0.429,1.715 v 0.429 h 0.429 0.858 0.429 0.429 0.429 0.429 L 0,5.147 V 4.718 4.289 H -0.429 V 3.861 3.432 3.003 2.574 2.145 1.716 1.287 0.858 0.429 H 0 Z"
             style="fill:none;stroke:#192c3a;stroke-width:0.85039372;stroke-linecap:round;stroke-linejoin:round;stroke-miterlimit:4;stroke-dasharray:none;stroke-opacity:1"
             id="path272"
             inkscape:connector-curvature="0" />
        </g>
        <g
           id="g274"
           transform="translate(205.4632,158.2879)"
           style="stroke-width:0.85039372;stroke-miterlimit:4;stroke-dasharray:none">
          <path
             d="M 0,0 1.287,-1.716 1.716,-2.574 H 2.145 L 1.716,-3.002 3.431,-4.718 3.002,-6.005 2.145,-7.292 2.574,-7.721 V -8.15 h 0.428 l 0.429,-0.429 0.429,-0.858 0.858,-1.286 1.716,-2.145 0.429,-0.858 0.429,-0.429 -0.429,-0.429 H 6.434 L 6.005,-15.013 H 5.576 L 4.718,-15.442 3.86,-15.871 H 3.431 L 3.002,-16.3 2.574,-16.729 H 2.145 L 1.716,-17.157 H 1.287 L 0.429,-17.586 0,-18.015 h -0.429 -0.429 l -0.429,-0.429 h -0.429 l -0.429,-0.429 H -2.574 -3.003 -3.432 -4.29 l -0.858,-0.429 h -0.429 -0.428 -0.429 -0.429 -0.429 v 0.429 h -0.429 v 0.429 l -0.429,0.429 -0.429,0.858 v 0.428 l -0.858,0.858 v 0.429 l -0.429,0.429 v 0.429 l -0.429,0.429 -0.429,1.287 h -0.429 v 0.429 l -0.429,0.429 -0.429,0.429 -0.429,0.858 v 0.429 h -0.429 v 0.428 l -0.429,0.429 v 0.429 h 0.429 0.429 1.287 0.429 v 0.429 h 0.429 l 2.145,0.429 h 0.429 0.429 l 0.858,0.429 h 0.429 v 0.429 h 0.428 0.429 v 0.429 h 0.429 v 0.429 0.429 h 0.429 v 0.429 0.429 h 0.429 v 0.429 0.429 0.429 0.429 0.429 0.428 0.429 0.429 0.429 h 0.429 v 0.429 h 0.429 v 0.429 h 0.429 0.429 V 0 h 0.429 0.429 l 0.858,0.429 H 0 Z"
             style="fill:none;stroke:#192c3a;stroke-width:0.85039372;stroke-linecap:round;stroke-linejoin:bevel;stroke-miterlimit:4;stroke-dasharray:none;stroke-opacity:1"
             id="path276"
             inkscape:connector-curvature="0" />
        </g>
        <g
           id="g278"
           transform="translate(215.329,181.0219)"
           style="stroke-width:0.85039372;stroke-miterlimit:4;stroke-dasharray:none">
          <path
             d="M 0,0 0.429,-0.429 V -0.858 H 0.858 V -1.287 L 1.287,-2.145 V -2.574 L 1.716,-3.003 V -3.432 H 2.145 V -3.861 H 2.574 V -4.29 H 3.002 V -4.718 H 3.431 V -5.147 H 3.86 4.289 4.718 V -5.576 H 5.147 5.576 6.005 6.434 6.863 7.292 7.721 8.15 8.579 9.008 V -6.005 H 9.437 V -6.434 L 9.008,-7.721 V -8.15 -8.579 -9.008 L 8.579,-9.437 8.15,-10.295 7.721,-11.153 v -0.428 L 7.292,-12.01 v -0.429 H 6.863 l -0.429,-1.287 v -0.429 H 6.005 v -0.429 l -0.858,-0.858 v -0.429 H 4.718 V -16.3 L 3.431,-18.016 3.002,-18.444 2.145,-18.873 1.287,-19.302 H 0.858 l -0.429,0.429 H 0 -0.429 l -0.429,0.429 h -0.429 -0.429 v 0.428 h -0.429 -0.429 -0.429 -0.429 v -0.428 H -3.861 -4.29 v -0.429 h -0.429 v -0.429 h -0.429 v 0.429 h 0.429 -0.429 v 0.429 l -0.429,0.428 h -0.428 v 0.429 h -0.429 v 0.429 h -0.429 v 0.429 h -0.429 v 0.429 h -0.429 l -0.429,0.429 -0.429,0.429 -0.429,0.858 -0.858,0.429 -0.858,1.287 h -0.429 v 0.429 h -0.429 v 0.429 l -0.429,0.429 -0.429,0.428 v 0.429 h -0.429 v 0.429 0.429 0.429 0.429 0.429 0.429 0.429 0.429 0.429 l 0.429,1.287 v 0.429 0.429 0.428 0.429 h 0.429 v 0.429 0.429 0.429 h 0.429 l 0.429,-0.429 h 0.429 0.429 0.429 0.429 l 0.429,-0.429 0.429,0.429 0.429,0.429 h 0.429 v 0.429 h 0.429 v 0.429 h 0.429 l 0.429,0.429 h 0.429 v 0.429 h 0.428 0.429 v 0.429 h 0.429 V 0 h 0.429 l 0.429,0.429 h 0.429 v 0.429 h 0.429 l 0.429,0.429 h 0.429 v 0.429 h 0.429 V 2.145 1.716 h 0.429 V 1.287 l 0.429,-0.429 z"
             style="fill:none;stroke:#343434;stroke-width:0.85039372;stroke-linecap:round;stroke-linejoin:bevel;stroke-miterlimit:4;stroke-dasharray:none;stroke-opacity:1"
             id="path280"
             inkscape:connector-curvature="0" />
        </g>
        <g
           id="g282"
           transform="translate(264.2287,293.833)"
           style="stroke-width:0.85039372;stroke-miterlimit:4;stroke-dasharray:none">
          <path
             d="M 0,0 0.429,-0.429 V -1.716 -2.574 -3.86 L 0,-5.147 V -5.576 L 0.429,-6.863 V -7.292 -8.15 l 0.429,-0.858 v -0.858 l 0.429,-0.857 v -0.858 l 0.429,-1.716 v -0.429 -0.429 l 0.429,-0.429 v -0.429 -1.287 -0.429 -0.428 -0.429 -1.287 -1.716 -0.858 -0.429 -0.429 -0.429 -0.429 -0.429 -0.857 -1.287 -0.429 -0.858 -0.429 -0.429 l 0.858,-0.858 h 0.429 l 0.858,-0.858 0.858,-0.429 0.428,-0.429 1.287,-0.857 0.858,-0.858 H 8.15 l 0.429,-0.429 0.429,-0.429 h 0.429 l 0.858,-0.858 h 0.429 l 0.429,-0.429 1.287,-1.287 h 0.429 l 0.858,-0.858 h 0.428 l 0.429,-0.429 h 0.429 v -0.429 l 0.858,-0.429 0.858,-0.429 0.429,-0.428 h 0.429 v -0.429 h 0.429 l 0.429,-0.429 0.429,-0.858 h 0.429 0.429 v -0.429 h 0.429 l 0.858,-0.858 h 0.429 l 0.429,-0.429 v -0.429 l 0.429,-0.429 1.286,-0.429 1.716,-1.287 0.858,-0.857 h 0.429 l 1.287,-0.859 h -0.429 l 0.429,-0.429 h -0.429 -0.429 v -0.428 0.428 l -0.429,-0.428 -0.429,-0.429 -0.429,-0.429 -0.429,-0.429 -0.429,-0.429 v -0.429 H 24.45 l -0.429,-0.429 h -0.429 v -0.429 h -0.429 l -0.429,-0.429 h -0.428 v -0.429 h -0.429 v -0.429 h -0.429 v -0.429 h -0.429 l -0.429,-0.429 v -0.428 h -0.429 l -0.429,-0.43 -0.429,-0.429 h -0.429 v -0.428 l -0.429,-0.429 h -0.429 v -0.429 l -0.429,-0.429 h -0.429 v -0.429 h -0.429 v -0.429 H 16.3 l -0.429,-0.429 v -0.429 l -0.858,-0.429 -0.429,-0.429 h -0.429 v -0.429 l -0.428,-0.429 h -0.429 v -0.429 h -0.429 v -0.429 l -0.429,-0.429 h -0.429 v -0.429 h -0.429 v -0.428 h -0.429 v -0.858 h -0.429 v -0.429 -0.429 h -0.429 v -0.429 l -0.858,-1.716 -0.858,1.287 -0.858,0.858 v 0.429 H 7.292 v 0.429 H 6.863 v -0.429 H 5.576 5.148 4.719 v 0.429 H 4.29 3.432 3.003 2.574 2.145 1.716 1.287 l -1.716,-0.429 v -0.429 l 0.858,-1.716 H 0.858 0.429 V -64.77 H 0 -0.429 -0.858 l -0.429,-0.429 v 0.429 h -0.429 v -0.429 -0.429 l -0.429,-0.429 v -0.429 l -0.429,-0.429 v -0.429 l -0.428,-0.429 v -0.428 -0.429 h -0.429 v -0.429 -0.429 H -3.86 v -0.429 -0.429 h -0.429 v -0.429 -0.429 h -0.429 v -0.858 l -0.429,-0.429 v -0.429 -0.429 -0.429 h -0.429 -0.429 l -0.858,0.429 v 0.429 -0.429 l -0.429,-1.287 v -1.715 -1.287 -1.287 -0.429 H -7.721 -8.15 l -0.429,-0.429 h -0.429 -0.429 -0.429 -0.429 -0.429 -0.428 -0.858 -0.429 -0.429 -0.429 -0.858 -0.429 l -2.574,-0.429 -1.287,-0.429 -0.429,-0.429 v -0.858 h -0.429 v -0.428 h -0.428 v -0.429 -0.429 h -0.429 -0.429 v -0.429 h -0.429 v -0.429 h -0.429 v -0.429 h -0.429 -0.429 -0.429 v -0.429 h -0.858 -0.429 -0.429 -0.429 -0.429 -0.429 -0.429 v -0.429 -0.429 h -0.429 v -0.429 h 0.429 v -0.429 -0.429 l 0.429,-0.429 -0.429,-0.429 -1.287,-0.858 -1.286,-1.286 -0.429,-0.429 h -0.429 l -1.287,1.715 -0.429,0.429 -0.429,0.429 -0.858,1.287 -1.287,1.287 -0.429,0.858 -0.858,0.858 v 0.429 l -0.429,0.429 v 0.429 h -0.429 v 0.428 l -0.857,0.858 -0.858,1.716 -0.429,0.858 h -0.429 v 0.429 l -0.429,0.429 -0.429,0.858 -0.858,0.858 -0.429,1.286 h -0.429 v 0.429 l -0.429,0.429 -0.429,1.287 h -0.429 l -1.287,2.145 v 0.429 l -0.429,0.429 -1.286,2.144 -2.574,4.719 v 0.429 l -0.429,0.429 -0.429,0.429 v 0.429 l -0.429,0.857 h -0.429 l -0.429,0.858 v 0.429 l -0.428,0.429 v 0.429 l -0.43,0.429 -0.429,1.716 h -0.429 l -0.429,0.858 v 0.429 l -0.429,0.857 h -0.428 l -0.429,1.287 -0.429,0.429 v 0.429 l -2.145,4.29 -2.574,5.147 h -0.428 l -0.429,1.287 -1.288,1.716 v 0.429 l -0.429,0.857 h 0.429 0.429 l 0.859,-0.429 h 0.429 l 2.144,-0.428 0.858,-0.429 h 0.429 0.429 l 0.429,-0.429 h 0.429 l 0.429,-0.429 h 0.429 l 0.429,-0.429 h 0.428 0.429 l 0.429,0.429 v -0.429 l 0.429,0.429 h 0.429 0.43 v 0.429 h 0.428 l -1.287,0.429 h -0.429 v 0.429 l -0.429,0.857 -0.429,0.429 v 0.429 0.429 h -0.428 v 0.429 0.429 0.429 0.429 0.429 0.429 h 0.428 v 0.429 h 0.429 l 0.429,0.429 h 0.429 l 0.429,0.429 h 0.43 0.428 0.429 0.429 0.858 0.429 l 0.429,0.429 h 0.429 0.858 0.429 0.429 0.429 0.428 v 0.429 l 0.429,0.857 v 0.429 0.429 0.858 0.429 0.429 0.429 0.429 l -0.429,0.429 v 0.429 0.429 h -0.428 v 0.429 0.429 h -0.429 v 0.429 l -0.429,0.429 v 0.428 h -0.429 v 0.429 h -0.429 l 0.429,0.429 v 0.429 h 0.429 v 0.429 0.429 l 0.429,0.429 v 0.429 l 0.429,0.429 v 0.429 l 0.428,0.429 0.429,0.429 v 0.429 0.429 l 0.429,0.858 0.429,0.857 h 0.429 0.429 0.429 v -0.428 h 0.429 0.429 0.429 0.429 v -0.429 h 0.429 0.429 v 0.429 h 0.429 0.429 v 0.428 h -0.429 l -0.429,0.429 h -0.429 v 0.429 h -0.429 v 0.429 0.429 h 0.429 v 0.429 h 0.429 -0.429 v 0.429 l -0.429,0.429 -0.429,0.429 -0.429,0.429 h 0.429 v 0.429 0.429 l 0.429,0.858 v 0.429 0.429 l -0.429,0.857 -0.429,1.287 v 0.429 l -0.429,0.429 v 0.429 l 0.429,0.858 h -0.429 -0.858 v 0.429 0.429 l -0.429,0.429 v 0.429 0.429 0.429 0.429 0.428 0.429 0.429 0.429 l 0.429,0.429 v 0.429 h 0.429 V 0 0.429 l 1.287,1.287 0.858,0.858 0.429,0.429 h 0.429 0.429 0.858 l 1.286,-0.429 0.429,0.858 0.429,0.429 h -0.858 -0.428 v 0.857 h 2.144 v 0.429 0.429 h -0.429 v 0.858 l 0.858,-0.429 h 0.429 l 0.858,0.429 h 0.429 0.858 V 5.147 4.29 3.861 3.432 H -32.6 V 3.003 2.574 h 0.429 0.429 l 0.429,-0.429 0.429,-0.429 h 0.429 l 0.429,-0.429 h 0.429 l 0.429,-0.429 h 0.858 l 0.857,-0.429 h 0.429 L -26.595,0 h 0.429 v 0.429 l 0.429,0.429 v 0.429 0.429 h 0.429 v 0.429 0.429 0.429 l 1.287,0.429 h 0.858 l 0.429,0.429 h 0.429 l 0.858,0.429 0.429,0.428 h 0.429 l 0.858,0.429 h 0.428 l 0.429,0.429 h 0.429 l 1.716,0.429 0.858,0.429 h 0.429 0.429 0.858 0.858 0.429 0.429 0.429 l 0.858,-0.429 h 0.857 L -9.437,5.576 -9.008,5.147 -8.15,4.718 -7.292,3.861 -6.434,3.432 h 0.429 l 1.287,-0.858 0.429,-0.429 h 0.429 l 0.429,-0.429 h 0.429 l 0.428,-0.429 h 0.429 l 0.429,-0.429 0.858,-0.429 h 0.429 z"
             style="fill:none;stroke:#192c3a;stroke-width:0.85039372;stroke-linecap:round;stroke-linejoin:bevel;stroke-miterlimit:4;stroke-dasharray:none;stroke-opacity:1"
             id="path284"
             inkscape:connector-curvature="0" />
        </g>
        <g
           id="g286"
           transform="translate(212.755,163.0063)"
           style="stroke-width:0.85039372;stroke-miterlimit:4;stroke-dasharray:none">
          <path
             d="M 0,0 H -0.429 -0.858 V -0.429 H -1.287 -1.716 V -0.858 H -2.145 V -1.287 H -2.574 L -3.003,-1.716 -3.431,-2.145 -3.86,-2.574 -4.289,-3.002 h -0.429 v -0.43 h -0.429 -0.429 v -0.429 h -0.429 l -0.429,-0.428 h -0.429 -0.429 v -0.429 l 1.287,-1.716 0.429,-0.858 h 0.429 l -0.429,-0.429 1.716,-1.716 -0.429,-1.287 -0.858,-1.286 0.429,-0.429 v -0.429 h 0.429 l 0.429,-0.429 0.429,-0.858 0.857,-1.287 1.716,-2.145 0.429,-0.857 0.429,-0.429 1.716,0.857 h 0.429 0.429 l 0.429,0.429 h 0.429 v 0.429 0.429 L 3.861,-16.3 H 4.29 l 0.858,0.429 h 0.428 v 0.429 h 0.429 0.429 l 0.429,0.429 0.858,0.429 h 0.858 v 0.429 h 0.429 v 0.429 0.858 H 8.579 l -0.858,3.002 -0.429,0.858 v 0.429 H 6.863 l -0.429,0.858 -0.429,0.429 v 0.429 0.429 l -1.286,2.145 v 0.857 0.43 0.428 1.287 0.429 L 3.861,-1.287 H 3.432 L 3.003,-0.858 H 2.574 2.145 L 1.716,-0.429 H 1.287 0.858 V 0 H 0.429 Z M 3.432,68.202 6.005,63.483 7.292,61.338 7.721,60.91 v -0.429 l 1.287,-2.145 h 0.429 l 0.429,-1.287 0.429,-0.429 v -0.429 h 0.429 l 0.429,-1.287 0.858,-0.857 0.429,-0.858 0.429,-0.429 v -0.429 h 0.429 l 0.429,-0.858 0.857,-1.716 0.858,-0.858 V 48.47 h 0.429 V 48.041 L 16.3,47.612 v -0.429 l 0.858,-0.857 0.429,-0.858 1.287,-1.287 0.858,-1.287 0.429,-0.429 0.429,-0.429 1.287,-1.716 -2.145,-1.715 V 38.176 H 19.303 L 18.874,37.747 17.587,36.889 16.3,36.031 14.155,34.315 v -0.429 h -0.428 v -0.429 h -0.429 l 0.429,-0.429 0.428,-0.857 0.429,-1.287 H 14.155 V 30.455 L 12.869,29.168 11.582,28.739 11.153,28.31 10.724,27.881 v 0.429 h -0.429 v 0.429 L 9.866,29.168 9.008,30.455 8.579,31.313 H 8.15 7.721 L 7.292,31.742 6.434,32.599 5.576,32.171 H 5.148 L 4.29,31.742 3.861,31.313 3.432,30.884 H 3.003 2.574 L 2.145,30.455 1.716,30.026 V 29.597 L 1.287,29.168 V 28.739 H 0.858 V 28.31 L 0.429,27.881 0,28.31 -0.429,27.881 h -0.429 l -0.429,-0.429 v 0.429 l -0.429,0.429 v 0.429 h -0.429 v 0.429 h -0.429 v 0.429 l -0.429,0.429 -0.428,0.429 v 0.429 H -3.86 v 0.429 h -0.429 v 0.429 0.429 h -0.429 v 0.428 0.429 l -0.858,2.145 v 0.429 h -0.429 v 0.429 0.429 0.429 0.429 0.429 0.429 0.429 0.429 0.429 h 0.429 v 0.428 0.429 0.429 l 0.429,0.429 v 0.429 l 0.429,0.858 v 0.429 0.429 l 0.429,0.429 v 0.429 l 0.429,0.858 0.429,0.858 0.857,1.715 v 0.429 h 0.429 v 0.429 l 0.429,0.429 v 0.429 l 0.429,0.429 v 0.429 h 0.429 v 0.429 h 0.429 v 0.429 L 0,51.473 v 0.429 h 0.429 v 0.429 0.429 h 0.429 v 0.429 0.429 h 0.429 v 0.429 0.428 l 0.429,0.429 v 0.429 0.429 h 0.429 v 0.429 0.429 0.429 0.429 0.429 l -0.429,0.429 v 0.429 l -0.429,0.858 v 0.858 L 0.858,60.91 v 0.428 l -0.429,0.429 v 0.429 0.429 L 0,63.054 v 0.429 0.429 0.429 0.429 0.429 0.429 0.429 h -0.429 v 0.429 0.429 0.429 0.429 0.429 h -0.429 l 3.432,1.715 V 69.488 L 3.003,69.059 3.432,68.63 Z"
             style="fill:none;stroke:#343434;stroke-width:0.85039372;stroke-linecap:round;stroke-linejoin:bevel;stroke-miterlimit:4;stroke-dasharray:none;stroke-opacity:1"
             id="path288"
             inkscape:connector-curvature="0" />
        </g>
        <g
           id="g290"
           transform="translate(238.4919,198.1793)"
           style="stroke-width:0.85039372;stroke-miterlimit:4;stroke-dasharray:none">
          <path
             d="M 0,0 1.287,-1.287 V -1.716 L 1.716,-2.145 H 2.145 V -2.574 L 3.003,-3.431 3.432,-3.86 3.861,-4.718 H 4.29 l 0.858,-1.287 0.857,-0.858 0.429,-0.429 3.432,-3.86 0.429,-0.429 0.858,-0.858 0.429,-0.429 0.429,-0.429 0.858,-0.858 v -0.429 l 0.858,-0.858 0.857,-0.858 0.858,-0.857 0.429,-0.429 0.429,-0.429 0.429,-0.429 0.429,-0.429 3.003,-3.003 0.429,-0.858 1.715,-1.715 1.716,-1.716 0.858,-0.858 0.429,-0.429 0.429,-0.429 0.858,-0.858 0.858,-0.858 0.858,-0.858 v -0.429 h 0.429 l 0.429,-0.858 0.858,-0.429 0.429,-0.428 0.857,-0.858 1.287,-1.287 1.287,-1.287 0.858,-0.858 0.429,-0.429 v -0.429 l 0.858,-0.858 3.431,-3.431 0.429,-0.429 16.3,-16.3 0.858,-0.429 0.429,-0.429 0.858,-0.858 0.858,-0.857 0.429,-0.429 h 0.429 l 0.429,-0.858 0.429,-0.429 0.429,-0.429 0.858,-0.429 0.429,-0.858 0.858,-0.429 0.857,-0.858 0.858,-0.858 0.429,-0.429 0.429,-0.429 0.429,-0.428 h 0.429 l 0.429,-0.429 0.429,-0.858 h 0.429 l 0.429,-0.429 v -0.429 l 0.858,-0.429 0.858,-0.858 1.287,-1.287 -0.429,-0.429 -0.429,-0.429 -1.287,-1.286 h -0.429 l -0.858,0.857 -1.287,0.429 -0.858,0.429 -0.858,0.429 -0.429,0.429 h -0.429 l -1.286,0.429 -0.858,0.858 -0.858,0.429 h -0.429 l -0.858,0.858 -2.574,0.858 0.429,0.429 -0.858,0.429 -1.287,0.428 v 0.429 h -0.428 l -0.429,0.429 h -0.429 v 0.429 h -0.429 l -1.287,0.858 -3.003,1.716 h -0.429 v 0.429 H 48.9 48.471 v 0.429 h -0.429 -0.429 v 0.429 h -0.428 l -1.287,0.429 -1.716,0.858 -1.287,0.428 -0.858,0.429 -3.431,1.716 -2.145,0.858 -2.574,0.858 -1.716,0.858 -1.287,0.429 -3.002,1.287 -1.287,0.857 -0.858,0.429 -0.858,0.429 h -0.858 l -0.858,0.429 -1.286,0.429 -0.858,0.429 -0.858,0.429 -3.861,1.716 -0.429,0.429 h -0.429 v 0.429 h -0.429 -0.429 v 0.429 h -0.429 v 0.429 h -0.428 v 0.429 h -0.429 l -5.577,4.718 v 0.429 H 7.292 v 0.429 H 6.863 v 0.429 H 6.434 v 0.429 H 6.005 v 0.429 H 5.576 v 0.429 H 5.148 v 0.428 0.429 H 4.719 v 0.429 0.429 H 4.29 v 0.429 0.429 H 3.861 v 0.429 0.429 H 3.432 v 0.429 0.429 H 3.003 v 0.429 H 2.574 v 0.429 H 2.145 v 0.429 H 1.716 1.287 v 0.429 H 0.858 0.429 0 l -0.429,0.429 h -0.429 -0.858 v 0.429 h -0.429 -0.429 -0.429 v 0.429 h -0.428 v 0.428 H -3.86 v 0.429 h -0.429 v 0.43 0.428 h -0.429 v 0.429 0.429 0.429 0.429 0.429 l -0.429,1.287 v 0.429 0.429 0.429 h -0.429 v 0.429 0.428 0.43 l -0.858,1.286 v 0.429 h -0.429 v 0.429 0.429 h -0.429 l -0.429,0.429 H -8.15 v 0.429 h -0.429 -0.429 -0.429 v 0.429 h -0.429 -0.429 -0.429 -0.428 -0.429 v -0.429 h -0.429 -0.429 v -0.429 l -0.858,-0.429 h -0.429 v -0.429 -0.429 h -0.429 v 0.429 h -0.429 -0.429 -0.429 -0.429 -0.429 -0.429 -0.429 -0.429 -0.429 -0.429 v 0.429 h -0.429 -0.429 -0.428 v 0.429 h -0.429 v 0.429 h -0.429 v 0.429 h -0.429 v 0.429 h -0.429 v 0.429 l -0.429,0.429 v 0.429 l -0.429,0.858 v 0.429 h -0.429 v 0.429 l -0.429,0.429 -0.858,0.857 -0.429,0.429 v 0.429 h -0.429 v 0.429 h -0.429 v 0.429 h -0.429 v 0.429 l -0.429,0.429 v 0.429 0.429 h -0.429 v 0.429 0.429 0.429 0.429 0.429 0.429 0.428 0.429 0.429 0.429 0.429 h -0.429 v 0.429 l 0.429,0.429 h 0.429 l 0.429,0.429 0.429,-0.429 0.429,0.429 v 0.429 h 0.429 v 0.429 l 0.429,0.429 v 0.429 l 0.429,0.429 0.429,0.429 h 0.429 0.429 l 0.429,0.429 0.429,0.429 0.858,0.429 h 0.429 l 0.857,0.428 0.858,-0.857 0.429,-0.429 h 0.429 0.429 l 0.429,-0.858 0.858,-1.287 0.429,-0.429 v -0.429 h 0.429 v -0.429 l 0.429,0.429 0.429,0.429 1.287,0.429 1.287,1.287 v 0.429 h 0.429 l -0.429,1.287 -0.429,0.857 -0.429,0.429 h 0.429 v 0.429 h 0.429 v 0.429 l 2.144,1.716 1.287,0.858 1.287,0.858 0.429,0.429 h 0.429 v 0.429 l 2.145,1.715 0.857,-1.286 0.858,-1.287 1.287,-1.287 0.429,-0.429 z m -5.147,-27.452 v 0.429 0.429 0.429 h -0.429 v 0.429 0.428 0.43 l -0.858,1.286 v 0.429 h -0.429 v 0.429 0.429 h -0.429 l -0.429,0.429 H -8.15 v 0.429 h -0.429 -0.429 -0.429 v 0.429 h -0.429 -0.429 -0.429 -0.428 -0.429 v -0.429 h -0.429 -0.429 v -0.429 l -0.858,-0.429 h -0.429 v -0.429 -0.429 -0.429 l -0.429,-1.286 v -0.43 -0.428 -0.429 l -0.429,-0.429 -0.429,-0.858 -0.429,-0.858 v -0.429 l -0.429,-0.429 v -0.429 H -16.3 l -0.429,-1.287 v -0.428 h -0.429 v -0.43 l -0.858,-0.857 v -0.429 h -0.429 v -0.429 l -1.286,-1.716 -0.429,-0.429 -0.858,-0.429 v -0.429 -1.287 -0.429 -0.429 -0.858 l 1.287,-2.144 v -0.429 -0.429 l 0.428,-0.429 0.429,-0.858 h 0.429 v -0.429 l 0.429,-0.858 0.858,-3.002 h 0.429 v -0.858 -0.429 -0.429 l 0.429,-0.429 v -0.858 h 0.429 v -0.429 h 0.429 v -0.429 l 0.429,-0.429 0.429,-0.858 h 0.429 v -0.858 l 0.429,-0.428 0.429,-0.858 0.429,-0.429 0.858,-1.287 0.858,-0.858 1.286,-1.287 0.858,-1.287 0.858,-0.857 0.858,-0.858 0.858,-0.858 0.429,-0.429 h 0.429 0.858 v 0.429 l 0.429,2.144 v 0.429 0.429 l 1.286,0.858 0.858,0.429 v 0.429 l 0.429,0.429 v 0.429 h 0.429 v 0.429 l 0.429,0.429 h 0.429 L 0,-56.191 v 0.429 0.429 l 0.429,0.429 0.429,0.429 H 0.429 l -0.858,1.286 H 0 v 0.429 l 0.429,0.429 h 0.429 v 0.429 l 0.429,-0.429 v -0.429 h 0.429 v -0.429 h 0.429 v 0.429 h 0.429 l 0.858,-0.429 0.429,-0.429 h 0.858 v -0.429 h 0.429 l 0.857,-0.428 0.858,-0.429 h 0.429 v 0.429 h 0.429 v 0.428 l 0.858,1.287 0.429,0.429 h 0.429 v -0.429 h 0.429 0.429 v -0.429 0.429 0.429 h 0.429 v 0.429 h 0.429 0.429 0.429 l 0.429,-0.429 v 0.429 l 0.429,0.858 v 0.858 l 0.429,-0.429 0.429,-0.429 h 0.428 l 0.429,-0.429 h 0.858 l 0.429,-0.429 h 0.429 0.429 l 0.429,-0.429 h 0.429 0.429 0.429 v -0.429 h 0.429 0.429 v 0.429 h 0.429 v 0.429 h 0.429 v 0.429 -0.429 h 0.429 0.429 v 0.429 l -0.858,0.429 -3.861,1.716 -0.429,0.429 h -0.429 v 0.429 h -0.429 -0.429 v 0.429 h -0.429 v 0.429 h -0.428 v 0.429 h -0.429 l -5.577,4.718 v 0.429 H 7.292 v 0.429 H 6.863 v 0.429 H 6.434 v 0.429 H 6.005 v 0.429 H 5.576 v 0.429 H 5.148 v 0.428 0.429 H 4.719 v 0.429 0.429 H 4.29 v 0.429 0.429 H 3.861 v 0.429 0.429 H 3.432 v 0.429 0.429 H 3.003 v 0.429 H 2.574 v 0.429 H 2.145 v 0.429 H 1.716 1.287 v 0.429 H 0.858 0.429 0 l -0.429,0.429 h -0.429 -0.858 v 0.429 h -0.429 -0.429 -0.429 v 0.429 h -0.428 v 0.428 H -3.86 v 0.429 h -0.429 v 0.43 0.428 h -0.429 v 0.429 0.429 0.429 0.429 0.429 z m 22.305,-24.879 h 0.429 0.429 0.429 v -0.429 h 0.429 0.429 v 0.429 h 0.429 v 0.429 h 0.429 v 0.429 -0.429 h 0.429 0.429 v 0.429 l 0.858,-0.429 1.286,-0.429 0.858,-0.429 h 0.858 l 0.858,-0.429 0.858,-0.429 1.287,-0.857 3.002,-1.287 1.287,-0.429 1.716,-0.858 2.574,-0.858 2.145,-0.858 3.431,-1.716 0.858,-0.429 1.287,-0.428 1.716,-0.858 1.287,-0.429 h 0.428 v -0.429 h 0.429 0.429 v -0.429 h 0.429 0.429 v -0.429 h 0.429 l 3.003,-1.716 1.287,-0.858 h 0.429 v -0.429 h 0.429 l 0.429,-0.429 h 0.428 v -0.429 l 1.287,-0.428 0.858,-0.429 -0.429,-0.429 2.574,-0.858 0.858,-0.858 h 0.429 l 0.858,-0.429 0.858,-0.858 1.286,-0.429 h 0.429 l 0.429,-0.429 0.858,-0.429 0.858,-0.429 1.287,-0.429 0.858,-0.857 h 0.429 l 1.287,1.286 0.858,-0.858 11.581,-7.292 -1.716,-0.857 h -0.857 -0.429 l -0.429,-0.429 h -0.858 l -0.429,-0.429 H 78.069 77.64 77.211 l -1.716,-0.429 -1.287,-0.429 -0.858,-0.429 h -0.429 -0.429 l -0.857,-0.429 v 0.858 l -1.287,0.429 -0.858,0.858 h -0.429 v 0.429 h -0.429 l -0.429,0.429 h -0.429 l -0.429,-0.429 -0.429,-0.429 v -0.429 h -0.429 v -0.429 h -0.429 l -0.429,-0.429 V -84.93 H 65.2 v -0.429 l -0.429,-0.429 -0.429,-0.429 h -0.429 -0.428 -0.429 l -1.716,0.429 -0.858,0.429 -2.574,0.429 0.429,-0.429 h -0.429 l -0.429,0.429 H 57.05 56.621 v 0.429 h -0.429 v 0.858 -0.429 -0.429 -0.429 h 0.429 v -0.429 l -0.429,-0.429 v -0.429 -0.429 -0.429 l -0.429,-0.429 -0.428,-0.429 -0.429,-0.429 -0.429,-0.429 -0.429,-0.428 -0.429,-0.429 -0.429,-0.429 -0.429,-0.429 v -0.429 h -0.429 v -0.429 l -0.429,-0.429 -0.858,-0.429 -0.429,-0.429 -0.429,-0.429 -0.429,-0.429 -0.429,-0.429 v -0.429 H 48.9 v -0.429 h -0.429 l -0.429,-0.429 v -0.429 h -0.429 v -0.429 -0.428 h 0.429 -0.429 v -0.429 h -0.428 l -0.429,-0.429 v -0.429 h -0.429 v -0.429 l -0.429,-0.429 -0.429,-0.429 -0.858,-0.429 -0.429,-0.858 h -0.429 l -0.858,-0.429 v -0.429 l -0.429,-0.429 h -0.429 v -0.429 h -0.429 l -0.429,-0.429 -0.429,-0.429 -0.429,-0.429 h -0.429 v -0.428 h -0.429 v -0.429 h -0.428 -0.429 v -0.429 H 38.177 37.748 L 36.89,-105.09 H 36.461 36.032 35.603 35.174 33.029 32.6 32.171 31.742 l -0.429,-0.429 H 30.884 30.456 29.598 28.74 27.882 26.166 l -0.429,-0.429 h -0.429 -0.429 v 0.429 l -0.429,0.858 -0.429,0.858 v 0.428 l -0.429,0.429 v 0.429 l -0.429,0.429 v 0.429 l -0.429,0.429 v 0.429 0.429 h -0.429 v 0.429 l -0.428,1.287 -0.858,1.287 v 0.429 l -0.429,0.857 -0.429,0.429 v 0.429 l -0.858,0.858 v 0.429 l -0.429,0.429 -0.858,0.858 v 0.429 l -0.429,0.429 h -0.429 v 0.429 l -0.429,0.429 -0.429,0.858 -0.429,0.429 -0.429,0.429 v 0.428 h -0.429 v 0.429 h -0.429 l -0.429,0.858 -0.428,0.858 -0.858,0.429 v 0.429 l -0.429,0.429 v 0.429 h -0.429 l -0.429,0.429 v 0.429 l -0.429,0.429 v 0.429 h -0.429 l -0.858,1.286 -1.287,1.716 -0.858,1.287 H 7.292 v 0.429 H 6.863 v 0.429 l -0.858,0.858 v 0.429 H 5.576 v 0.429 l -0.428,0.429 v 0.429 L 4.29,-74.636 H 3.861 v 0.429 l -0.429,0.858 H 3.003 v 0.429 l -0.858,0.858 -0.429,0.429 -0.858,0.858 v 0.429 l -1.287,0.858 v 0.429 l -0.858,0.858 h -0.429 l -0.429,0.857 h -0.429 v 0.429 h -0.429 l -0.857,0.858 v 0.429 l -0.429,0.429 h -0.429 v 0.429 l -0.429,0.429 -0.429,0.429 h -0.429 v 0.429 h 0.429 0.858 v 0.429 l 0.429,2.144 v 0.429 0.429 l 1.286,0.858 0.858,0.429 v 0.429 l 0.429,0.429 v 0.429 h 0.429 v 0.429 l 0.429,0.429 h 0.429 L 0,-56.191 v 0.429 0.429 l 0.429,0.429 0.429,0.429 H 0.429 l -0.858,1.286 H 0 v 0.429 l 0.429,0.429 h 0.429 v 0.429 l 0.429,-0.429 v -0.429 h 0.429 v -0.429 h 0.429 v 0.429 h 0.429 l 0.858,-0.429 0.429,-0.429 h 0.858 v -0.429 h 0.429 l 0.857,-0.428 0.858,-0.429 h 0.429 v 0.429 h 0.429 v 0.428 l 0.858,1.287 0.429,0.429 h 0.429 v -0.429 h 0.429 0.429 v -0.429 0.429 0.429 h 0.429 v 0.429 h 0.429 0.429 0.429 l 0.429,-0.429 v 0.429 l 0.429,0.858 v 0.858 l 0.429,-0.429 0.429,-0.429 h 0.428 l 0.429,-0.429 h 0.858 l 0.429,-0.429 h 0.429 0.429 z m 61.34,99.086 h 0.858 0.429 l 1.286,-1.287 0.858,-0.429 0.858,-0.858 h 0.429 v -0.858 l -0.858,-2.574 0.429,-0.429 h 1.716 l 1.287,-0.428 h 1.287 v -0.429 l 0.429,-0.858 0.429,-0.429 0.429,-1.287 h 0.857 V 36.46 l 0.858,-0.429 1.287,-0.429 h 0.858 l 1.287,-0.429 0.858,-0.429 h 0.429 0.429 0.429 l 0.858,-0.429 h 0.858 l 0.428,0.858 0.858,0.429 0.858,0.429 1.287,0.429 h 0.858 1.287 l 1.287,-0.429 h 0.858 l 0.857,-0.429 h 1.287 l 0.858,-0.429 v -0.429 l -0.429,-0.858 -0.429,-0.429 V 33.028 32.6 l -0.429,-0.429 v -0.429 -0.429 l -0.429,-0.429 v -0.429 -0.429 l -0.429,-0.429 v -0.858 l -0.428,-0.429 v -0.858 l -0.429,-0.429 v -0.429 l -0.429,-0.858 V 25.308 24.879 24.45 24.021 l -0.429,-0.858 v -1.287 -0.858 -0.429 l -0.43,-0.429 v -0.858 -0.429 -0.428 -0.429 l -0.429,-0.858 -0.428,-0.858 v -0.429 -0.858 -0.429 l -0.429,-0.858 v -0.858 -0.429 h 1.286 0.859 0.429 2.144 0.858 0.858 V 11.153 10.295 9.866 9.437 l 0.858,-0.429 1.287,-0.429 1.286,-0.429 V 7.721 7.292 L 111.955,6.434 V 6.005 L 111.526,5.147 V 3.861 L 111.098,3.432 V 2.574 h -0.429 L 110.24,1.287 V 0 l -0.429,-0.858 v -0.858 -0.429 l -0.429,-1.286 -0.429,-1.287 v -1.287 l -0.429,-1.287 V -8.15 l -0.429,-1.287 v -1.286 l -0.429,-1.287 0.429,-0.858 v -0.429 -0.858 -0.429 l -0.429,-1.287 v -1.715 l -0.429,-1.287 -0.429,-1.287 -0.429,-1.287 -0.857,-1.287 -0.429,-0.858 v -0.429 l -0.429,-0.428 -0.429,-1.287 -0.43,-0.858 -0.429,-0.858 -0.428,-0.429 -0.429,-0.858 -0.429,-0.858 -0.429,-0.429 v -0.429 l -0.429,-0.857 v -0.43 -0.429 -0.428 l -0.858,-1.716 v -0.429 -0.429 -0.429 l 0.429,-0.429 v -0.429 l 0.429,-0.429 v -0.429 l 0.429,-0.429 0.429,-1.287 0.429,-0.857 v -0.858 l 0.429,-0.858 0.428,-0.858 v -0.429 l 0.859,-1.287 v -1.287 -0.429 l -0.43,-0.858 -0.429,-0.428 v -0.429 h -0.428 v -0.429 -0.429 l -0.429,-1.287 -0.429,-0.429 v -0.429 l -0.429,-1.716 v -0.858 -1.286 h 0.429 v -0.429 h 0.429 0.857 l 0.429,-0.429 h 0.43 v -0.429 h 0.429 l -0.429,-0.429 -0.43,-1.287 -0.429,0.429 -0.428,0.429 h -0.429 l -0.429,0.429 v 0.429 h -0.429 l -0.429,0.429 -0.429,-1.716 v -0.429 -0.429 -0.429 -0.429 -0.429 l -0.429,-0.429 v -0.429 -0.429 -0.429 -0.857 l 0.429,-0.429 v -0.429 h 0.429 v -0.429 h 0.429 l 0.429,-0.429 v -0.429 l 0.429,-0.429 h 0.429 v -0.429 l 0.857,-0.429 h -1.286 l -0.858,0.429 h -0.429 l -0.429,0.429 h -0.429 l 0.429,-1.287 0.429,-0.429 h 0.429 l 0.858,-0.429 h 0.429 l 0.857,0.858 h 0.43 0.429 0.429 l 0.429,-0.429 1.286,-0.429 v 0.429 l -0.429,0.429 v 0.429 l -0.429,0.858 v 0.429 h -0.428 l -0.858,0.429 h -0.429 l -0.43,0.429 v 0.429 0.429 l 0.43,0.429 h 0.858 0.429 0.428 0.429 0.429 l 0.429,0.429 v 0.428 0.429 l 0.429,-0.429 h 0.429 0.429 0.429 l 0.429,-0.428 h 0.429 l 0.429,-0.429 v -0.429 -0.429 -0.429 h 0.429 v -0.429 -0.858 l 0.429,-0.858 v -0.429 -0.429 h 0.428 v -0.429 l -0.428,-0.858 v -0.429 h -0.429 -0.429 -0.429 -0.429 l -0.429,-0.428 -0.429,0.428 h -0.429 v -0.857 l 0.429,-0.858 0.429,-0.429 v -0.429 -0.429 -0.429 l 0.429,-1.716 0.858,-0.429 0.429,-0.429 v -0.429 -1.286 -0.429 l 0.429,-0.429 0.428,-0.429 0.858,-0.858 0.43,-0.429 v -0.429 h 0.429 1.286 l 0.858,-0.429 -0.429,0.429 v 0.429 l -0.429,0.429 -0.429,0.429 -0.428,0.429 v 0.429 0.429 h 0.428 0.858 0.429 0.858 l 0.429,-0.429 0.429,-0.858 h 0.429 v -0.429 l 0.429,-0.429 v -0.429 h 0.429 v -0.429 -0.429 h 0.429 l 0.429,-0.858 h 0.429 l 0.428,0.429 0.429,0.858 0.429,0.429 h 0.43 l 0.858,0.429 0.429,0.429 0.857,0.858 h 0.858 0.429 0.429 0.429 0.429 v 0.429 l 0.429,-0.429 h 0.429 l 1.287,-0.429 0.857,-0.858 0.429,-0.429 v -0.429 l 0.859,-0.858 v -0.858 -0.858 -0.429 -0.428 -0.429 l -0.429,-0.429 v -0.429 -0.429 l -0.859,-0.858 -0.429,-0.858 -0.428,-0.429 h 0.428 v -0.429 -0.429 h 0.429 l 0.429,-0.429 h 0.43 v -0.429 l 0.429,-0.429 v -0.429 l 0.429,-0.428 0.428,-0.429 v -0.858 -0.858 -0.429 -0.429 -0.429 -0.429 -0.429 -0.429 -0.858 -0.429 -0.429 -0.429 -0.428 -1.716 -0.429 l -0.428,-1.287 v -0.429 -0.429 -0.858 -1.287 -0.429 -0.428 -0.429 -0.429 -0.429 -0.429 -0.429 -0.429 -0.429 -0.429 l -0.429,-0.429 v -0.429 -0.429 h -0.859 l -1.286,0.858 h -0.429 -0.429 v 0.429 h -0.429 -0.429 l -0.429,0.429 h -0.858 l -0.858,0.429 -0.429,0.429 h -0.429 l -0.429,0.429 h -0.857 l -0.858,0.429 -1.716,0.429 -0.429,0.429 h -0.429 l -0.429,0.429 h -0.429 -0.429 l -0.429,0.428 h -0.429 -0.429 l -0.429,0.429 h -0.429 -0.858 l -0.429,0.429 h -0.428 -0.429 v 0.429 h -0.859 -0.429 l -0.429,0.429 h -0.428 -0.429 -0.429 l -0.858,0.429 h -0.429 v 0.429 h -0.858 -0.429 l -0.429,0.429 h -0.429 l -0.429,0.429 h -0.429 -0.428 v 0.429 h -0.429 l -0.429,0.429 h -0.429 v 0.429 h -0.43 v 0.429 h -0.429 l -0.428,0.429 -0.429,0.429 -0.429,0.429 -0.429,0.429 -0.858,0.857 -0.429,0.858 -1.287,1.287 h -0.429 l -0.429,0.429 -0.429,0.429 -0.428,0.429 -1.287,1.287 -0.429,0.429 -0.858,1.287 -0.429,0.428 H 93.94 l -0.429,0.858 h -0.429 v 0.429 h -0.429 v 0.429 h -0.429 l -0.429,0.429 -0.429,0.429 h -0.429 l -0.429,0.429 -0.858,0.429 v 0.429 h -0.857 v 0.429 l -1.287,0.429 -0.859,0.858 h -0.428 v 0.429 H 85.79 85.361 l -2.145,0.857 -11.581,7.292 -0.858,0.858 0.429,0.429 0.429,0.429 -1.287,1.287 -0.858,0.858 -0.858,0.429 v 0.429 l -0.429,0.429 h -0.429 l -0.429,0.858 -0.429,0.429 h -0.429 l -0.429,0.428 -0.429,0.429 -0.429,0.429 -0.858,0.858 -0.857,0.858 -0.858,0.429 -0.429,0.858 -0.858,0.429 -0.429,0.429 -0.429,0.429 -0.429,0.858 h -0.429 l -0.429,0.429 -0.858,0.857 -0.858,0.858 -0.429,0.429 -0.858,0.429 -16.3,16.3 -0.429,0.429 -3.431,3.431 -0.858,0.858 v 0.429 l -0.429,0.429 -0.858,0.858 -1.287,1.287 -1.287,1.287 -0.857,0.858 -0.429,0.428 -0.858,0.429 -0.429,0.858 h -0.429 v 0.429 l -0.858,0.858 -0.858,0.858 -0.858,0.858 -0.429,0.429 -0.429,0.429 -0.858,0.858 -1.716,1.716 -1.715,1.715 -0.429,0.858 -3.003,3.003 -0.429,0.429 -0.429,0.429 -0.429,0.429 -0.429,0.429 -0.858,0.857 -0.857,0.858 -0.858,0.858 v 0.429 l -0.858,0.858 -0.429,0.429 -0.429,0.429 -0.858,0.858 -0.429,0.429 -3.432,3.86 -0.429,0.429 -0.857,0.858 -0.858,1.287 H 3.861 L 3.432,-3.86 3.003,-3.431 2.145,-2.574 v 0.429 H 1.716 l -0.429,0.429 v 0.429 L 0,0 -0.429,0.858 -0.858,1.287 -2.145,2.574 -3.003,3.861 -3.86,5.147 h 0.429 l 0.428,0.429 1.287,1.287 1.287,0.858 L 0,8.15 -0.429,8.579 v 0.429 0.429 h -0.429 v 0.429 h 0.429 v 0.429 0.429 H 0 0.429 0.858 1.287 1.716 2.145 3.003 v 0.429 H 3.432 3.861 4.29 v 0.428 h 0.429 v 0.429 h 0.429 v 0.429 h 0.428 0.429 v 0.429 0.429 h 0.429 v 0.429 h 0.429 v 0.858 l 0.429,0.429 1.287,0.429 2.574,0.429 h 0.429 0.858 0.429 0.429 0.429 0.857 0.429 0.429 0.429 0.429 0.429 0.429 l 0.429,0.429 h 0.429 0.429 v 0.429 1.287 1.286 1.716 l 0.429,1.287 v 0.429 -0.429 l 0.858,-0.429 h 0.429 0.429 v 0.429 0.429 0.429 l 0.429,0.429 v 0.858 h 0.429 v 0.429 0.429 h 0.429 v 0.428 0.429 h 0.428 v 0.429 0.429 h 0.429 v 0.429 0.429 l 0.429,0.429 v 0.429 l 0.429,0.429 v 0.429 l 0.429,0.429 v 0.429 0.429 h 0.429 v -0.429 l 0.429,0.429 h 0.429 0.429 0.429 v 0.429 h 0.429 -0.429 l -0.858,1.715 v 0.429 l 1.716,0.429 h 0.429 0.429 0.429 0.429 0.429 0.858 0.429 v -0.429 h 0.428 0.429 1.287 v 0.429 h 0.429 v -0.429 h 0.429 v -0.429 l 0.858,-0.857 0.858,-1.287 0.858,1.716 v 0.428 h 0.429 v 0.429 0.429 h 0.429 v 0.858 h 0.429 v 0.429 h 0.429 v 0.429 h 0.429 l 0.429,0.429 v 0.429 h 0.429 v 0.429 h 0.428 l 0.429,0.429 v 0.429 h 0.429 l 0.429,0.429 0.858,0.429 v 0.429 l 0.429,0.429 h 0.429 v 0.429 h 0.429 v 0.428 h 0.429 l 0.429,0.429 v 0.429 h 0.429 l 0.429,0.429 v 0.429 h 0.429 l 0.429,0.429 0.429,0.429 h 0.429 v 0.429 l 0.429,0.429 h 0.429 v 0.429 h 0.428 v 0.429 h 0.429 v 0.429 h 0.429 l 0.429,0.429 h 0.429 v 0.429 h 0.429 l 0.429,0.429 h 0.429 v 0.429 l 0.429,0.428 0.429,0.429 0.429,0.429 0.429,0.429 0.429,0.429 v -0.429 0.429 h 0.429 0.429 0.429 V 48.47 h 0.429 0.429 v -0.429 h 0.429 0.428 v -0.429 h 0.429 l 0.429,-0.429 h 1.287 l 0.858,-0.428 -0.429,0.857 v 0.429 h 0.429 v 0.429 0.429 0.429 0.429 l 0.429,0.429 v 0.429 l 0.429,0.429 0.429,1.287 v 0.429 0.429 l 0.429,0.429 v 0.428 h -0.429 v 1.287 l -0.429,0.429 v 0.429 0.429 0.429 h 0.429 v 0.429 h -0.429 v 0.429 0.429 0.429 0.429 h -0.429 v 0.429 0.429 0.429 0.428 0.429 h -0.429 v 0.429 0.429 0.429 0.429 0.429 0.429 h -0.429 v 0.429 0.429 0.429 0.429 0.429 0.858 0.858 l 0.429,0.857 v 0.429 0.429 h -0.429 0.429 0.429 l 0.858,-0.429 h 0.429 0.429 0.429 0.429 0.429 0.429 0.429 0.429 0.428 l 0.429,-0.429 h 0.429 0.858 1.287 0.858 1.287 0.429 l 0.429,-0.429 v -0.428 l 0.858,-0.429 h 0.429 l 0.429,-0.429 h 0.429 0.428 l 0.429,-0.429 h 0.429 l 0.429,-0.429 h 0.429 0.429 l 0.429,-0.429 0.858,-0.429 h 0.429 l 0.858,-0.429 0.858,-0.429 0.429,-0.429 0.858,-0.429 h 0.429 l 0.858,-0.429 0.857,-0.429 1.287,-0.429 -0.429,-0.858 h 0.429 l 0.429,-0.429 0.429,-0.428 h 0.429 L 83.216,58.765 V 58.336 57.907 L 82.787,56.62 82.358,56.191 V 55.762 L 81.929,55.333 H 81.5 V 54.904 L 80.643,53.618 V 53.189 L 80.214,52.76 79.785,51.902 79.356,51.473 78.927,50.186 78.498,49.328 78.069,48.47 77.64,47.183 h 0.429 z"
             style="fill:none;stroke:#192c3a;stroke-width:0.85039372;stroke-linecap:round;stroke-linejoin:bevel;stroke-miterlimit:4;stroke-dasharray:none;stroke-opacity:1"
             id="path292"
             inkscape:connector-curvature="0" />
        </g>
      </g>
    </g>
  </g>
</svg>
