<?xml version="1.0" encoding="utf-8"?>
<!-- Generator: Adobe Illustrator 26.0.3, SVG Export Plug-In . SVG Version: 6.00 Build 0)  -->
<svg version="1.1" id="Ebene_1" xmlns="http://www.w3.org/2000/svg" xmlns:xlink="http://www.w3.org/1999/xlink" x="0px" y="0px"
	 viewBox="0 0 91.31 116.29" style="enable-background:new 0 0 91.31 116.29;" xml:space="preserve">
<style type="text/css">
	.st0{fill:#FBD3AB;}
	.st1{fill:#162A39;}
	.st2{fill:#9B9F9A;}
	.st3{fill:#EBEBEC;}
	.st4{fill:none;stroke:#162B3A;stroke-width:0.3033;stroke-miterlimit:10;}
	.st5{fill:#162B3A;stroke:#162B3A;stroke-width:0;stroke-miterlimit:10;}
	.st6{fill:none;stroke:#162B3A;stroke-width:0.1468;stroke-miterlimit:10;}
	.st7{fill:none;stroke:#162B3A;stroke-width:0.1234;stroke-miterlimit:10;}
	.st8{fill:#162B3A;}
	.st9{fill:none;stroke:#162B3A;stroke-width:0.3014;stroke-miterlimit:10;}
	.st10{fill:none;stroke:#162B3A;stroke-width:0.2918;stroke-miterlimit:10;}
	.st11{fill:#162B3A;stroke:#162B3A;stroke-width:0.0729;stroke-miterlimit:10;}
	.st12{fill:none;stroke:#162B3A;stroke-width:0.3043;stroke-miterlimit:10;}
	.st13{fill:#162B3A;stroke:#162B3A;stroke-width:0.1473;stroke-miterlimit:10;}
	.st14{fill:none;stroke:#162B3A;stroke-width:0.6281;stroke-linecap:round;stroke-miterlimit:10;}
	.st15{fill:none;stroke:#162B3A;stroke-width:0.628;stroke-linecap:round;stroke-miterlimit:10;}
	.st16{fill:none;stroke:#162B3A;stroke-width:0.6559;stroke-linecap:round;stroke-miterlimit:10;}
</style>
<g>
	<path class="st0" d="M45.46,86.03c0,0-0.22-1.97-1.14-4.65c-0.92-2.68-4.86-7.65-6.35-9.07c-1.49-1.42-2.26-1.72-3.92-4.24
		c-1.66-2.52-2.53-6.18-2.53-6.18l-1.88-4.8l-1.01-6.32l-1.46-4.27c0.54-2.03,2.21-1.62,2.21-1.62s1.57,0.28,2.24,0.99
		c0.68,0.71,1.81,2.25,2.14,2.94c0.33,0.69,0.45,4.78,0.9,6.26c0.45,1.48,1.6,3.64,2.32,3.76c0.72,0.12,4.02-2.03,4.02-2.03
		s8.4-16.89,8.27-17.87c-0.13-0.99,1.03-2.19,1.79-3.15c0.76-0.96,2.19-1.57,2.86-1.08c1.34,0.97,1.36,2.45,1.27,3.42
		c-0.1,0.97-1.95,5.22-1.95,5.22l-1.86,4.5c0,0,1.73-1.27,2.61-1.78c0.88-0.5,2.43-1.07,3.52-0.85c1.1,0.22,1.79,0.85,1.79,0.85
		s0.98,0.77,1.01,2.01c0.04,1.24-1,2.62-1,2.62l-3.04,1.99l2.72-1.76c0,0,1.53-0.04,2.53,0.86c1,0.9,1.6,2.03,1.47,3.2
		c-0.14,1.17-1.33,2.43-1.33,2.43l0.75-0.1c0,0,0.91,0.05,1.7,0.61c0.8,0.56,1.22,1.34,1.35,2.56c0.13,1.22-0.41,1.85-1.22,2.9
		c-0.81,1.05-1.63,1.55-3.19,1.13c-1.56-0.42-1.79-1.66-1.79-1.66l0.88,3.52l-2.25,4.47l0.7,4.85l2.79,10.35L45.46,86.03z"/>
	<g>
		<path class="st1" d="M61.76,65.31c0.66,1.56-0.07,3.37-1.63,4.04l-13.63,5.8c-1.56,0.66-3.37-0.07-4.04-1.63L27.94,39.36
			c-0.66-1.56,0.07-3.37,1.63-4.04l13.63-5.8c1.56-0.66,3.37,0.07,4.04,1.63L61.76,65.31z"/>
	</g>
	<g>
		<path class="st2" d="M38.83,34.39c0.07,0.16-0.01,0.34-0.16,0.4l-2.22,0.95c-0.16,0.07-0.34-0.01-0.4-0.16l-0.01-0.02
			c-0.07-0.16,0.01-0.34,0.16-0.4l2.22-0.94c0.16-0.07,0.34,0.01,0.4,0.16L38.83,34.39z"/>
	</g>
	<path class="st0" d="M30.3,45.12c0,0,1.34,0.55,2.05,1.28c0.55,0.56,0.98,1.68,0.98,1.68s0.33,0.9,0.44,1.59
		c0.11,0.69,1.48,6.94,1.48,6.94l-2.49-4.36L30.3,45.12z"/>
	
		<rect x="36.26" y="36.01" transform="matrix(0.9202 -0.3914 0.3914 0.9202 -17.062 21.8422)" class="st3" width="17.56" height="33.51"/>
	<g>
		<g>
			<path class="st4" d="M44.74,42.06c0.81,1.96-0.13,4.21-2.09,5.01c-1.96,0.81-4.21-0.13-5.01-2.09c-0.81-1.96,0.13-4.21,2.09-5.01
				C41.69,39.16,43.93,40.1,44.74,42.06z"/>
			<path class="st5" d="M41.1,40.63c-0.06,0.02-1.75,0.72-1.87,0.77c-0.11,0.05-0.3,0.18-0.19,0.44c0.11,0.26,1.72,4.18,1.78,4.32
				c0.06,0.15,0.18,0.34,0.44,0.23c0.26-0.11,1.63-0.67,1.88-0.77s0.2-0.41,0.18-0.47c-0.02-0.06-1.65-4.02-1.77-4.31
				C41.41,40.54,41.15,40.61,41.1,40.63z M43.02,45.16l-2.02,0.83l-1.66-4.04l2.02-0.83L43.02,45.16z"/>
			<path class="st6" d="M40.04,46.33c-0.72-0.34-1.32-0.93-1.64-1.72c-0.34-0.83-0.32-1.73,0-2.5"/>
			<path class="st6" d="M42.11,40.53c0.8,0.32,1.47,0.95,1.82,1.8c0.26,0.64,0.31,1.31,0.17,1.94"/>
			<path class="st7" d="M40.26,45.89c-0.6-0.28-1.11-0.78-1.38-1.45c-0.29-0.7-0.27-1.45,0-2.1"/>
			<path class="st7" d="M41.91,41.05c0.67,0.27,1.23,0.79,1.53,1.51c0.25,0.61,0.27,1.26,0.09,1.85"/>
			<polygon class="st5" points="41.02,42.73 40.79,43.77 41.16,43.62 41.31,44.24 41.45,43.28 41.17,43.39 			"/>
		</g>
		<g>
			<path class="st4" d="M48.07,50.2c0.81,1.96-0.13,4.21-2.09,5.01c-1.96,0.81-4.21-0.13-5.01-2.09c-0.81-1.96,0.13-4.21,2.09-5.01
				C45.02,47.3,47.26,48.24,48.07,50.2z"/>
			<path class="st8" d="M45.16,50.1l-0.44,0.18l-0.52-1.26l-1.34,0.55l0.52,1.26L42.95,51l0.95,2.3l0.73-0.3l0.28,0.67l0.25-0.1
				l0.38,0.93l0.27-0.11l-0.38-0.93l0.24-0.1l-0.28-0.67l0.72-0.3L45.16,50.1z M43.91,49.72l0.28-0.12l0.15,0.36l-0.28,0.12
				L43.91,49.72z M43.32,49.97l0.28-0.12l0.15,0.36l-0.28,0.12L43.32,49.97z M44.61,52.09l-0.1-0.4l-0.24,0.1l0.15-0.67l0.09,0.42
				l0.18-0.07L44.61,52.09z"/>
		</g>
		<g>
			<path class="st9" d="M51.32,58.38c0.8,1.95-0.13,4.18-2.08,4.98c-1.95,0.8-4.18-0.13-4.98-2.08c-0.8-1.95,0.13-4.18,2.08-4.98
				C48.28,55.5,50.52,56.43,51.32,58.38z"/>
			<path class="st10" d="M48.85,58.22C49,58.6,49,59.01,48.87,59.37c-0.15,0.41,0.52,1.41-0.54,1.84c-1.1,0.45-1.41-0.76-1.83-1.01
				c-0.28-0.17-0.51-0.42-0.64-0.75c-0.33-0.81,0.07-1.74,0.9-2.08C47.58,57.04,48.52,57.42,48.85,58.22z"/>
			<path class="st11" d="M49.13,61.32c0.02,0.04,0,0.09-0.05,0.11l-1.18,0.48c-0.04,0.02-0.09,0-0.11-0.05l0,0
				c-0.02-0.04,0-0.09,0.05-0.11l1.18-0.48C49.06,61.25,49.11,61.27,49.13,61.32L49.13,61.32z"/>
			<path class="st11" d="M49.25,61.62c0.02,0.04,0,0.09-0.05,0.11l-1.18,0.48c-0.04,0.02-0.09,0-0.11-0.05l0,0
				c-0.02-0.04,0-0.09,0.05-0.11l1.18-0.48C49.19,61.56,49.24,61.58,49.25,61.62L49.25,61.62z"/>
			<path class="st11" d="M48.96,61.99c0.05,0.11-0.05,0.26-0.2,0.32c-0.16,0.07-0.32,0.03-0.37-0.08L48.96,61.99z"/>
		</g>
		<g>
			<path class="st12" d="M54.78,66.54c0.8,1.97-0.15,4.22-2.12,5.02c-1.97,0.8-4.22-0.15-5.02-2.12c-0.8-1.97,0.15-4.22,2.12-5.02
				C51.73,63.61,53.98,64.56,54.78,66.54z"/>
			<circle class="st13" cx="51.95" cy="69.89" r="0.85"/>
			<path class="st14" d="M49.15,69.1c-0.01-0.91,0.6-1.81,1.59-2.21c0.99-0.4,2.06-0.18,2.68,0.48"/>
			<path class="st15" d="M50.08,69.76c-0.01-0.67,0.44-1.33,1.16-1.62c0.72-0.29,1.51-0.13,1.97,0.36"/>
			<path class="st16" d="M48.37,68.03c0.03-0.93,0.77-1.89,1.9-2.35c1.14-0.46,2.33-0.29,3,0.36"/>
		</g>
	</g>
	<path class="st0" d="M49.8,37.24c0,0-0.58,2.92-0.53,3.94c0.08,1.48,1.12,1.79,1.12,1.79c1.51,0.35,2.36-0.89,2.36-0.89l1.9-2.23
		l-3.48-4.18L49.8,37.24z"/>
	<path class="st0" d="M54.73,46.29l-1.83,1.77c0,0-1.39,1.87-1.41,2.8c-0.02,0.92,0.76,1.83,1.02,2.12
		c0.26,0.29,0.48,0.49,1.56,0.67c1.08,0.18,4.27-2.79,4.27-2.79L54.73,46.29z"/>
	<path class="st0" d="M56.94,53.38c0,0-0.65,0.52-1.25,1.35c-0.59,0.84-1.08,1.69-0.99,2.84c0.09,1.15,0.64,1.44,1.05,1.7
		c0.41,0.25,1.08,0.64,1.83,0.75c0.75,0.11,3.18-2.22,3.18-2.22L56.94,53.38z"/>
	<path class="st0" d="M59.62,59.97c0,0-0.58,1.11-0.75,1.92c-0.17,0.81,0,1.45,0.29,1.97c0.29,0.51,1.02,0.83,1.76,0.92
		c0.74,0.08,1.84-0.2,1.84-0.2l1.24-1.17L59.62,59.97z"/>
</g>
</svg>
