<?xml version="1.0" encoding="UTF-8" standalone="no"?>
<!-- Generator: Adobe Illustrator 26.0.3, SVG Export Plug-In . SVG Version: 6.00 Build 0)  -->

<svg
   xmlns:dc="http://purl.org/dc/elements/1.1/"
   xmlns:cc="http://creativecommons.org/ns#"
   xmlns:rdf="http://www.w3.org/1999/02/22-rdf-syntax-ns#"
   xmlns:svg="http://www.w3.org/2000/svg"
   xmlns="http://www.w3.org/2000/svg"
   xmlns:sodipodi="http://sodipodi.sourceforge.net/DTD/sodipodi-0.dtd"
   xmlns:inkscape="http://www.inkscape.org/namespaces/inkscape"
   version="1.1"
   id="Ebene_1"
   x="0px"
   y="0px"
   viewBox="0 0 27.1929 27.1929"
   xml:space="preserve"
   sodipodi:docname="lights.svg"
   width="27.1929"
   height="27.1929"
   inkscape:version="0.92.5 (2060ec1f9f, 2020-04-08)"><metadata
   id="metadata21"><rdf:RDF><cc:Work
       rdf:about=""><dc:format>image/svg+xml</dc:format><dc:type
         rdf:resource="http://purl.org/dc/dcmitype/StillImage" /></cc:Work></rdf:RDF></metadata><defs
   id="defs19" /><sodipodi:namedview
   pagecolor="#ffffff"
   bordercolor="#666666"
   borderopacity="1"
   objecttolerance="10"
   gridtolerance="10"
   guidetolerance="10"
   inkscape:pageopacity="0"
   inkscape:pageshadow="2"
   inkscape:window-width="1920"
   inkscape:window-height="1043"
   id="namedview17"
   showgrid="false"
   inkscape:zoom="4.4832827"
   inkscape:cx="13.19645"
   inkscape:cy="11.84645"
   inkscape:window-x="3840"
   inkscape:window-y="0"
   inkscape:window-maximized="1"
   inkscape:current-layer="Ebene_1" />
<style
   type="text/css"
   id="style2">
	.st0{fill:none;stroke:#172B3A;stroke-width:1.0329;stroke-miterlimit:10;}
	.st1{fill:none;stroke:#172B3A;stroke-miterlimit:10;}
	.st2{fill:#172B3A;stroke:#172B3A;stroke-width:0.25;stroke-miterlimit:10;}
</style>
<g
   id="g14"
   transform="translate(-18.53355,-10.97355)">
	<path
   class="st0"
   d="m 45.21,24.57 c 0,7.22 -5.86,13.08 -13.08,13.08 -7.23,0 -13.08,-5.86 -13.08,-13.08 0,-7.23 5.86,-13.08 13.08,-13.08 7.22,0 13.08,5.86 13.08,13.08 z"
   id="path4"
   inkscape:connector-curvature="0"
   style="fill:none;stroke:#172b3a;stroke-width:1.03289998;stroke-miterlimit:10" />
	<path
   class="st1"
   d="m 37.73,20.87 c 0,1.4 -0.54,2.67 -1.43,3.64 -1.02,1.1 -0.17,5.14 -4.12,5.14 -4.09,0 -3.48,-4.23 -4.49,-5.58 -0.67,-0.9 -1.07,-2 -1.07,-3.2 0,-3 2.49,-5.42 5.56,-5.42 3.06,0 5.55,2.43 5.55,5.42 z"
   id="path6"
   inkscape:connector-curvature="0"
   style="fill:none;stroke:#172b3a;stroke-miterlimit:10" />
	<path
   class="st2"
   d="m 34.59,31.05 c 0,0.16 -0.13,0.29 -0.29,0.29 h -4.38 c -0.16,0 -0.29,-0.13 -0.29,-0.29 v 0 c 0,-0.16 0.13,-0.29 0.29,-0.29 h 4.38 c 0.16,-0.01 0.29,0.12 0.29,0.29 z"
   id="path8"
   inkscape:connector-curvature="0"
   style="fill:#172b3a;stroke:#172b3a;stroke-width:0.25;stroke-miterlimit:10" />
	<path
   class="st2"
   d="m 34.59,32.17 c 0,0.16 -0.13,0.29 -0.29,0.29 h -4.38 c -0.16,0 -0.29,-0.13 -0.29,-0.29 v 0 c 0,-0.16 0.13,-0.29 0.29,-0.29 h 4.38 c 0.16,0 0.29,0.13 0.29,0.29 z"
   id="path10"
   inkscape:connector-curvature="0"
   style="fill:#172b3a;stroke:#172b3a;stroke-width:0.25;stroke-miterlimit:10" />
	<path
   class="st2"
   d="m 33.17,32.94 c 0,0.41 -0.48,0.75 -1.06,0.75 -0.59,0 -1.06,-0.34 -1.06,-0.75 z"
   id="path12"
   inkscape:connector-curvature="0"
   style="fill:#172b3a;stroke:#172b3a;stroke-width:0.25;stroke-miterlimit:10" />
</g>
</svg>