<?xml version="1.0" encoding="utf-8"?>
<!-- Generator: Adobe Illustrator 26.0.3, SVG Export Plug-In . SVG Version: 6.00 Build 0)  -->
<svg version="1.1" id="Ebene_1" xmlns="http://www.w3.org/2000/svg" xmlns:xlink="http://www.w3.org/1999/xlink" x="0px" y="0px"
	 viewBox="0 0 63.46 52.64" style="enable-background:new 0 0 63.46 52.64;" xml:space="preserve">
<style type="text/css">
	.st0{fill:none;stroke:#172B3A;stroke-width:1.0329;stroke-miterlimit:10;}
	.st1{fill:none;stroke:#172B3A;stroke-miterlimit:10;}
	.st2{fill:#172B3A;stroke:#172B3A;stroke-width:0.25;stroke-miterlimit:10;}
</style>
<g>
	<path class="st0" d="M45.21,24.57c0,7.22-5.86,13.08-13.08,13.08c-7.23,0-13.08-5.86-13.08-13.08c0-7.23,5.86-13.08,13.08-13.08
		C39.35,11.49,45.21,17.35,45.21,24.57z"/>
	<path class="st1" d="M37.73,20.87c0,1.4-0.54,2.67-1.43,3.64c-1.02,1.1-0.17,5.14-4.12,5.14c-4.09,0-3.48-4.23-4.49-5.58
		c-0.67-0.9-1.07-2-1.07-3.2c0-3,2.49-5.42,5.56-5.42C35.24,15.45,37.73,17.88,37.73,20.87z"/>
	<path class="st2" d="M34.59,31.05c0,0.16-0.13,0.29-0.29,0.29h-4.38c-0.16,0-0.29-0.13-0.29-0.29l0,0c0-0.16,0.13-0.29,0.29-0.29
		h4.38C34.46,30.75,34.59,30.88,34.59,31.05L34.59,31.05z"/>
	<path class="st2" d="M34.59,32.17c0,0.16-0.13,0.29-0.29,0.29h-4.38c-0.16,0-0.29-0.13-0.29-0.29l0,0c0-0.16,0.13-0.29,0.29-0.29
		h4.38C34.46,31.88,34.59,32.01,34.59,32.17L34.59,32.17z"/>
	<path class="st2" d="M33.17,32.94c0,0.41-0.48,0.75-1.06,0.75c-0.59,0-1.06-0.34-1.06-0.75H33.17z"/>
</g>
</svg>
