<?xml version="1.0" encoding="UTF-8" standalone="no"?>
<!-- Generator: Adobe Illustrator 26.0.3, SVG Export Plug-In . SVG Version: 6.00 Build 0)  -->

<svg
   xmlns:dc="http://purl.org/dc/elements/1.1/"
   xmlns:cc="http://creativecommons.org/ns#"
   xmlns:rdf="http://www.w3.org/1999/02/22-rdf-syntax-ns#"
   xmlns:svg="http://www.w3.org/2000/svg"
   xmlns="http://www.w3.org/2000/svg"
   xmlns:xlink="http://www.w3.org/1999/xlink"
   xmlns:sodipodi="http://sodipodi.sourceforge.net/DTD/sodipodi-0.dtd"
   xmlns:inkscape="http://www.inkscape.org/namespaces/inkscape"
   version="1.1"
   id="Ebene_1"
   x="0px"
   y="0px"
   viewBox="0 0 24.999999 25"
   xml:space="preserve"
   sodipodi:docname="locationMarker.svg"
   inkscape:version="0.92.5 (2060ec1f9f, 2020-04-08)"
   width="25"
   height="25"><metadata
   id="metadata8"><rdf:RDF><cc:Work
       rdf:about=""><dc:format>image/svg+xml</dc:format><dc:type
         rdf:resource="http://purl.org/dc/dcmitype/StillImage" /></cc:Work></rdf:RDF></metadata><defs
   id="defs11"><rect
     height="71.580002"
     width="76.580002"
     y="21.299999"
     x="33.490002"
     id="SVGID_1_" /><rect
     height="71.580002"
     width="76.580002"
     y="21.299999"
     x="33.490002"
     id="SVGID_00000069398901359194327090000010804474677747809178_" /></defs><sodipodi:namedview
   id="namedview9"
   pagecolor="#ffffff"
   bordercolor="#666666"
   borderopacity="1.0"
   inkscape:pageshadow="2"
   inkscape:pageopacity="0.0"
   inkscape:pagecheckerboard="0"
   showgrid="false"
   inkscape:zoom="12.983333"
   inkscape:cx="5.2641383"
   inkscape:cy="15.152259"
   inkscape:window-width="1848"
   inkscape:window-height="1016"
   inkscape:window-x="1992"
   inkscape:window-y="27"
   inkscape:window-maximized="1"
   inkscape:current-layer="g14" />
<style
   type="text/css"
   id="style2">
	.st0{fill:none;stroke:#162B3A;stroke-width:1.0329;stroke-miterlimit:10;}
	.st1{fill:#172B3A;}
</style>
<path
   class="st0"
   d="m 24.525197,12.499999 c 0,6.637763 -5.387435,12.025198 -12.025198,12.025198 -6.6469558,0 -12.02519677,-5.387435 -12.02519677,-12.025198 0,-6.6469558 5.38743597,-12.02519677 12.02519677,-12.02519677 6.637763,0 12.025198,5.37824097 12.025198,12.02519677 z"
   id="path4"
   clip-path="url(#SVGID_00000170258541094129404530000007646771015269787024_)"
   style="stroke:#162b3a;stroke-opacity:1;fill:none" />

<style
   id="style2-5"
   type="text/css">
	.st0{clip-path:url(#SVGID_00000170258541094129404530000007646771015269787024_);fill:#83AD59;}
	.st1{clip-path:url(#SVGID_00000170258541094129404530000007646771015269787024_);fill:#ECECEC;}
</style><g
   id="g935"
   transform="translate(-52.226267,0.61422946)"><g
     transform="translate(-33.490002,-21.299999)"
     id="g14"
     style="fill:#162b3a;fill-opacity:1">
	<defs
   id="defs5">
		<rect
   height="71.580002"
   width="76.580002"
   y="21.299999"
   x="33.490002"
   id="rect921" />
	</defs>
	<clipPath
   id="SVGID_00000165199826184426123210000006286974490502087562_">
		<use
   height="100%"
   width="100%"
   y="0"
   x="0"
   id="use7"
   style="overflow:visible"
   xlink:href="#SVGID_1_" />
	</clipPath>
	<path
   id="path10"
   clip-path="url(#SVGID_00000165199826184426123210000006286974490502087562_)"
   d="m 33.49,92.87 c 0,0 0.7,-47.87 10.54,-60.46 9.83,-12.59 28.01,-14.82 40.59,-4.99 12.58,9.83 14.82,28.01 4.98,40.59 -9.83,12.6 -56.11,24.86 -56.11,24.86"
   style="fill:#162b3a;fill-opacity:1"
   inkscape:connector-curvature="0"
   transform="matrix(0.21548446,0,0,0.21548446,84.293324,20.445172)" />
	
<path
   id="path12"
   clip-path="url(#SVGID_00000165199826184426123210000006286974490502087562_)"
   d="M 51.51,69.57 C 40.54,61 38.59,45.15 47.16,34.18 55.73,23.21 71.58,21.26 82.55,29.84 93.52,38.41 95.47,54.26 86.9,65.23 78.33,76.19 62.48,78.14 51.51,69.57"
   style="fill:#400000;fill-opacity:0"
   inkscape:connector-curvature="0" /></g><g
     transform="translate(-33.490002,-21.299999)"
     id="g22">
	<defs
   id="defs17">
		<rect
   height="71.580002"
   width="76.580002"
   y="21.299999"
   x="33.490002"
   id="rect929" />
	</defs>
	<clipPath
   id="SVGID_00000012465051960595680510000013202296033104031121_">
		<use
   height="100%"
   width="100%"
   y="0"
   x="0"
   id="use19"
   style="overflow:visible"
   xlink:href="#SVGID_00000069398901359194327090000010804474677747809178_" />
	</clipPath>
</g></g></svg>