<?xml version="1.0" encoding="UTF-8" standalone="no"?>
<!-- Generator: Adobe Illustrator 26.0.3, SVG Export Plug-In . SVG Version: 6.00 Build 0)  -->

<svg
   version="1.1"
   id="Ebene_1"
   x="0px"
   y="0px"
   viewBox="0 0 62.244576 71.569999"
   xml:space="preserve"
   sodipodi:docname="marker.svg"
   inkscape:version="1.1 (c68e22c387, 2021-05-23)"
   width="62.244576"
   height="71.57"
   xmlns:inkscape="http://www.inkscape.org/namespaces/inkscape"
   xmlns:sodipodi="http://sodipodi.sourceforge.net/DTD/sodipodi-0.dtd"
   xmlns:xlink="http://www.w3.org/1999/xlink"
   xmlns="http://www.w3.org/2000/svg"
   xmlns:svg="http://www.w3.org/2000/svg"><defs
   id="defs27" /><sodipodi:namedview
   id="namedview25"
   pagecolor="#ffffff"
   bordercolor="#666666"
   borderopacity="1.0"
   inkscape:pageshadow="2"
   inkscape:pageopacity="0.0"
   inkscape:pagecheckerboard="0"
   showgrid="false"
   inkscape:zoom="6.702805"
   inkscape:cx="-3.9535687"
   inkscape:cy="15.441297"
   inkscape:window-width="2560"
   inkscape:window-height="1377"
   inkscape:window-x="3832"
   inkscape:window-y="384"
   inkscape:window-maximized="1"
   inkscape:current-layer="Ebene_1" />
<style
   type="text/css"
   id="style2">
	.st0{clip-path:url(#SVGID_00000170258541094129404530000007646771015269787024_);fill:#83AD59;}
	.st1{clip-path:url(#SVGID_00000170258541094129404530000007646771015269787024_);fill:#ECECEC;}
</style>
<g
   id="g14"
   transform="translate(-33.490002,-21.299999)">
	<defs
   id="defs5">
		<rect
   id="SVGID_1_"
   x="33.490002"
   y="21.299999"
   width="76.580002"
   height="71.580002" />
	</defs>
	<clipPath
   id="SVGID_00000165199826184426123210000006286974490502087562_">
		<use
   xlink:href="#SVGID_1_"
   style="overflow:visible"
   id="use7"
   x="0"
   y="0"
   width="100%"
   height="100%" />
	</clipPath>
	<path
   style="fill:#83ad59"
   d="m 33.49,92.87 c 0,0 0.7,-47.87 10.54,-60.46 9.83,-12.59 28.01,-14.82 40.59,-4.99 12.58,9.83 14.82,28.01 4.98,40.59 -9.83,12.6 -56.11,24.86 -56.11,24.86"
   clip-path="url(#SVGID_00000165199826184426123210000006286974490502087562_)"
   id="path10" />
	<path
   style="fill:#ececec"
   d="M 51.51,69.57 C 40.54,61 38.59,45.15 47.16,34.18 55.73,23.21 71.58,21.26 82.55,29.84 93.52,38.41 95.47,54.26 86.9,65.23 78.33,76.19 62.48,78.14 51.51,69.57"
   clip-path="url(#SVGID_00000165199826184426123210000006286974490502087562_)"
   id="path12" />
</g>
<g
   id="g22"
   transform="translate(-33.490002,-21.299999)">
	<defs
   id="defs17">
		<rect
   id="SVGID_00000069398901359194327090000010804474677747809178_"
   x="33.490002"
   y="21.299999"
   width="76.580002"
   height="71.580002" />
	</defs>
	<clipPath
   id="SVGID_00000012465051960595680510000013202296033104031121_">
		<use
   xlink:href="#SVGID_00000069398901359194327090000010804474677747809178_"
   style="overflow:visible"
   id="use19"
   x="0"
   y="0"
   width="100%"
   height="100%" />
	</clipPath>
</g>
</svg>
