<?xml version="1.0" encoding="UTF-8" standalone="no"?>
<!-- Generator: Adobe Illustrator 26.0.3, SVG Export Plug-In . SVG Version: 6.00 Build 0)  -->

<svg
   version="1.1"
   id="Ebene_1"
   x="0px"
   y="0px"
   viewBox="0 0 25 24.999999"
   xml:space="preserve"
   sodipodi:docname="overcast.svg"
   width="25"
   height="25"
   inkscape:version="1.1 (c68e22c387, 2021-05-23)"
   xmlns:inkscape="http://www.inkscape.org/namespaces/inkscape"
   xmlns:sodipodi="http://sodipodi.sourceforge.net/DTD/sodipodi-0.dtd"
   xmlns="http://www.w3.org/2000/svg"
   xmlns:svg="http://www.w3.org/2000/svg"><defs
   id="defs27" /><sodipodi:namedview
   id="namedview25"
   pagecolor="#ffffff"
   bordercolor="#666666"
   borderopacity="1.0"
   inkscape:pageshadow="2"
   inkscape:pageopacity="0.0"
   inkscape:pagecheckerboard="0"
   showgrid="false"
   inkscape:zoom="10.511402"
   inkscape:cx="13.746977"
   inkscape:cy="16.886425"
   inkscape:window-width="2560"
   inkscape:window-height="1377"
   inkscape:window-x="-8"
   inkscape:window-y="-8"
   inkscape:window-maximized="1"
   inkscape:current-layer="Ebene_1" />
<style
   type="text/css"
   id="style2">
	.st0{fill:none;stroke:#172B3A;stroke-width:1.4;stroke-linecap:round;stroke-miterlimit:10;}
	.st1{fill:none;stroke:#172B3A;stroke-width:1.0329;stroke-miterlimit:10;}
</style>
<g
   id="g22"
   transform="matrix(0.91935763,0,0,0.91935763,-23.235431,-18.546707)">
	<g
   id="g18">
		<path
   class="st0"
   d="m 36.13,36.88 c -1.3,-0.65 -2.2,-1.99 -2.2,-3.54 0,-2.18 1.77,-3.95 3.95,-3.95 1.01,0 1.93,0.38 2.62,1"
   id="path4" />
		<line
   class="st0"
   x1="37.810001"
   y1="24.559999"
   x2="37.810001"
   y2="27.27"
   id="line6" />
		<line
   class="st0"
   x1="43.93"
   y1="27.200001"
   x2="42.060001"
   y2="29.16"
   id="line8" />
		<line
   class="st0"
   x1="31.65"
   y1="27.17"
   x2="33.610001"
   y2="29.040001"
   id="line10" />
		<line
   class="st0"
   x1="29.17"
   y1="33.439999"
   x2="31.879999"
   y2="33.439999"
   id="line12" />
		<line
   class="st0"
   x1="31.67"
   y1="39.459999"
   x2="33.59"
   y2="37.540001"
   id="line14" />
		<path
   class="st0"
   d="m 46.83,43.95 c -2.92,0.1 -6.01,0.12 -8.01,-0.12 -1.02,-0.12 -2.55,-0.85 -2.51,-3.24 0.04,-2.47 1.98,-3.68 3.44,-3.56 0,-2.31 0.85,-4.95 3.8,-5.46 3.72,-0.65 5.54,2.23 5.58,3.8 0.64,-0.24 1.78,-0.56 2.46,-0.45"
   id="path16" />
	</g>
	<path
   class="st1"
   d="m 51.95,33.77 c 0,7.22 -5.86,13.08 -13.08,13.08 -7.22,0 -13.08,-5.86 -13.08,-13.08 0,-7.23 5.86,-13.08 13.08,-13.08 7.23,0 13.08,5.86 13.08,13.08 z"
   id="path20" />
</g>
</svg>
