<?xml version="1.0" encoding="utf-8"?>
<!-- Generator: Adobe Illustrator 26.0.3, SVG Export Plug-In . SVG Version: 6.00 Build 0)  -->
<svg version="1.1" id="Ebene_1" xmlns="http://www.w3.org/2000/svg" xmlns:xlink="http://www.w3.org/1999/xlink" x="0px" y="0px"
	 viewBox="0 0 54.01 56.73" style="enable-background:new 0 0 54.01 56.73;" xml:space="preserve">
<style type="text/css">
	.st0{fill:none;stroke:#172B3A;stroke-width:1.0329;stroke-miterlimit:10;}
	.st1{fill:#172B3A;}
</style>
<g>
	<path class="st0" d="M40.5,29.83c0,7.22-5.86,13.08-13.08,13.08c-7.23,0-13.08-5.86-13.08-13.08c0-7.23,5.86-13.08,13.08-13.08
		C34.65,16.75,40.5,22.61,40.5,29.83z"/>
	<path class="st1" d="M36.41,28.71c1.08-3.48-1.64-7.41-1.64-7.41s-4.46,1.71-5.54,5.19c-0.45,1.45-0.24,2.99,0.16,4.28l-2.57-3.13
		c0.54-0.39,2.67-2.07,2.86-4.27c0.21-2.53-2.22-4.79-2.22-4.79s-2.77,1.83-2.98,4.36c-0.08,0.91,0.19,1.78,0.57,2.53l-3.46-4.21
		c0.92,1.95,2.11,4.1,3.63,6.33c-0.73-0.48-1.57-0.86-2.49-0.96c-3.09-0.32-5.93,2.6-5.93,2.6s2.17,3.45,5.26,3.77
		c2.34,0.25,4.53-1.37,5.46-2.17c0.58,0.8,1.16,1.58,1.66,2.26c0.17,0.24,0.39,0.52,0.64,0.83c-1.1-0.52-2.37-0.89-3.7-0.76
		c-3.62,0.38-6.17,4.42-6.17,4.42s3.33,3.43,6.95,3.06c2.55-0.26,4.56-2.34,5.53-3.55c1.05,1.23,2.07,2.35,2.63,2.85
		c1.12,0.99,1.27-0.73,1.08-1l-4.46-5.42C33.01,32.86,35.62,31.26,36.41,28.71z"/>
</g>
</svg>
