<?xml version="1.0" encoding="UTF-8" standalone="no"?>
<!-- Generator: Adobe Illustrator 26.0.3, SVG Export Plug-In . SVG Version: 6.00 Build 0)  -->

<svg
   version="1.1"
   id="Ebene_1"
   x="0px"
   y="0px"
   viewBox="0 0 24.999999 25.000012"
   xml:space="preserve"
   sodipodi:docname="sun.svg"
   inkscape:version="1.1 (c68e22c387, 2021-05-23)"
   width="25"
   height="25.000011"
   xmlns:inkscape="http://www.inkscape.org/namespaces/inkscape"
   xmlns:sodipodi="http://sodipodi.sourceforge.net/DTD/sodipodi-0.dtd"
   xmlns="http://www.w3.org/2000/svg"
   xmlns:svg="http://www.w3.org/2000/svg"><defs
   id="defs39" /><sodipodi:namedview
   id="namedview37"
   pagecolor="#ffffff"
   bordercolor="#666666"
   borderopacity="1.0"
   inkscape:pageshadow="2"
   inkscape:pageopacity="0.0"
   inkscape:pagecheckerboard="0"
   showgrid="false"
   inkscape:zoom="8.9550525"
   inkscape:cx="14.126104"
   inkscape:cy="10.441033"
   inkscape:window-width="2560"
   inkscape:window-height="1377"
   inkscape:window-x="-8"
   inkscape:window-y="-8"
   inkscape:window-maximized="1"
   inkscape:current-layer="Ebene_1" />
<style
   type="text/css"
   id="style2">
	.st0{fill:none;stroke:#172B3A;stroke-width:1.0329;stroke-miterlimit:10;}
	.st1{fill:#172B3A;}
</style>
<g
   id="g34"
   transform="matrix(0.91935763,0,0,0.91935763,-24.936243,-30.397215)">
	<path
   class="st0"
   d="m 53.8,46.66 c 0,7.22 -5.86,13.08 -13.08,13.08 -7.23,0 -13.08,-5.86 -13.08,-13.08 0,-7.23 5.86,-13.08 13.08,-13.08 7.22,-0.01 13.08,5.85 13.08,13.08 z"
   id="path4" />
	<g
   id="g32">
		<circle
   class="st1"
   cx="40.779999"
   cy="46.68"
   r="4.1199999"
   id="circle6" />
		<path
   class="st1"
   d="m 41.59,40.93 c 0,0.48 -0.35,0.86 -0.78,0.86 v 0 c -0.43,0 -0.78,-0.39 -0.78,-0.86 v -2.9 c 0,-0.48 0.35,-0.87 0.78,-0.87 v 0 c 0.43,0 0.78,0.39 0.78,0.87 z"
   id="path8" />
		<path
   class="st1"
   d="m 41.59,55.24 c 0,0.48 -0.35,0.86 -0.78,0.86 v 0 c -0.43,0 -0.78,-0.39 -0.78,-0.86 v -2.9 c 0,-0.48 0.35,-0.87 0.78,-0.87 v 0 c 0.43,0 0.78,0.39 0.78,0.87 z"
   id="path10" />
		<path
   class="st1"
   d="m 46.52,47.37 c -0.48,0 -0.87,-0.34 -0.87,-0.78 v 0 c 0,-0.43 0.38,-0.79 0.86,-0.79 l 2.9,-0.02 c 0.48,0 0.87,0.34 0.87,0.77 v 0 c 0,0.43 -0.38,0.79 -0.86,0.79 z"
   id="path12" />
		<path
   class="st1"
   d="m 32.21,47.48 c -0.48,0 -0.87,-0.34 -0.87,-0.78 v 0 c 0,-0.43 0.38,-0.78 0.86,-0.79 l 2.9,-0.02 c 0.48,0 0.87,0.34 0.87,0.78 v 0 c 0,0.43 -0.38,0.78 -0.86,0.79 z"
   id="path14" />
		<path
   class="st1"
   d="M 45.37,50.1 C 44.96,49.86 44.8,49.37 45.01,48.99 v 0 c 0.22,-0.37 0.73,-0.48 1.14,-0.24 l 2.52,1.45 c 0.41,0.24 0.57,0.73 0.36,1.11 v 0 c -0.22,0.38 -0.73,0.48 -1.14,0.25 z"
   id="path16" />
		<path
   class="st1"
   d="M 32.96,42.95 C 32.55,42.71 32.39,42.22 32.6,41.84 v 0 c 0.22,-0.37 0.73,-0.48 1.14,-0.24 l 2.52,1.45 c 0.41,0.24 0.57,0.74 0.36,1.11 v 0 c -0.21,0.38 -0.72,0.48 -1.14,0.24 z"
   id="path18" />
		<path
   class="st1"
   d="m 46.07,44.3 c -0.41,0.25 -0.92,0.15 -1.14,-0.22 v 0 c -0.22,-0.37 -0.07,-0.87 0.34,-1.11 l 2.49,-1.5 c 0.41,-0.25 0.92,-0.15 1.14,0.22 v 0 c 0.22,0.37 0.07,0.87 -0.34,1.12 z"
   id="path20" />
		<path
   class="st1"
   d="m 33.81,51.69 c -0.41,0.25 -0.92,0.15 -1.14,-0.22 v 0 C 32.45,51.1 32.6,50.6 33.01,50.35 l 2.49,-1.5 c 0.41,-0.25 0.92,-0.15 1.14,0.22 v 0 c 0.22,0.37 0.07,0.87 -0.34,1.12 z"
   id="path22" />
		<path
   class="st1"
   d="m 42.91,51.94 c -0.23,-0.42 -0.12,-0.93 0.26,-1.14 v 0 c 0.38,-0.21 0.87,-0.04 1.1,0.38 l 1.41,2.54 c 0.23,0.42 0.12,0.92 -0.26,1.13 v 0 c -0.38,0.21 -0.87,0.04 -1.1,-0.38 z"
   id="path24" />
		<path
   class="st1"
   d="M 35.94,39.43 C 35.71,39.01 35.83,38.5 36.2,38.3 v 0 c 0.38,-0.21 0.87,-0.04 1.1,0.38 l 1.41,2.54 c 0.23,0.42 0.11,0.93 -0.26,1.13 v 0 c -0.38,0.21 -0.87,0.04 -1.1,-0.38 z"
   id="path26" />
		<path
   class="st1"
   d="m 44.28,42.09 c -0.23,0.42 -0.73,0.58 -1.1,0.37 v 0 C 42.8,42.25 42.69,41.74 42.92,41.33 l 1.42,-2.53 c 0.23,-0.42 0.73,-0.58 1.1,-0.37 v 0 c 0.38,0.21 0.49,0.72 0.26,1.14 z"
   id="path28" />
		<path
   class="st1"
   d="m 37.28,54.58 c -0.23,0.42 -0.73,0.58 -1.1,0.37 v 0 C 35.8,54.74 35.69,54.23 35.92,53.81 l 1.42,-2.53 c 0.23,-0.42 0.73,-0.58 1.1,-0.37 v 0 c 0.38,0.21 0.49,0.72 0.26,1.13 z"
   id="path30" />
	</g>
</g>
</svg>
