<?xml version="1.0" encoding="UTF-8" standalone="no"?>
<!-- Created with Inkscape (http://www.inkscape.org/) -->

<svg
   xmlns:dc="http://purl.org/dc/elements/1.1/"
   xmlns:cc="http://creativecommons.org/ns#"
   xmlns:rdf="http://www.w3.org/1999/02/22-rdf-syntax-ns#"
   xmlns:svg="http://www.w3.org/2000/svg"
   xmlns="http://www.w3.org/2000/svg"
   xmlns:sodipodi="http://sodipodi.sourceforge.net/DTD/sodipodi-0.dtd"
   xmlns:inkscape="http://www.inkscape.org/namespaces/inkscape"
   version="1.1"
   id="svg2"
   xml:space="preserve"
   width="570.04004"
   height="460.70602"
   viewBox="0 0 570.04004 460.70602"
   sodipodi:docname="tableDetail.svg"
   inkscape:version="0.92.5 (2060ec1f9f, 2020-04-08)"><metadata
     id="metadata8"><rdf:RDF><cc:Work
         rdf:about=""><dc:format>image/svg+xml</dc:format><dc:type
           rdf:resource="http://purl.org/dc/dcmitype/StillImage" /><dc:title></dc:title></cc:Work></rdf:RDF></metadata><defs
     id="defs6"><clipPath
       clipPathUnits="userSpaceOnUse"
       id="clipPath60"><path
         d="M 61.795,56.323 H 499.748 V 368.395 H 61.795 Z"
         id="path58"
         inkscape:connector-curvature="0" /></clipPath><clipPath
       clipPathUnits="userSpaceOnUse"
       id="clipPath104"><path
         d="M 61.795,56.323 H 499.748 V 368.395 H 61.795 Z"
         id="path102"
         inkscape:connector-curvature="0" /></clipPath><clipPath
       clipPathUnits="userSpaceOnUse"
       id="clipPath120"><path
         d="M 61.795,56.323 H 499.748 V 368.395 H 61.795 Z"
         id="path118"
         inkscape:connector-curvature="0" /></clipPath><clipPath
       clipPathUnits="userSpaceOnUse"
       id="clipPath268"><path
         d="M 0,0 H 595.276 V 841.89 H 0 Z"
         id="path266"
         inkscape:connector-curvature="0" /></clipPath><clipPath
       clipPathUnits="userSpaceOnUse"
       id="clipPath290"><path
         d="M 0,0 H 595.276 V 841.89 H 0 Z"
         id="path288"
         inkscape:connector-curvature="0" /></clipPath><clipPath
       clipPathUnits="userSpaceOnUse"
       id="clipPath316"><path
         d="M 0,0 H 595.276 V 841.89 H 0 Z"
         id="path314"
         inkscape:connector-curvature="0" /></clipPath><clipPath
       clipPathUnits="userSpaceOnUse"
       id="clipPath342"><path
         d="M 0,0 H 595.276 V 841.89 H 0 Z"
         id="path340"
         inkscape:connector-curvature="0" /></clipPath><clipPath
       clipPathUnits="userSpaceOnUse"
       id="clipPath372"><path
         d="M 0,0 H 595.276 V 841.89 H 0 Z"
         id="path370"
         inkscape:connector-curvature="0" /></clipPath><clipPath
       clipPathUnits="userSpaceOnUse"
       id="clipPath410"><path
         d="M 0,0 H 595.276 V 841.89 H 0 Z"
         id="path408"
         inkscape:connector-curvature="0" /></clipPath><clipPath
       clipPathUnits="userSpaceOnUse"
       id="clipPath450"><path
         d="M 0,0 H 595.276 V 841.89 H 0 Z"
         id="path448"
         inkscape:connector-curvature="0" /></clipPath><clipPath
       clipPathUnits="userSpaceOnUse"
       id="clipPath530"><path
         d="M 0,0 H 595.276 V 841.89 H 0 Z"
         id="path528"
         inkscape:connector-curvature="0" /></clipPath><clipPath
       clipPathUnits="userSpaceOnUse"
       id="clipPath554"><path
         d="M 0,0 H 595.276 V 841.89 H 0 Z"
         id="path552"
         inkscape:connector-curvature="0" /></clipPath><clipPath
       clipPathUnits="userSpaceOnUse"
       id="clipPath570"><path
         d="M 0,0 H 595.276 V 841.89 H 0 Z"
         id="path568"
         inkscape:connector-curvature="0" /></clipPath></defs><sodipodi:namedview
     pagecolor="#ffffff"
     bordercolor="#666666"
     borderopacity="1"
     objecttolerance="10"
     gridtolerance="10"
     guidetolerance="10"
     inkscape:pageopacity="0"
     inkscape:pageshadow="2"
     inkscape:window-width="1920"
     inkscape:window-height="1043"
     id="namedview4"
     showgrid="false"
     inkscape:zoom="0.84096496"
     inkscape:cx="-165.15193"
     inkscape:cy="321.30097"
     inkscape:window-x="3840"
     inkscape:window-y="0"
     inkscape:window-maximized="1"
     inkscape:current-layer="g10" /><g
     id="g10"
     inkscape:groupmode="layer"
     inkscape:label="PWS_CI"
     transform="matrix(1.3333333,0,0,-1.3333333,-86.326948,543.11812)"><path
       d="m 119.341,147.706 h -5.437 v 175.126 h 5.437 z"
       style="fill:#ececec;fill-opacity:1;fill-rule:nonzero;stroke:none"
       id="path28"
       inkscape:connector-curvature="0" /><g
       id="g30"
       transform="translate(119.3409,147.706)"><path
         d="M 0,0 H -5.437 V 175.126 H 0 Z"
         style="fill:none;stroke:#1b181c;stroke-width:0.60100001;stroke-linecap:butt;stroke-linejoin:miter;stroke-miterlimit:10;stroke-dasharray:none;stroke-opacity:1"
         id="path32"
         inkscape:connector-curvature="0" /></g><g
       id="g34"
       transform="translate(80.7147,357.0027)"><path
         d="m 0,0 -15.741,-3.79 0.021,-2.533 53.226,-59.411 47.484,13.441 v 2.211"
         style="fill:#e5dfd3;fill-opacity:1;fill-rule:nonzero;stroke:#182b3a;stroke-width:0.454;stroke-linecap:butt;stroke-linejoin:miter;stroke-miterlimit:10;stroke-dasharray:none;stroke-opacity:1"
         id="path36"
         inkscape:connector-curvature="0" /></g><g
       id="g38"
       transform="translate(65.1786,353.0952)"><path
         d="m 0,0 53.131,-59.324 47.233,13.231 -52.17,58.214 z"
         style="fill:#e5dfd3;fill-opacity:1;fill-rule:nonzero;stroke:none"
         id="path40"
         inkscape:connector-curvature="0" /></g><g
       id="g42"
       transform="translate(65.1786,353.0952)"><path
         d="m 0,0 53.131,-59.324 47.233,13.231 -52.17,58.214 z"
         style="fill:none;stroke:#182b3a;stroke-width:0.454;stroke-linecap:butt;stroke-linejoin:miter;stroke-miterlimit:10;stroke-dasharray:none;stroke-opacity:1"
         id="path44"
         inkscape:connector-curvature="0" /></g><g
       id="g46"
       transform="translate(69.3476,352.2118)"><path
         d="M 0,0 42.83,10.81 91.711,-43.859 49.994,-55.962 Z"
         style="fill:#182b3a;fill-opacity:1;fill-rule:nonzero;stroke:none"
         id="path48"
         inkscape:connector-curvature="0" /></g><g
       id="g50"
       transform="translate(69.3476,352.2118)"><path
         d="M 0,0 42.83,10.81 91.711,-43.859 49.994,-55.962 Z"
         style="fill:none;stroke:#182b3a;stroke-width:0.454;stroke-linecap:butt;stroke-linejoin:miter;stroke-miterlimit:10;stroke-dasharray:none;stroke-opacity:1"
         id="path52"
         inkscape:connector-curvature="0" /></g><g
       id="g54"><g
         id="g56"
         clip-path="url(#clipPath60)"><g
           id="g62"
           transform="translate(307.6469,158.6346)"><path
             d="m 0,0 c 0,0 -2.415,-24.886 -3.555,-30.552 -1.14,-5.664 -5.389,-11.581 -12.699,-11.581 -8.874,0 -58.035,2.274 -71.994,2.275 -16.323,0.002 -15.396,21.097 -15.396,27.247 l 4.237,1.655 c -0.662,-25.159 8.463,-24.022 13.104,-24.276 4.641,-0.254 60.641,-1.591 68.255,-1.591 7.616,0 9.407,9.407 9.407,9.407 l 3.784,26.541"
             style="fill:#ececec;fill-opacity:1;fill-rule:nonzero;stroke:#182b3a;stroke-width:0.454;stroke-linecap:butt;stroke-linejoin:miter;stroke-miterlimit:10;stroke-dasharray:none;stroke-opacity:1"
             id="path64"
             inkscape:connector-curvature="0" /></g><g
           id="g66"
           transform="translate(233.4917,188.684)"><path
             d="M 0,0 C 0,0 -0.461,-2.314 0.228,-3.622 0.917,-4.934 1.849,-5.519 1.849,-5.519"
             style="fill:none;stroke:#182b3a;stroke-width:0.454;stroke-linecap:butt;stroke-linejoin:miter;stroke-miterlimit:10;stroke-dasharray:none;stroke-opacity:1"
             id="path68"
             inkscape:connector-curvature="0" /></g></g></g><g
       id="g70"
       transform="translate(91.5989,358.7045)"><path
         d="M 0,0 50.457,-56.67"
         style="fill:none;stroke:#d8dadb;stroke-width:0.454;stroke-linecap:butt;stroke-linejoin:miter;stroke-miterlimit:10;stroke-dasharray:none;stroke-opacity:1"
         id="path72"
         inkscape:connector-curvature="0" /></g><g
       id="g74"
       transform="translate(80.0572,338.3421)"><path
         d="M 0,0 44.493,11.814"
         style="fill:none;stroke:#d8dadb;stroke-width:0.454;stroke-linecap:butt;stroke-linejoin:miter;stroke-miterlimit:10;stroke-dasharray:none;stroke-opacity:1"
         id="path76"
         inkscape:connector-curvature="0" /></g><g
       id="g78"
       transform="translate(93.1142,324.4628)"><path
         d="M 0,0 44.493,11.814"
         style="fill:none;stroke:#d8dadb;stroke-width:0.454;stroke-linecap:butt;stroke-linejoin:miter;stroke-miterlimit:10;stroke-dasharray:none;stroke-opacity:1"
         id="path80"
         inkscape:connector-curvature="0" /></g><g
       id="g82"
       transform="translate(105.4135,309.4494)"><path
         d="M 0,0 44.493,11.814"
         style="fill:none;stroke:#d8dadb;stroke-width:0.454;stroke-linecap:butt;stroke-linejoin:miter;stroke-miterlimit:10;stroke-dasharray:none;stroke-opacity:1"
         id="path84"
         inkscape:connector-curvature="0" /></g><g
       id="g110"
       transform="translate(304.163,149.99)" /><g
       id="g114"><g
         id="g116"
         clip-path="url(#clipPath120)"><g
           id="g122"
           transform="translate(198.5109,208.2238)"><path
             d="m 0,0 c 15.727,4.486 147.248,44.954 158.901,47.673 9.195,-3.285 9.195,-18.354 2.921,-22.722 C 154.907,22.698 16.61,-22.35 4.509,-26.489 -3.341,-26.489 -9.697,-7.167 0,0"
             style="fill:#b9b4ba;fill-opacity:1;fill-rule:nonzero;stroke:none"
             id="path124"
             inkscape:connector-curvature="0" /></g><g
           id="g126"
           transform="translate(198.5109,208.2238)"><path
             d="m 0,0 c 15.727,4.486 147.248,44.954 158.901,47.673 9.195,-3.285 9.195,-18.354 2.921,-22.722 C 154.907,22.698 16.61,-22.35 4.509,-26.489 -3.341,-26.489 -9.697,-7.167 0,0 Z"
             style="fill:none;stroke:#182b3a;stroke-width:0.454;stroke-linecap:butt;stroke-linejoin:miter;stroke-miterlimit:10;stroke-dasharray:none;stroke-opacity:1"
             id="path128"
             inkscape:connector-curvature="0" /></g><g
           id="g130"
           transform="translate(367.8917,181.1877)"><path
             d="M 0,0 C 0,0 0.607,-5.311 3.035,-19.27 5.462,-33.229 9.101,-29.615 8.193,-20.332 7.286,-11.045 5.974,2.364 5.974,2.364"
             style="fill:#ececec;fill-opacity:1;fill-rule:nonzero;stroke:#182b3a;stroke-width:0.454;stroke-linecap:butt;stroke-linejoin:miter;stroke-miterlimit:10;stroke-dasharray:none;stroke-opacity:1"
             id="path132"
             inkscape:connector-curvature="0" /></g><g
           id="g134"
           transform="translate(469.4235,164.808)"><path
             d="m 0,0 v -6.173 c 0,-7.641 -6.376,-13.103 -10.017,-13.103 -3.642,0 -56.609,1.517 -67.691,1.517 -11.078,0 -14.907,7.541 -15.496,11.586 -0.59,4.042 -3.488,24.588 -3.488,24.588 l 5.012,1.865 c 0,0 1.955,-16.191 3.107,-23.321 1.152,-7.132 2.574,-10.498 10.668,-10.667 8.095,-0.168 51.118,-2.024 63.184,-1.32 12.066,0.704 10.123,12.835 10.123,12.835"
             style="fill:#ececec;fill-opacity:1;fill-rule:nonzero;stroke:#182b3a;stroke-width:0.454;stroke-linecap:butt;stroke-linejoin:miter;stroke-miterlimit:10;stroke-dasharray:none;stroke-opacity:1"
             id="path136"
             inkscape:connector-curvature="0" /></g><g
           id="g138"
           transform="translate(309.3397,159.0069)"><path
             d="m 0,0 -10.029,-74.186 v 12.25 h -6.824 c 0,0 0.957,-18.149 0.957,-27.859 0,-9.711 6.135,-9.154 7.469,-0.809 1.335,8.343 14.785,92.453 14.785,92.453"
             style="fill:#ececec;fill-opacity:1;fill-rule:nonzero;stroke:#182b3a;stroke-width:0.454;stroke-linecap:butt;stroke-linejoin:miter;stroke-miterlimit:10;stroke-dasharray:none;stroke-opacity:1"
             id="path140"
             inkscape:connector-curvature="0" /></g><g
           id="g142"
           transform="translate(285.351,97.4521)"><path
             d="m 0,0 c 16.111,-1.195 42.181,0.131 58.719,8.023 14.093,6.726 128.061,60.471 130.357,61.753 2.296,1.283 10.62,5.842 10.014,13.05 -0.688,8.185 -5.16,10.723 -8.8,13.351 -3.641,2.629 -16.22,7.57 -18.815,8.497 -2.595,0.927 -80.741,28.828 -80.741,28.828 l -149.2,-47.441 c 0,0 -9.274,-3.471 -19.22,-7.484 -17.296,-6.98 -22.455,-18.208 -20.331,-25.794 2.124,-7.587 3.884,-10.081 9.798,-11.361 0,0 3.826,-1.546 13.228,0.131 9.401,1.677 11.884,6.191 11.884,6.191 l 0.011,3.564 c 0,0 0.02,-2.587 -0.012,0 -0.027,2.196 -1.832,3.295 -1.832,3.295 -10.079,6.71 0.253,13.405 7.587,16.691 7.618,3.416 149.149,49.615 149.149,49.615 0,0 57.892,-21.439 70.879,-26.249 12.987,-4.81 8.497,-13.655 2.428,-16.083 C 159.034,76.149 49.894,26.254 33.38,20.009 25.086,16.873 9.535,14.818 -9.71,20.009 -31.162,25.796 -41.875,11.134 -34.899,7.456 -28.116,3.88 -14.768,1.093 0,0"
             style="fill:#b9b4ba;fill-opacity:1;fill-rule:nonzero;stroke:none"
             id="path144"
             inkscape:connector-curvature="0" /></g><g
           id="g146"
           transform="translate(285.351,97.4521)"><path
             d="m 0,0 c 16.111,-1.195 42.181,0.131 58.719,8.023 14.093,6.726 128.061,60.471 130.357,61.753 2.296,1.283 10.62,5.842 10.014,13.05 -0.688,8.185 -5.16,10.723 -8.8,13.351 -3.641,2.629 -16.22,7.57 -18.815,8.497 -2.595,0.927 -80.741,28.828 -80.741,28.828 l -149.2,-47.441 c 0,0 -9.274,-3.471 -19.22,-7.484 -17.296,-6.98 -22.455,-18.208 -20.331,-25.794 2.124,-7.587 3.884,-10.081 9.798,-11.361 0,0 3.826,-1.546 13.228,0.131 9.401,1.677 11.884,6.191 11.884,6.191 l 0.011,3.564 c 0,0 0.02,-2.587 -0.012,0 -0.027,2.196 -1.832,3.295 -1.832,3.295 -10.079,6.71 0.253,13.405 7.587,16.691 7.618,3.416 149.149,49.615 149.149,49.615 0,0 57.892,-21.439 70.879,-26.249 12.987,-4.81 8.497,-13.655 2.428,-16.083 C 159.034,76.149 49.894,26.254 33.38,20.009 25.086,16.873 9.535,14.818 -9.71,20.009 -31.162,25.796 -41.875,11.134 -34.899,7.456 -28.116,3.88 -14.768,1.093 0,0 Z"
             style="fill:none;stroke:#182b3a;stroke-width:0.454;stroke-linecap:butt;stroke-linejoin:miter;stroke-miterlimit:10;stroke-dasharray:none;stroke-opacity:1"
             id="path148"
             inkscape:connector-curvature="0" /></g><g
           id="g150"
           transform="translate(187.0849,151.1727)"><path
             d="m 0,0 c 2.124,-7.586 5.012,-8.846 5.012,-8.846 12.024,-6.178 29.831,0.182 30.157,6.224 0.062,1.138 -0.296,2.309 -1.631,3.338 m 27.73,-43.279 c 0.248,-4.92 22.24,-8.866 37.008,-9.961 16.111,-1.193 42.181,0.13 58.719,8.022 14.093,6.727 128.06,60.474 130.357,61.754 2.296,1.282 10.506,5.505 9.9,12.712"
             style="fill:none;stroke:#182b3a;stroke-width:0.454;stroke-linecap:butt;stroke-linejoin:miter;stroke-miterlimit:10;stroke-dasharray:none;stroke-opacity:1"
             id="path152"
             inkscape:connector-curvature="0" /></g><g
           id="g154"
           transform="translate(443.1707,213.3543)"><path
             d="m 0,0 c 0,-3.137 -1.378,-4.516 -3.945,-5.571 -2.567,-1.057 -71.334,-28.222 -71.334,-28.222 0,0 -47.255,-18.407 -52.195,-20.332 -4.94,-1.922 -14.616,-3.641 -18.51,-3.641 -3.894,0 -9.201,2.226 -13.96,3.944 -4.603,1.665 -43.996,21.689 -47.886,23.633 -0.131,0.063 -0.702,0.587 -0.749,0.611 l -0.793,1.077 -0.359,0.892 -0.087,1.238 0.136,0.718"
             style="fill:#b9b4ba;fill-opacity:1;fill-rule:nonzero;stroke:#182b3a;stroke-width:0.454;stroke-linecap:butt;stroke-linejoin:miter;stroke-miterlimit:10;stroke-dasharray:none;stroke-opacity:1"
             id="path156"
             inkscape:connector-curvature="0" /></g><g
           id="g158"
           transform="translate(199.7963,207.8345)"><path
             d="m 0,0 c 15.727,4.486 147.248,44.954 158.901,47.673 9.195,-3.285 9.195,-18.354 2.921,-22.722 C 154.907,22.698 16.61,-22.35 4.509,-26.489 -3.341,-26.489 -9.697,-7.167 0,0"
             style="fill:#b9b4ba;fill-opacity:1;fill-rule:nonzero;stroke:none"
             id="path160"
             inkscape:connector-curvature="0" /></g><g
           id="g162"
           transform="translate(199.7963,207.8345)"><path
             d="m 0,0 c 15.727,4.486 147.248,44.954 158.901,47.673 9.195,-3.285 9.195,-18.354 2.921,-22.722 C 154.907,22.698 16.61,-22.35 4.509,-26.489 -3.341,-26.489 -9.697,-7.167 0,0 Z"
             style="fill:none;stroke:#182b3a;stroke-width:0.454;stroke-linecap:butt;stroke-linejoin:miter;stroke-miterlimit:10;stroke-dasharray:none;stroke-opacity:1"
             id="path164"
             inkscape:connector-curvature="0" /></g><g
           id="g166"
           transform="translate(235.0719,184.924)"><path
             d="m 0,0 c 1.476,-0.711 43.397,-22.046 48.155,-23.764 4.758,-1.719 10.065,-3.946 13.959,-3.946 3.894,0 13.571,1.719 18.511,3.642 4.939,1.925 52.195,20.332 52.195,20.332 l 71.334,28.221 c 0,0 3.945,0.808 3.945,3.945 0,3.137 -2.21,4.301 -5.311,5.311 -3.099,1.009 -47.208,15.427 -52.671,17.146 -5.461,1.718 -14.074,1.862 -20.028,0 C 124.134,49.025 4.457,11.588 4.457,11.588 c 0,0 -5.091,-1.903 -5.833,-5.832 C -2.118,1.828 -0.653,0.315 0,0"
             style="fill:#b9b4ba;fill-opacity:1;fill-rule:nonzero;stroke:none"
             id="path168"
             inkscape:connector-curvature="0" /></g><g
           id="g170"
           transform="translate(235.0719,184.924)"><path
             d="m 0,0 c 1.476,-0.711 43.397,-22.046 48.155,-23.764 4.758,-1.719 10.065,-3.946 13.959,-3.946 3.894,0 13.571,1.719 18.511,3.642 4.939,1.925 52.195,20.332 52.195,20.332 l 71.334,28.221 c 0,0 3.945,0.808 3.945,3.945 0,3.137 -2.21,4.301 -5.311,5.311 -3.099,1.009 -47.208,15.427 -52.671,17.146 -5.461,1.718 -14.074,1.862 -20.028,0 C 124.134,49.025 4.457,11.588 4.457,11.588 c 0,0 -5.091,-1.903 -5.833,-5.832 C -2.118,1.828 -0.653,0.315 0,0 Z"
             style="fill:none;stroke:#182b3a;stroke-width:0.454;stroke-linecap:butt;stroke-linejoin:miter;stroke-miterlimit:10;stroke-dasharray:none;stroke-opacity:1"
             id="path172"
             inkscape:connector-curvature="0" /></g><g
           id="g174"
           transform="translate(349.4069,204.1367)"><path
             d="m 0,0 c 0,-0.564 -0.341,-1.024 -0.758,-1.024 -0.419,0 -0.759,0.46 -0.759,1.024 0,0.567 0.34,1.024 0.759,1.024 C -0.341,1.024 0,0.567 0,0"
             style="fill:#1b181c;fill-opacity:1;fill-rule:nonzero;stroke:none"
             id="path176"
             inkscape:connector-curvature="0" /></g><g
           id="g178"
           transform="translate(352.01,205.047)"><path
             d="m 0,0 c 0,-0.564 -0.341,-1.024 -0.758,-1.024 -0.419,0 -0.759,0.46 -0.759,1.024 0,0.567 0.34,1.024 0.759,1.024 C -0.341,1.024 0,0.567 0,0"
             style="fill:#1b181c;fill-opacity:1;fill-rule:nonzero;stroke:none"
             id="path180"
             inkscape:connector-curvature="0" /></g><g
           id="g182"
           transform="translate(301.2388,197.3515)"><path
             d="m 0,0 c 0,0 -0.372,-3.132 0.296,-3.8 0.668,-0.669 5.209,-2.35 7.283,-3.362 2.075,-1.01 6.353,-0.695 9.711,0.507 3.358,1.202 56.771,20.207 59.504,21.216 2.732,1.013 3.514,1.352 3.514,6.347"
             style="fill:#ececec;fill-opacity:1;fill-rule:nonzero;stroke:#182b3a;stroke-width:0.454;stroke-linecap:butt;stroke-linejoin:miter;stroke-miterlimit:10;stroke-dasharray:none;stroke-opacity:1"
             id="path184"
             inkscape:connector-curvature="0" /></g><g
           id="g186"
           transform="translate(340.3195,201.0824)"><path
             d="m 0,0 c 0.001,-0.655 0.057,-1.244 -0.995,-1.609 -1.024,-0.355 -1.432,0.028 -1.429,0.771 0.005,0.643 0.045,1.277 1.059,1.586 C -0.35,1.058 -0.001,0.642 0,0"
             style="fill:#182b3a;fill-opacity:1;fill-rule:nonzero;stroke:none"
             id="path188"
             inkscape:connector-curvature="0" /></g><g
           id="g190"
           transform="translate(292.8367,201.3179)"><path
             d="m 0,0 c 1.188,-0.562 13.3,-6.27 14.97,-7.081 1.67,-0.809 5.372,0.178 7.486,0.91 2.115,0.732 60.794,21.04 60.794,21.04 0,0 6.981,2.568 9.204,3.339 4.453,1.541 4.68,4.222 3.44,4.651 -1.809,0.628 -11.129,4.248 -12.139,4.654 -1.012,0.405 -2.965,0.604 -4.856,0 C 77.008,26.908 6.473,4.348 3.641,3.338 0.81,2.326 -1.188,0.562 0,0"
             style="fill:#182b3a;fill-opacity:1;fill-rule:nonzero;stroke:none"
             id="path192"
             inkscape:connector-curvature="0" /></g><g
           id="g194"
           transform="translate(292.8367,201.3179)"><path
             d="m 0,0 c 1.188,-0.562 13.3,-6.27 14.97,-7.081 1.67,-0.809 5.372,0.178 7.486,0.91 2.115,0.732 60.794,21.04 60.794,21.04 0,0 6.981,2.568 9.204,3.339 4.453,1.541 4.68,4.222 3.44,4.651 -1.809,0.628 -11.129,4.248 -12.139,4.654 -1.012,0.405 -2.965,0.604 -4.856,0 C 77.008,26.908 6.473,4.348 3.641,3.338 0.81,2.326 -1.188,0.562 0,0 Z"
             style="fill:none;stroke:#9c9d9e;stroke-width:0.90799999;stroke-linecap:butt;stroke-linejoin:miter;stroke-miterlimit:10;stroke-dasharray:none;stroke-opacity:1"
             id="path196"
             inkscape:connector-curvature="0" /></g><g
           id="g198"
           transform="translate(359.2748,207.716)"><path
             d="m 0,0 c 0,-0.564 -0.063,-1.086 -0.613,-1.238 -0.746,-0.206 -0.904,0.218 -0.904,0.783 0,0.567 0.128,1.091 0.759,1.266 C -0.233,0.955 0,0.567 0,0"
             style="fill:#182b3a;fill-opacity:1;fill-rule:nonzero;stroke:none"
             id="path200"
             inkscape:connector-curvature="0" /></g><g
           id="g202"
           transform="translate(309.657,208.9323)"><path
             d="M 0,0 20.1,-8.78"
             style="fill:#1b181c;fill-opacity:1;fill-rule:nonzero;stroke:#9c9d9e;stroke-width:0.454;stroke-linecap:butt;stroke-linejoin:miter;stroke-miterlimit:10;stroke-dasharray:none;stroke-opacity:1"
             id="path204"
             inkscape:connector-curvature="0" /></g><g
           id="g206"
           transform="translate(358.356,224.4869)"><path
             d="M 0,0 19.532,-7.495"
             style="fill:#1b181c;fill-opacity:1;fill-rule:nonzero;stroke:#9c9d9e;stroke-width:0.454;stroke-linecap:butt;stroke-linejoin:miter;stroke-miterlimit:10;stroke-dasharray:none;stroke-opacity:1"
             id="path208"
             inkscape:connector-curvature="0" /></g><g
           id="g210"
           transform="translate(326.1912,214.2437)"><path
             d="M 0,0 20.747,-8.238"
             style="fill:#1b181c;fill-opacity:1;fill-rule:nonzero;stroke:#9c9d9e;stroke-width:0.454;stroke-linecap:butt;stroke-linejoin:miter;stroke-miterlimit:10;stroke-dasharray:none;stroke-opacity:1"
             id="path212"
             inkscape:connector-curvature="0" /></g><g
           id="g214"
           transform="translate(342.4745,219.4637)"><path
             d="M 0,0 20.179,-7.891"
             style="fill:#1b181c;fill-opacity:1;fill-rule:nonzero;stroke:#9c9d9e;stroke-width:0.454;stroke-linecap:butt;stroke-linejoin:miter;stroke-miterlimit:10;stroke-dasharray:none;stroke-opacity:1"
             id="path216"
             inkscape:connector-curvature="0" /></g><g
           id="g218"
           transform="translate(339.5288,133.7322)"><path
             d="m 0,0 c 15.144,6.438 134.369,64.485 145.657,68.605 9.511,-2.573 3.514,-19.848 -2.24,-25.182 C 136.792,40.292 6.47,-21.249 -5.104,-26.938 -12.912,-27.749 -8.847,-8.691 0,0"
             style="fill:#b9b4ba;fill-opacity:1;fill-rule:nonzero;stroke:none"
             id="path220"
             inkscape:connector-curvature="0" /></g><g
           id="g222"
           transform="translate(339.5288,133.7322)"><path
             d="m 0,0 c 15.144,6.438 134.369,64.485 145.657,68.605 9.511,-2.573 3.514,-19.848 -2.24,-25.182 C 136.792,40.292 6.47,-21.249 -5.104,-26.938 -12.912,-27.749 -8.847,-8.691 0,0 Z"
             style="fill:none;stroke:#182b3a;stroke-width:0.454;stroke-linecap:butt;stroke-linejoin:miter;stroke-miterlimit:10;stroke-dasharray:none;stroke-opacity:1"
             id="path224"
             inkscape:connector-curvature="0" /></g><g
           id="g226"
           transform="translate(341.4016,133.0321)"><path
             d="m 0,0 c 15.144,6.438 134.369,64.485 145.657,68.605 9.511,-2.573 3.514,-19.848 -2.24,-25.182 C 136.792,40.292 6.471,-21.249 -5.104,-26.938 -12.912,-27.749 -8.847,-8.691 0,0"
             style="fill:#b9b4ba;fill-opacity:1;fill-rule:nonzero;stroke:none"
             id="path228"
             inkscape:connector-curvature="0" /></g><g
           id="g230"
           transform="translate(341.4016,133.0321)"><path
             d="m 0,0 c 15.144,6.438 134.369,64.485 145.657,68.605 9.511,-2.573 3.514,-19.848 -2.24,-25.182 C 136.792,40.292 6.471,-21.249 -5.104,-26.938 -12.912,-27.749 -8.847,-8.691 0,0 Z"
             style="fill:none;stroke:#182b3a;stroke-width:0.454;stroke-linecap:butt;stroke-linejoin:miter;stroke-miterlimit:10;stroke-dasharray:none;stroke-opacity:1"
             id="path232"
             inkscape:connector-curvature="0" /></g><g
           id="g234"
           transform="translate(359.3782,207.7283)"><path
             d="m 0,0 c 0.001,-0.655 0.057,-1.244 -0.995,-1.609 -1.024,-0.355 -1.432,0.028 -1.429,0.771 0.005,0.643 0.045,1.277 1.059,1.586 C -0.35,1.058 -0.001,0.642 0,0"
             style="fill:#182b3a;fill-opacity:1;fill-rule:nonzero;stroke:none"
             id="path236"
             inkscape:connector-curvature="0" /></g><g
           id="g246"
           transform="translate(195.0665,338.9032)" /></g></g><g
       id="g664"
       transform="translate(-1.8896714)"><g
         id="g262"><g
           clip-path="url(#clipPath268)"
           id="g264"><g
             transform="translate(258.709,260.0373)"
             id="g270"><path
               inkscape:connector-curvature="0"
               id="path272"
               style="fill:none;stroke:#172b3b;stroke-width:1.29100001;stroke-linecap:butt;stroke-linejoin:miter;stroke-miterlimit:10;stroke-dasharray:none;stroke-opacity:1"
               d="m 0,0 c 0,-9.031 -7.322,-16.353 -16.355,-16.353 -9.031,0 -16.352,7.322 -16.352,16.353 0,9.033 7.321,16.355 16.352,16.355 C -7.322,16.355 0,9.033 0,0 Z" /></g></g></g><g
         transform="translate(247.4322,265.1654)"
         id="g274"><path
           inkscape:connector-curvature="0"
           id="path276"
           style="fill:#172b3b;fill-opacity:1;fill-rule:nonzero;stroke:none"
           d="M 0,0 H -2.031 V 5.791 H -8.203 V 0 h -1.953 v -10.602 h 3.346 v -3.097 h 1.159 v -4.265 h 1.25 v 4.265 h 1.083 v 3.097 H 0 Z m -4.316,3.49 h 1.289 V 1.832 h -1.289 z m -2.715,0 h 1.289 V 1.832 h -1.289 z m 1.311,-13.232 0.563,3.72 h -2.368 l 3.61,5.187 -0.677,-3.945 h 1.803 z" /></g></g><g
       id="g674"
       transform="translate(-0.94484713)"><g
         id="g284"><g
           clip-path="url(#clipPath290)"
           id="g286"><g
             transform="translate(293.8819,259.0864)"
             id="g292"><path
               inkscape:connector-curvature="0"
               id="path294"
               style="fill:#ffffff;fill-opacity:1;fill-rule:nonzero;stroke:none"
               d="m 0,0 c 8.884,0 16.087,7.203 16.087,16.087 0,8.884 -7.203,16.086 -16.087,16.086 -8.884,0 -16.087,-7.202 -16.087,-16.086 C -16.087,7.203 -8.884,0 0,0" /></g><g
             transform="translate(310.2996,275.1417)"
             id="g296"><path
               inkscape:connector-curvature="0"
               id="path298"
               style="fill:none;stroke:#172b3b;stroke-width:1.29100001;stroke-linecap:butt;stroke-linejoin:miter;stroke-miterlimit:10;stroke-dasharray:none;stroke-opacity:1"
               d="m 0,0 c 0,-9.031 -7.322,-16.353 -16.355,-16.353 -9.031,0 -16.352,7.322 -16.352,16.353 0,9.033 7.321,16.355 16.352,16.355 C -7.322,16.355 0,9.033 0,0 Z" /></g></g></g><g
         transform="translate(299.0228,280.2698)"
         id="g300"><path
           inkscape:connector-curvature="0"
           id="path302"
           style="fill:#172b3b;fill-opacity:1;fill-rule:nonzero;stroke:none"
           d="M 0,0 H -2.031 V 5.791 H -8.203 V 0 h -1.953 v -10.602 h 3.346 v -3.097 h 1.159 v -4.265 h 1.25 v 4.265 h 1.083 v 3.097 H 0 Z m -4.316,3.49 h 1.289 V 1.832 h -1.289 z m -2.715,0 h 1.289 V 1.832 h -1.289 z m 1.311,-13.232 0.563,3.72 h -2.368 l 3.61,5.187 -0.677,-3.945 h 1.803 z" /></g></g><g
       id="g656"><g
         id="g310"><g
           clip-path="url(#clipPath316)"
           id="g312"><g
             transform="translate(187.8661,227.3384)"
             id="g318"><path
               inkscape:connector-curvature="0"
               id="path320"
               style="fill:#ffffff;fill-opacity:1;fill-rule:nonzero;stroke:none"
               d="m 0,0 c 8.884,0 16.087,7.203 16.087,16.087 0,8.884 -7.203,16.086 -16.087,16.086 -8.884,0 -16.087,-7.202 -16.087,-16.086 C -16.087,7.203 -8.884,0 0,0" /></g><g
             transform="translate(204.2839,243.3936)"
             id="g322"><path
               inkscape:connector-curvature="0"
               id="path324"
               style="fill:none;stroke:#172b3b;stroke-width:1.29100001;stroke-linecap:butt;stroke-linejoin:miter;stroke-miterlimit:10;stroke-dasharray:none;stroke-opacity:1"
               d="m 0,0 c 0,-9.031 -7.322,-16.353 -16.355,-16.353 -9.031,0 -16.352,7.322 -16.352,16.353 0,9.033 7.321,16.355 16.352,16.355 C -7.322,16.355 0,9.033 0,0 Z" /></g></g></g><g
         transform="translate(193.007,248.5218)"
         id="g326"><path
           inkscape:connector-curvature="0"
           id="path328"
           style="fill:#172b3b;fill-opacity:1;fill-rule:nonzero;stroke:none"
           d="M 0,0 H -2.031 V 5.791 H -8.203 V 0 h -1.953 v -10.602 h 3.346 v -3.097 h 1.159 v -4.265 h 1.25 v 4.265 h 1.083 v 3.097 H 0 Z m -4.316,3.49 h 1.289 V 1.832 h -1.289 z m -2.715,0 h 1.289 V 1.832 h -1.289 z m 1.311,-13.232 0.563,3.72 h -2.368 l 3.61,5.187 -0.677,-3.945 h 1.803 z" /></g></g><g
       id="g684"><g
         id="g336"><g
           clip-path="url(#clipPath342)"
           id="g338"><g
             transform="translate(345.4724,272.126)"
             id="g344"><path
               inkscape:connector-curvature="0"
               id="path346"
               style="fill:#ffffff;fill-opacity:1;fill-rule:nonzero;stroke:none"
               d="m 0,0 c 8.884,0 16.087,7.203 16.087,16.087 0,8.884 -7.203,16.086 -16.087,16.086 -8.884,0 -16.087,-7.202 -16.087,-16.086 C -16.087,7.203 -8.884,0 0,0" /></g><g
             transform="translate(361.8902,288.181)"
             id="g348"><path
               inkscape:connector-curvature="0"
               id="path350"
               style="fill:none;stroke:#172b3b;stroke-width:1.29100001;stroke-linecap:butt;stroke-linejoin:miter;stroke-miterlimit:10;stroke-dasharray:none;stroke-opacity:1"
               d="m 0,0 c 0,-9.031 -7.322,-16.353 -16.355,-16.353 -9.031,0 -16.352,7.322 -16.352,16.353 0,9.033 7.321,16.355 16.352,16.355 C -7.322,16.355 0,9.033 0,0 Z" /></g></g></g><g
         transform="translate(350.6133,293.3091)"
         id="g352"><path
           inkscape:connector-curvature="0"
           id="path354"
           style="fill:#172b3b;fill-opacity:1;fill-rule:nonzero;stroke:none"
           d="M 0,0 H -2.031 V 5.791 H -8.203 V 0 h -1.953 v -10.602 h 3.346 v -3.097 h 1.159 v -4.265 h 1.25 v 4.265 h 1.083 v 3.097 H 0 Z m -4.316,3.49 h 1.289 V 1.832 h -1.289 z m -2.715,0 h 1.289 V 1.832 h -1.289 z m 1.311,-13.232 0.563,3.72 h -2.368 l 3.61,5.187 -0.677,-3.945 h 1.803 z" /></g></g><g
       id="g366"><g
         id="g368"
         clip-path="url(#clipPath372)"><g
           id="g374"
           transform="translate(415.9134,260.0786)"><path
             d="m 0,0 c 8.884,0 16.087,7.203 16.087,16.087 0,8.884 -7.203,16.086 -16.087,16.086 -8.884,0 -16.087,-7.202 -16.087,-16.086 C -16.087,7.203 -8.884,0 0,0"
             style="fill:#ffffff;fill-opacity:1;fill-rule:nonzero;stroke:none"
             id="path376"
             inkscape:connector-curvature="0" /></g><g
           id="g378"
           transform="translate(431.9044,276.3853)"><path
             d="m 0,0 c 0,-9.031 -7.322,-16.353 -16.355,-16.353 -9.031,0 -16.353,7.322 -16.353,16.353 0,9.033 7.322,16.355 16.353,16.355 C -7.322,16.355 0,9.033 0,0 Z"
             style="fill:none;stroke:#172b3b;stroke-width:1.29100001;stroke-linecap:butt;stroke-linejoin:miter;stroke-miterlimit:10;stroke-dasharray:none;stroke-opacity:1"
             id="path380"
             inkscape:connector-curvature="0" /></g><g
           id="g382"
           transform="translate(419.873,287.9087)"><path
             d="m 0,0 h -8.594 c -0.52,0 -1.457,-0.207 -1.457,-1.406 v -19.895 c 0,-0.679 0.156,-1.614 1.355,-1.614 h 8.645 c 1.147,0 1.457,1.301 1.457,1.56 V -1.511 C 1.406,-0.156 0.261,0 0,0 m 0.261,-20.937 h -9.272 v 18.594 h 9.272 z"
             style="fill:#172b3b;fill-opacity:1;fill-rule:nonzero;stroke:none"
             id="path384"
             inkscape:connector-curvature="0" /></g><g
           id="g386"
           transform="translate(406.5089,267.1714)"><path
             d="m 0,0 c -2.285,2.488 -3.679,5.803 -3.682,9.448 0,3.841 1.553,7.322 4.06,9.846 m 17.144,0.181 c 2.617,-2.539 4.243,-6.094 4.243,-10.027 0,-2.937 -0.906,-5.661 -2.454,-7.907"
             style="fill:none;stroke:#172b3b;stroke-width:0.625;stroke-linecap:butt;stroke-linejoin:miter;stroke-miterlimit:10;stroke-dasharray:none;stroke-opacity:1"
             id="path388"
             inkscape:connector-curvature="0" /></g><g
           id="g390"
           transform="translate(408.0811,268.5558)"><path
             d="m 0,0 c -1.921,2.092 -3.093,4.88 -3.093,7.942 0,3.227 1.303,6.152 3.41,8.274 m 14.007,0.151 c 2.199,-2.134 3.564,-5.12 3.564,-8.425 0,-2.818 -0.994,-5.403 -2.646,-7.427"
             style="fill:none;stroke:#172b3b;stroke-width:0.52499998;stroke-linecap:butt;stroke-linejoin:miter;stroke-miterlimit:10;stroke-dasharray:none;stroke-opacity:1"
             id="path392"
             inkscape:connector-curvature="0" /></g></g></g><g
       id="g394"
       transform="translate(417.0601,281.9506)"><path
         d="m 0,0 -4.635,-6.667 h 3.041 l -0.723,-4.779 3.767,6.378 h -2.317 z"
         style="fill:#172b3b;fill-opacity:1;fill-rule:nonzero;stroke:none"
         id="path396"
         inkscape:connector-curvature="0" /></g><g
       id="g404"><g
         id="g406"
         clip-path="url(#clipPath410)"><g
           id="g412"
           transform="translate(469.7716,239.3687)"><path
             d="m 0,0 c 8.884,0 16.087,7.203 16.087,16.087 0,8.884 -7.203,16.086 -16.087,16.086 -8.884,0 -16.087,-7.202 -16.087,-16.086 C -16.087,7.203 -8.884,0 0,0"
             style="fill:#ffffff;fill-opacity:1;fill-rule:nonzero;stroke:none"
             id="path414"
             inkscape:connector-curvature="0" /></g><g
           id="g416"
           transform="translate(485.7626,255.6752)"><path
             d="m 0,0 c 0,-9.031 -7.322,-16.353 -16.355,-16.353 -9.031,0 -16.353,7.322 -16.353,16.353 0,9.033 7.322,16.355 16.353,16.355 C -7.322,16.355 0,9.033 0,0 Z"
             style="fill:none;stroke:#172b3b;stroke-width:1.29100001;stroke-linecap:butt;stroke-linejoin:miter;stroke-miterlimit:10;stroke-dasharray:none;stroke-opacity:1"
             id="path418"
             inkscape:connector-curvature="0" /></g><g
           id="g420"
           transform="translate(473.7313,267.1987)"><path
             d="m 0,0 h -8.594 c -0.52,0 -1.457,-0.207 -1.457,-1.406 v -19.895 c 0,-0.679 0.156,-1.614 1.355,-1.614 h 8.645 c 1.147,0 1.457,1.301 1.457,1.56 V -1.511 C 1.406,-0.156 0.261,0 0,0 m 0.261,-20.937 h -9.273 v 18.594 h 9.273 z"
             style="fill:#172b3b;fill-opacity:1;fill-rule:nonzero;stroke:none"
             id="path422"
             inkscape:connector-curvature="0" /></g><g
           id="g424"
           transform="translate(460.3671,246.4614)"><path
             d="m 0,0 c -2.285,2.488 -3.679,5.803 -3.682,9.448 0,3.841 1.553,7.322 4.06,9.846 m 17.144,0.181 c 2.617,-2.539 4.243,-6.094 4.243,-10.027 0,-2.937 -0.906,-5.661 -2.454,-7.907"
             style="fill:none;stroke:#172b3b;stroke-width:0.625;stroke-linecap:butt;stroke-linejoin:miter;stroke-miterlimit:10;stroke-dasharray:none;stroke-opacity:1"
             id="path426"
             inkscape:connector-curvature="0" /></g><g
           id="g428"
           transform="translate(461.9394,247.8457)"><path
             d="m 0,0 c -1.921,2.092 -3.093,4.88 -3.093,7.942 0,3.227 1.303,6.152 3.41,8.274 m 14.007,0.151 c 2.199,-2.134 3.564,-5.12 3.564,-8.425 0,-2.818 -0.994,-5.403 -2.646,-7.427"
             style="fill:none;stroke:#172b3b;stroke-width:0.52499998;stroke-linecap:butt;stroke-linejoin:miter;stroke-miterlimit:10;stroke-dasharray:none;stroke-opacity:1"
             id="path430"
             inkscape:connector-curvature="0" /></g></g></g><g
       id="g432"
       transform="translate(470.9184,261.2406)"><path
         d="m 0,0 -4.634,-6.667 h 3.04 l -0.723,-4.779 3.767,6.378 h -2.317 z"
         style="fill:#172b3b;fill-opacity:1;fill-rule:nonzero;stroke:none"
         id="path434"
         inkscape:connector-curvature="0" /></g><g
       id="g444"><g
         id="g446"
         clip-path="url(#clipPath450)"><g
           id="g452"
           transform="translate(203.8122,390.338)"><path
             d="m 0,0 c 0,-9.031 -7.324,-16.353 -16.355,-16.353 -9.033,0 -16.355,7.322 -16.355,16.353 0,9.033 7.322,16.355 16.355,16.355 C -7.324,16.355 0,9.033 0,0 Z"
             style="fill:none;stroke:#172b3b;stroke-width:1.29100001;stroke-linecap:butt;stroke-linejoin:miter;stroke-miterlimit:10;stroke-dasharray:none;stroke-opacity:1"
             id="path454"
             inkscape:connector-curvature="0" /></g><g
           id="g456"
           transform="translate(192.7017,390.3036)"><path
             d="m 0,0 c 0,-2.847 -2.31,-5.156 -5.156,-5.156 -2.849,0 -5.157,2.309 -5.157,5.156 0,2.849 2.308,5.156 5.157,5.156 C -2.31,5.156 0,2.849 0,0"
             style="fill:#172b3b;fill-opacity:1;fill-rule:nonzero;stroke:none"
             id="path458"
             inkscape:connector-curvature="0" /></g><g
           id="g460"
           transform="translate(188.5611,397.5034)"><path
             d="m 0,0 c 0,-0.596 -0.437,-1.079 -0.977,-1.079 -0.539,0 -0.976,0.483 -0.976,1.079 v 3.63 c 0,0.599 0.437,1.082 0.976,1.082 C -0.437,4.712 0,4.229 0,3.63 Z"
             style="fill:#172b3b;fill-opacity:1;fill-rule:nonzero;stroke:none"
             id="path462"
             inkscape:connector-curvature="0" /></g><g
           id="g464"
           transform="translate(188.5611,379.6079)"><path
             d="m 0,0 c 0,-0.596 -0.437,-1.079 -0.977,-1.079 -0.539,0 -0.976,0.483 -0.976,1.079 v 3.63 c 0,0.599 0.437,1.082 0.976,1.082 C -0.437,4.712 0,4.229 0,3.63 Z"
             style="fill:#172b3b;fill-opacity:1;fill-rule:nonzero;stroke:none"
             id="path466"
             inkscape:connector-curvature="0" /></g><g
           id="g468"
           transform="translate(194.7232,389.4468)"><path
             d="m 0,0 c -0.596,-0.003 -1.084,0.43 -1.086,0.969 -0.005,0.54 0.476,0.982 1.071,0.984 L 3.616,1.98 C 4.214,1.985 4.7,1.553 4.705,1.013 4.707,0.474 4.229,0.032 3.63,0.027 Z"
             style="fill:#172b3b;fill-opacity:1;fill-rule:nonzero;stroke:none"
             id="path470"
             inkscape:connector-curvature="0" /></g><g
           id="g472"
           transform="translate(176.8277,389.3149)"><path
             d="m 0,0 c -0.594,-0.005 -1.082,0.43 -1.086,0.969 -0.005,0.54 0.477,0.979 1.073,0.984 L 3.617,1.98 C 4.214,1.985 4.7,1.55 4.705,1.011 4.708,0.471 4.229,0.032 3.63,0.027 Z"
             style="fill:#172b3b;fill-opacity:1;fill-rule:nonzero;stroke:none"
             id="path474"
             inkscape:connector-curvature="0" /></g><g
           id="g476"
           transform="translate(193.2755,386.0288)"><path
             d="m 0,0 c -0.515,0.298 -0.718,0.918 -0.448,1.387 0.27,0.466 0.907,0.603 1.423,0.305 L 4.121,-0.122 C 4.639,-0.42 4.839,-1.04 4.569,-1.506 4.299,-1.975 3.662,-2.112 3.145,-1.814 Z"
             style="fill:#172b3b;fill-opacity:1;fill-rule:nonzero;stroke:none"
             id="path478"
             inkscape:connector-curvature="0" /></g><g
           id="g480"
           transform="translate(177.7726,394.9668)"><path
             d="M 0,0 C -0.516,0.298 -0.718,0.918 -0.449,1.387 -0.18,1.853 0.459,1.99 0.975,1.692 L 4.121,-0.12 C 4.636,-0.42 4.838,-1.04 4.568,-1.506 4.299,-1.975 3.662,-2.112 3.145,-1.812 Z"
             style="fill:#172b3b;fill-opacity:1;fill-rule:nonzero;stroke:none"
             id="path482"
             inkscape:connector-curvature="0" /></g><g
           id="g484"
           transform="translate(194.1592,393.2798)"><path
             d="m 0,0 c -0.51,-0.308 -1.152,-0.183 -1.429,0.281 -0.28,0.461 -0.089,1.086 0.421,1.391 l 3.11,1.873 C 2.613,3.855 3.253,3.728 3.531,3.267 3.81,2.805 3.621,2.18 3.11,1.872 Z"
             style="fill:#172b3b;fill-opacity:1;fill-rule:nonzero;stroke:none"
             id="path486"
             inkscape:connector-curvature="0" /></g><g
           id="g488"
           transform="translate(178.8272,384.0488)"><path
             d="m 0,0 c -0.509,-0.308 -1.15,-0.183 -1.428,0.278 -0.278,0.464 -0.088,1.087 0.422,1.394 l 3.11,1.873 C 2.615,3.853 3.254,3.728 3.533,3.267 3.811,2.803 3.623,2.18 3.11,1.873 Z"
             style="fill:#172b3b;fill-opacity:1;fill-rule:nonzero;stroke:none"
             id="path490"
             inkscape:connector-curvature="0" /></g><g
           id="g492"
           transform="translate(190.1992,383.729)"><path
             d="M 0,0 C -0.289,0.522 -0.144,1.157 0.328,1.421 0.8,1.682 1.417,1.472 1.707,0.952 L 3.472,-2.222 C 3.762,-2.742 3.616,-3.376 3.145,-3.64 2.673,-3.901 2.056,-3.694 1.765,-3.171 Z"
             style="fill:#172b3b;fill-opacity:1;fill-rule:nonzero;stroke:none"
             id="path494"
             inkscape:connector-curvature="0" /></g><g
           id="g496"
           transform="translate(181.4957,399.3661)"><path
             d="M 0,0 C -0.289,0.52 -0.143,1.157 0.328,1.419 0.799,1.682 1.417,1.47 1.706,0.95 L 3.473,-2.222 C 3.762,-2.744 3.616,-3.379 3.144,-3.64 2.673,-3.904 2.056,-3.694 1.766,-3.171 Z"
             style="fill:#172b3b;fill-opacity:1;fill-rule:nonzero;stroke:none"
             id="path498"
             inkscape:connector-curvature="0" /></g><g
           id="g500"
           transform="translate(191.923,396.0483)"><path
             d="M 0,0 C -0.291,-0.52 -0.91,-0.727 -1.38,-0.464 -1.851,-0.2 -1.995,0.435 -1.703,0.955 l 1.775,3.166 c 0.292,0.523 0.909,0.73 1.379,0.466 0.47,-0.263 0.617,-0.898 0.325,-1.42 z"
             style="fill:#172b3b;fill-opacity:1;fill-rule:nonzero;stroke:none"
             id="path502"
             inkscape:connector-curvature="0" /></g><g
           id="g504"
           transform="translate(183.173,380.438)"><path
             d="m 0,0 c -0.291,-0.52 -0.908,-0.73 -1.38,-0.466 -0.469,0.263 -0.613,0.901 -0.323,1.421 L 0.072,4.121 C 0.365,4.641 0.981,4.851 1.453,4.585 1.924,4.321 2.068,3.687 1.775,3.167 Z"
             style="fill:#172b3b;fill-opacity:1;fill-rule:nonzero;stroke:none"
             id="path506"
             inkscape:connector-curvature="0" /></g><g
           id="g508"
           transform="translate(299.9527,390.3381)"><path
             d="m 0,0 c 0,-9.031 -7.323,-16.353 -16.355,-16.353 -9.032,0 -16.354,7.322 -16.354,16.353 0,9.033 7.322,16.355 16.354,16.355 C -7.323,16.355 0,9.033 0,0 Z"
             style="fill:none;stroke:#172b3b;stroke-width:1.29100001;stroke-linecap:butt;stroke-linejoin:miter;stroke-miterlimit:10;stroke-dasharray:none;stroke-opacity:1"
             id="path510"
             inkscape:connector-curvature="0" /></g></g></g><g
       id="g512"
       transform="translate(285.4232,400.95155)"><path
         d="M 0,0 V 1.217 H -3.405 V 0 H -7.383 V -22.442 H 3.765 V 0 Z m 2.479,-6.621 h -8.465 v 5.205 h 8.465 z"
         style="fill:#172b3b;fill-opacity:1;fill-rule:nonzero;stroke:none"
         id="path514"
         inkscape:connector-curvature="0" /></g><g
       id="g524"
       transform="translate(0,-4.5e-4)"><g
         id="g526"
         clip-path="url(#clipPath530)"><g
           id="g532"
           transform="translate(466.5486,386.4614)"><path
             d="m 0,0 c -1.63,0.807 -2.752,2.488 -2.752,4.43 0,2.729 2.213,4.941 4.941,4.941 1.259,0 2.408,-0.47 3.28,-1.245 M 2.104,15.39 V 12.002 M 9.749,12.088 7.408,9.638 M -5.595,12.136 -3.146,9.793 M -8.695,4.288 h 3.389 m -0.262,-7.521 2.396,2.396 M 13.382,-8.838 C 9.727,-8.961 5.875,-8.988 3.369,-8.686 2.097,-8.533 0.184,-7.627 0.233,-4.64 c 0.05,3.086 2.478,4.603 4.299,4.452 0,2.883 1.068,6.187 4.755,6.828 4.653,0.809 6.929,-2.782 6.98,-4.755 0.801,0.296 2.228,0.697 3.081,0.561"
             style="fill:none;stroke:#172b3b;stroke-width:1.75;stroke-linecap:round;stroke-linejoin:miter;stroke-miterlimit:10;stroke-dasharray:none;stroke-opacity:1"
             id="path534"
             inkscape:connector-curvature="0" /></g><g
           id="g536"
           transform="translate(486.3295,390.338)"><path
             d="m 0,0 c 0,-9.031 -7.322,-16.352 -16.355,-16.352 -9.031,0 -16.353,7.321 -16.353,16.352 0,9.033 7.322,16.355 16.353,16.355 C -7.322,16.355 0,9.033 0,0 Z"
             style="fill:none;stroke:#172b3b;stroke-width:1.29100001;stroke-linecap:butt;stroke-linejoin:miter;stroke-miterlimit:10;stroke-dasharray:none;stroke-opacity:1"
             id="path538"
             inkscape:connector-curvature="0" /></g></g></g></g></svg>