<?xml version="1.0" encoding="UTF-8" standalone="no"?>
<!-- Generator: Adobe Illustrator 26.0.3, SVG Export Plug-In . SVG Version: 6.00 Build 0)  -->

<svg
   version="1.1"
   id="Ebene_1"
   x="0px"
   y="0px"
   viewBox="0 0 25.000001 25"
   xml:space="preserve"
   sodipodi:docname="usbPort.svg"
   inkscape:version="1.1 (c68e22c387, 2021-05-23)"
   width="25"
   height="25"
   xmlns:inkscape="http://www.inkscape.org/namespaces/inkscape"
   xmlns:sodipodi="http://sodipodi.sourceforge.net/DTD/sodipodi-0.dtd"
   xmlns="http://www.w3.org/2000/svg"
   xmlns:svg="http://www.w3.org/2000/svg"><defs
   id="defs13" /><sodipodi:namedview
   id="namedview11"
   pagecolor="#ffffff"
   bordercolor="#666666"
   borderopacity="1.0"
   inkscape:pageshadow="2"
   inkscape:pageopacity="0.0"
   inkscape:pagecheckerboard="0"
   showgrid="false"
   inkscape:zoom="10.425589"
   inkscape:cx="12.517279"
   inkscape:cy="15.298896"
   inkscape:window-width="2560"
   inkscape:window-height="1377"
   inkscape:window-x="-8"
   inkscape:window-y="-8"
   inkscape:window-maximized="1"
   inkscape:current-layer="Ebene_1" />
<style
   type="text/css"
   id="style2">
	.st0{fill:none;stroke:#172B3A;stroke-width:1.0329;stroke-miterlimit:10;}
	.st1{fill:#172B3A;}
</style>
<g
   id="g8"
   transform="matrix(0.91935763,0,0,0.91935763,-20.422197,-20.238325)">
	<path
   class="st0"
   d="m 48.89,35.61 c 0,7.22 -5.86,13.08 -13.08,13.08 -7.22,0 -13.08,-5.86 -13.08,-13.08 0,-7.23 5.86,-13.08 13.08,-13.08 7.22,0 13.08,5.86 13.08,13.08 z"
   id="path4" />
	<path
   class="st1"
   d="M 39.87,31.51 H 38.25 V 26.88 H 33.3 v 4.63 h -1.56 v 8.48 h 2.68 v 2.48 h 0.93 v 3.41 h 1 v -3.41 h 0.87 v -2.48 h 2.65 z m -3.46,-2.79 h 1.03 v 1.33 h -1.03 z m -2.17,0 h 1.03 v 1.33 h -1.03 z m 1.05,10.59 0.45,-2.98 h -1.89 l 2.89,-4.15 -0.54,3.16 h 1.44 z"
   id="path6" />
</g>
</svg>
