<?xml version="1.0" encoding="utf-8"?>
<!-- Generator: Adobe Illustrator 26.0.3, SVG Export Plug-In . SVG Version: 6.00 Build 0)  -->
<svg version="1.1" id="Ebene_1" xmlns="http://www.w3.org/2000/svg" xmlns:xlink="http://www.w3.org/1999/xlink" x="0px" y="0px"
	 viewBox="0 0 94.13 74.11" style="enable-background:new 0 0 94.13 74.11;" xml:space="preserve">
<style type="text/css">
	.st0{fill:none;stroke:#172B3A;stroke-width:1.0329;stroke-miterlimit:10;}
	.st1{fill:#172B3A;stroke:#172B3A;stroke-width:0.5;stroke-miterlimit:10;}
	.st2{fill:none;stroke:#172B3A;stroke-width:2.1321;stroke-linecap:round;stroke-miterlimit:10;}
	.st3{fill:none;stroke:#172B3A;stroke-width:2.1318;stroke-linecap:round;stroke-miterlimit:10;}
	.st4{fill:none;stroke:#172B3A;stroke-width:2.2264;stroke-linecap:round;stroke-miterlimit:10;}
</style>
<g>
	<path class="st0" d="M57.48,35c0,7.22-5.86,13.08-13.08,13.08c-7.22,0-13.08-5.86-13.08-13.08c0-7.23,5.86-13.08,13.08-13.08
		C51.62,21.92,57.48,27.77,57.48,35z"/>
	<circle class="st1" cx="44.31" cy="41.93" r="2.88"/>
	<path class="st2" d="M36.49,35.87c1.12-2.87,4.2-4.93,7.82-4.93c3.63,0,6.71,2.07,7.82,4.94"/>
	<path class="st3" d="M38.59,39.15c0.82-2.11,3.07-3.63,5.72-3.63c2.65,0,4.91,1.52,5.72,3.64"/>
	<path class="st4" d="M35.41,31.52c1.29-2.88,4.82-4.95,8.98-4.95c4.17,0,7.71,2.07,8.99,4.96"/>
</g>
</svg>
