<?xml version="1.0" encoding="utf-8"?>
<!-- Generator: Adobe Illustrator 26.0.3, SVG Export Plug-In . SVG Version: 6.00 Build 0)  -->
<svg version="1.1" id="Piktogramm" xmlns="http://www.w3.org/2000/svg" xmlns:xlink="http://www.w3.org/1999/xlink" x="0px" y="0px"
	 viewBox="0 0 49.45 49.57" style="enable-background:new 0 0 49.45 49.57;" xml:space="preserve">
<style type="text/css">
	.st0{fill:none;stroke:#172B3A;stroke-width:1.0329;stroke-miterlimit:10;}
	.st1{fill:#172B3A;stroke:#172B3A;stroke-width:0;stroke-miterlimit:10;}
	.st2{fill:none;stroke:#172B3A;stroke-width:0.5;stroke-miterlimit:10;}
	.st3{fill:none;stroke:#172B3A;stroke-width:0.4202;stroke-miterlimit:10;}
</style>
<path class="st0" d="M39.45,24.16c0,7.22-5.86,13.08-13.08,13.08c-7.22,0-13.08-5.86-13.08-13.08c0-7.23,5.86-13.08,13.08-13.08
	C33.59,11.08,39.45,16.94,39.45,24.16z"/>
<path class="st1" d="M29.83,14.94c-0.21,0-6.46,0-6.88,0s-1.17,0.17-1.17,1.13c0,0.96,0,15.38,0,15.92c0,0.54,0.12,1.29,1.08,1.29
	c0.96,0,6,0,6.92,0s1.17-1.04,1.17-1.25c0-0.21,0-14.79,0-15.88C30.95,15.07,30.03,14.94,29.83,14.94z M30.03,31.69h-7.42V16.82
	h7.42V31.69z"/>
<path class="st2" d="M19.13,31.53c-1.83-1.99-2.94-4.64-2.95-7.56c0-3.07,1.24-5.86,3.25-7.88"/>
<path class="st2" d="M33.15,15.95c2.09,2.03,3.39,4.88,3.39,8.02c0,2.35-0.72,4.53-1.96,6.33"/>
<path class="st3" d="M20.39,30.43c-1.54-1.67-2.47-3.9-2.47-6.35c0-2.58,1.04-4.92,2.73-6.62"/>
<path class="st3" d="M31.85,17.33c1.76,1.71,2.85,4.1,2.85,6.74c0,2.25-0.79,4.32-2.12,5.94"/>
<polygon class="st1" points="27.58,19.71 23.87,25.04 26.3,25.04 25.72,28.87 28.74,23.76 26.88,23.76 "/>
</svg>
